<svg width="1000" height="1000" viewBox="0 0 1000 1000" version="2.0" xmlns="http://www.w3.org/2000/svg" xmlns:xlink="http://www.w3.org/1999/xlink" xmlns:figma="http://www.figma.com/figma/ns">
<title>cc-1x1.svg</title>
<desc>Created using Figma 0.90</desc>
<g id="Canvas" transform="matrix(2 0 0 2 0 -2158)" figma:type="canvas">
<mask id="mask0_alpha" mask-type="alpha">
<path d="M 0 1079L 500 1079L 500 1579L 0 1579L 0 1079Z" fill="#FFFFFF"/>
</mask>
<g id="cc-1x1" style="mix-blend-mode:normal;" mask="url(#mask0_alpha)" figma:type="frame">
<g id="bg-a" style="mix-blend-mode:normal;" figma:type="star">
<use xlink:href="#path0_fill" transform="matrix(0.997769 0.066768 -0.066768 0.997769 29.8439 1133)" fill="#0066FF" style="mix-blend-mode:normal;"/>
</g>
<g id="label-b" style="mix-blend-mode:normal;" figma:type="text">
<use xlink:href="#path1_fill" transform="matrix(0.989303 0.145879 -0.145879 0.989303 214.171 1335.04)" fill="#FFFFFF" style="mix-blend-mode:normal;"/>
</g>
<g id="label-a" style="mix-blend-mode:normal;" figma:type="text">
<use xlink:href="#path2_fill" transform="matrix(0.976855 0.213904 -0.213904 0.976855 146.478 1281.06)" fill="#FFFFFF" style="mix-blend-mode:normal;"/>
</g>
</g>
</g>
<defs>
<path id="path0_fill" d="M 233.183 0L 253.384 82.0966L 305.241 8.86926L 291.809 91.7989L 370.245 34.6088L 324.494 110.254L 421.833 74.6992L 348.242 135.655L 454.954 125.216L 360.726 165.516L 466.367 181.214L 360.726 196.913L 454.954 237.213L 348.242 226.774L 421.833 287.729L 324.494 252.175L 370.245 327.82L 291.809 270.63L 305.241 353.559L 253.384 280.332L 233.183 362.429L 212.983 280.332L 161.126 353.559L 174.558 270.63L 96.1217 327.82L 141.873 252.175L 44.5341 287.729L 118.125 226.774L 11.4128 237.213L 105.64 196.913L 0 181.214L 105.64 165.516L 11.4128 125.216L 118.125 135.655L 44.5341 74.6992L 141.873 110.254L 96.1217 34.6088L 174.558 91.7989L 161.126 8.86926L 212.983 82.0966L 233.183 0Z"/>
<path id="path1_fill" d="M 25.08 20C 24.12 23.36 20.68 25.84 16.56 25.84C 10.8 25.84 6.88 21.32 6.88 16C 6.88 10.64 10.84 6.04 16.6 6.04C 20.88 6.04 24.2 8.64 25.08 12L 30.2 12C 29.04 6.04 23.44 1.48 16.52 1.48C 8.08 1.48 2 7.96 2 16C 2 24 8.08 30.52 16.52 30.52C 23.44 30.52 29.04 26.04 30.2 20L 25.08 20ZM 34.9875 2L 34.9875 30L 39.5875 30L 39.5875 2L 34.9875 2ZM 61.6628 30L 61.6628 10.4L 57.0628 10.4L 57.0628 21.84C 57.0628 25.2 55.0628 26.76 52.6628 26.8C 50.5828 26.8 49.5028 25.16 49.5028 23.4L 49.5028 10.4L 44.9028 10.4L 44.9028 23.8C 44.9028 28.4 47.7428 30.48 51.5028 30.48C 54.0228 30.48 56.4628 29.28 57.1028 27.56L 57.1028 30L 61.6628 30ZM 67.2531 30L 71.8531 30L 71.8531 28.16C 73.4931 29.8 75.2931 30.52 77.4131 30.52C 82.7331 30.52 85.5331 25.84 85.5331 20.2C 85.5331 14.56 82.4931 9.88 77.1731 9.88C 75.1331 9.88 73.2931 10.64 71.8531 12.24L 71.8531 2L 67.2531 2L 67.2531 30ZM 71.8131 20.12C 71.8131 16.76 73.1731 13.76 76.3731 13.76C 79.6131 13.76 80.9331 16.84 80.9331 20.12C 80.9331 23.44 79.6131 26.68 76.3731 26.68C 73.1331 26.68 71.8131 23.44 71.8131 20.12Z"/>
<path id="path2_fill" d="M 25.08 20C 24.12 23.36 20.68 25.84 16.56 25.84C 10.8 25.84 6.88 21.32 6.88 16C 6.88 10.64 10.84 6.04 16.6 6.04C 20.88 6.04 24.2 8.64 25.08 12L 30.2 12C 29.04 6.04 23.44 1.48 16.52 1.48C 8.08 1.48 2 7.96 2 16C 2 24 8.08 30.52 16.52 30.52C 23.44 30.52 29.04 26.04 30.2 20L 25.08 20ZM 32.3875 10.4L 39.2675 29.92L 38.9475 31C 38.7475 31.6 38.3875 32.4 37.9475 32.92C 37.3475 33.6 36.3475 33.96 35.5875 33.96C 35.0675 33.96 34.6675 33.92 34.3475 33.84C 34.1475 33.8 33.9875 33.72 33.8675 33.68L 33.8675 37.88L 34.6675 38.04C 35.1475 38.16 35.7875 38.2 36.4275 38.2C 40.6675 38.2 42.4275 34.52 43.0675 32.76L 46.9075 21.28L 50.5075 10.4L 45.6275 10.4L 41.5075 24.28L 37.4275 10.4L 32.3875 10.4ZM 53.2688 30L 57.8688 30L 57.8688 28.16C 59.5087 29.8 61.3087 30.52 63.4288 30.52C 68.7487 30.52 71.5488 25.84 71.5488 20.2C 71.5488 14.56 68.5088 9.88 63.1887 9.88C 61.1487 9.88 59.3088 10.64 57.8688 12.24L 57.8688 2L 53.2688 2L 53.2688 30ZM 57.8288 20.12C 57.8288 16.76 59.1887 13.76 62.3888 13.76C 65.6288 13.76 66.9488 16.84 66.9488 20.12C 66.9488 23.44 65.6288 26.68 62.3888 26.68C 59.1487 26.68 57.8288 23.44 57.8288 20.12ZM 88.6822 23.6C 88.0022 25.6 86.5622 26.6 84.3622 26.6C 81.8022 26.6 79.8422 24.52 79.5622 21.48L 93.5222 21.48C 93.5622 20.88 93.5622 20.6 93.5622 20.24C 93.5622 13.6 90.0022 9.88 84.4422 9.88C 78.4022 9.88 74.9222 14.56 74.9222 20.2C 74.9222 25.84 78.6822 30.52 84.4822 30.52C 89.1222 30.52 92.4022 27.56 93.2422 23.6L 88.6822 23.6ZM 84.3222 13.6C 87.3222 13.6 88.9222 15.92 88.9222 18.2L 79.6422 18.2C 79.6422 15.96 81.2822 13.6 84.3222 13.6ZM 97.9953 30L 102.595 30L 102.595 18.8C 102.595 15.72 104.435 14.36 106.355 14.36C 107.275 14.36 108.235 14.68 109.235 15.36L 110.475 10.88C 109.475 10.24 108.235 9.96 106.995 9.96C 105.075 9.96 103.795 10.76 102.555 12.24L 102.555 10.32L 97.9953 10.32L 97.9953 30ZM 113.23 10.4L 113.23 30L 117.83 30L 117.83 18.56C 117.83 15.28 119.95 13.6 122.35 13.6C 124.43 13.6 125.51 15.24 125.51 17L 125.51 30L 130.11 30L 130.11 16.6C 130.11 12 127.27 9.92 123.51 9.92C 121.07 9.92 118.43 11.12 117.79 12.84L 117.79 10.4L 113.23 10.4ZM 148.057 23.6C 147.377 25.6 145.937 26.6 143.737 26.6C 141.177 26.6 139.217 24.52 138.937 21.48L 152.897 21.48C 152.937 20.88 152.937 20.6 152.937 20.24C 152.937 13.6 149.377 9.88 143.817 9.88C 137.777 9.88 134.297 14.56 134.297 20.2C 134.297 25.84 138.057 30.52 143.857 30.52C 148.497 30.52 151.777 27.56 152.617 23.6L 148.057 23.6ZM 143.697 13.6C 146.697 13.6 148.297 15.92 148.297 18.2L 139.017 18.2C 139.017 15.96 140.657 13.6 143.697 13.6ZM 158.37 10.4L 155.29 10.4L 155.29 14.28L 158.37 14.28L 158.37 25.6C 158.37 28.52 160.53 30.16 163.57 30.32C 164.53 30.36 165.53 30.24 166.49 30.04L 166.49 26.24C 164.09 26.6 162.97 25.8 162.97 24.48L 162.97 14.28L 166.57 14.28L 166.57 10.4L 162.97 10.4L 162.97 4.2L 158.37 4.24L 158.37 10.4ZM 170.773 30L 175.372 30L 175.372 10.4L 170.773 10.4L 170.773 30ZM 170.533 6.92L 175.612 6.92L 175.612 2L 170.533 2L 170.533 6.92ZM 194.56 22.72C 194.04 24.96 192.56 26.56 189.84 26.56C 186.44 26.56 184.6 23.48 184.6 20.2C 184.6 16.88 186.44 13.76 189.84 13.76C 192.56 13.76 194.08 15.72 194.52 18.12L 199.12 18.12C 198.96 15.88 197.8 13.76 196.36 12.36C 194.64 10.8 192.6 9.88 189.84 9.88C 183.96 9.88 180 14.56 180 20.2C 180 25.84 183.92 30.52 189.84 30.52C 192.44 30.52 194.6 29.68 196.32 28.2C 197.92 26.84 198.88 25 199.16 22.72L 194.56 22.72ZM 218.824 13.4C 216.784 11.52 213.984 9.88 210.304 9.88C 208.544 9.88 206.664 10.44 205.264 11.44C 203.864 12.52 202.944 14 202.944 15.88C 202.944 17.4 203.504 18.64 204.584 19.6C 205.624 20.48 206.904 21.16 208.464 21.64L 211.744 22.64C 213.024 23.08 214.664 23.36 214.664 24.72C 214.664 26.04 212.824 26.72 211.024 26.72C 208.624 26.72 206.344 25.24 204.744 23.2L 202.024 26.24C 203.904 28.64 207.144 30.52 210.984 30.52C 213.424 30.52 215.664 29.96 217.064 28.72C 218.304 27.64 219.024 26.08 219.024 24.36C 219.024 22.8 218.504 21.68 217.704 20.88C 216.624 19.8 214.984 19.2 213.384 18.76L 210.344 17.88C 208.304 17.28 207.384 16.76 207.384 15.8C 207.384 14.8 208.504 13.92 210.224 13.92C 213.064 13.92 215.344 15.96 216.224 16.92L 218.824 13.4Z"/>
</defs>
</svg>
