<svg width="1000" height="1000" viewBox="0 0 1000 1000" version="2.0" xmlns="http://www.w3.org/2000/svg" xmlns:xlink="http://www.w3.org/1999/xlink" xmlns:figma="http://www.figma.com/figma/ns">
<title>group_acronym-1x1.svg</title>
<desc>Created using Figma 0.90</desc>
<g id="Canvas" transform="matrix(2 0 0 2 0 0)" figma:type="canvas">
<mask id="mask0_alpha" mask-type="alpha">
<path d="M 0 0L 500 0L 500 500L 0 500L 0 0Z" fill="#FFFFFF"/>
</mask>
<g id="group_acronym-1x1" style="mix-blend-mode:normal;" mask="url(#mask0_alpha)" figma:type="frame">
<g id="bg" style="mix-blend-mode:normal;" figma:type="rounded-rectangle">
<use xlink:href="#path0_fill" fill="#0E0E0E" style="mix-blend-mode:normal;"/>
</g>
<g id="label" style="mix-blend-mode:normal;" figma:type="text">
<use xlink:href="#path1_fill" transform="translate(144 154)" fill="#FFFFFF" style="mix-blend-mode:normal;"/>
</g>
</g>
</g>
<defs>
<path id="path0_fill" d="M 0 250C 0 111.929 111.929 0 250 0L 250 0C 388.071 0 500 111.929 500 250L 500 250C 500 388.071 388.071 500 250 500L 250 500C 111.929 500 0 388.071 0 250L 0 250Z"/>
<path id="path1_fill" d="M 4 37.5L 10.1 37.5L 10.1 23L 24.4 23L 24.4 17.7L 10.1 17.7L 10.1 8L 27.3 8L 27.3 2.5L 4 2.5L 4 37.5ZM 60.0051 2.5L 53.9051 2.5L 53.9051 22.8C 53.9051 26.3 53.6551 27.7 53.1051 28.9C 52.0551 31.35 49.8051 32.55 46.3551 32.55C 42.9551 32.55 40.5051 31.45 39.3551 28.9C 38.8051 27.55 38.5551 26.25 38.5551 22.8L 38.5551 2.5L 32.4551 2.5L 32.4551 22.9C 32.4551 28.1 32.9551 30.25 34.3051 32.5C 36.5551 36.5 40.9551 38.15 46.3551 38.15C 51.6051 38.15 55.9051 36.5 58.1551 32.5C 59.5051 30.25 60.0051 28.1 60.0051 22.9L 60.0051 2.5ZM 64.3242 8L 75.2242 8L 75.2242 37.5L 81.3242 37.5L 81.3242 8L 92.2242 8L 92.2242 2.5L 64.3242 2.5L 64.3242 8ZM 124.019 2.5L 117.919 2.5L 117.919 22.8C 117.919 26.3 117.669 27.7 117.119 28.9C 116.069 31.35 113.819 32.55 110.369 32.55C 106.969 32.55 104.519 31.45 103.369 28.9C 102.819 27.55 102.569 26.25 102.569 22.8L 102.569 2.5L 96.4688 2.5L 96.4688 22.9C 96.4688 28.1 96.9687 30.25 98.3188 32.5C 100.569 36.5 104.969 38.15 110.369 38.15C 115.619 38.15 119.919 36.5 122.169 32.5C 123.519 30.25 124.019 28.1 124.019 22.9L 124.019 2.5ZM 131.588 37.5L 137.688 37.5L 137.688 22.5L 144.038 22.5C 147.988 22.5 149.938 25.1 150.188 27.75C 150.588 32.15 150.538 35.9 152.388 37.5L 159.288 37.5C 159.288 35.35 157.138 37.3 156.338 26.75C 156.088 24.05 154.738 21.15 150.688 20.35C 152.088 20.35 159.388 19.8 159.388 12.2C 159.388 4.05 152.938 2.5 147.188 2.5L 131.588 2.5L 131.588 37.5ZM 153.238 12.35C 153.238 15.75 150.888 17.35 146.688 17.35L 137.688 17.35L 137.688 7.65L 146.688 7.65C 150.888 7.65 153.238 8.95 153.238 12.35ZM 165.871 37.5L 190.571 37.5L 190.571 32L 171.971 32L 171.971 21.9L 187.021 21.9L 187.021 16.6L 171.971 16.6L 171.971 8L 190.271 8L 190.271 2.5L 165.871 2.5L 165.871 37.5ZM 38.2 87.5L 38.2 69.15L 26.9 69.15L 26.9 75L 31.85 75C 30.8 79.4 25.95 82.35 20.7 82.35C 13.55 82.35 8.25 76.95 8.5 70C 8.65 63.05 13.55 57.55 20.7 57.55C 25.65 57.55 30 60.6 31.05 64.55L 37.85 64.55C 36.25 57 29.75 51.85 20.65 51.85C 10.1 51.85 2.5 59.95 2.5 70C 2.5 80 10.1 88.15 20.65 88.15C 26.7 88.15 30.65 86.45 33.7 82.6L 34.5 87.5L 38.2 87.5ZM 64.5457 78.85L 67.4457 87.5L 73.4457 87.5L 61.5457 52.5L 53.7457 52.5L 41.8457 87.5L 47.8457 87.5L 50.7457 78.85L 64.5457 78.85ZM 52.6457 73.35L 57.6457 58.35L 62.6457 73.35L 52.6457 73.35ZM 77.4375 87.5L 83.5375 87.5L 83.5375 72.5L 89.8875 72.5C 93.8375 72.5 95.7875 75.1 96.0375 77.75C 96.4375 82.15 96.3875 85.9 98.2375 87.5L 105.138 87.5C 105.138 85.35 102.988 87.3 102.187 76.75C 101.937 74.05 100.587 71.15 96.5375 70.35C 97.9375 70.35 105.237 69.8 105.237 62.2C 105.237 54.05 98.7875 52.5 93.0375 52.5L 77.4375 52.5L 77.4375 87.5ZM 99.0875 62.35C 99.0875 65.75 96.7375 67.35 92.5375 67.35L 83.5375 67.35L 83.5375 57.65L 92.5375 57.65C 96.7375 57.65 99.0875 58.95 99.0875 62.35ZM 112.171 87.5L 127.371 87.5C 136.321 87.5 143.671 83.25 143.671 70.05C 143.671 56.8 136.321 52.5 127.371 52.5L 112.171 52.5L 112.171 87.5ZM 118.271 58L 126.171 58C 134.221 58.15 137.571 61.05 137.571 70.05C 137.571 79.05 134.221 82 126.271 82L 118.271 82L 118.271 58ZM 150.002 87.5L 174.702 87.5L 174.702 82L 156.102 82L 156.102 71.9L 171.152 71.9L 171.152 66.6L 156.102 66.6L 156.102 58L 174.402 58L 174.402 52.5L 150.002 52.5L 150.002 87.5ZM 202.259 87.5L 208.709 87.5L 208.709 52.5L 202.709 52.5L 202.709 77.7L 187.609 52.5L 180.809 52.5L 180.809 87.5L 186.809 87.5L 186.809 61.7L 202.259 87.5ZM 38.2 137.5L 38.2 119.15L 26.9 119.15L 26.9 125L 31.85 125C 30.8 129.4 25.95 132.35 20.7 132.35C 13.55 132.35 8.25 126.95 8.5 120C 8.65 113.05 13.55 107.55 20.7 107.55C 25.65 107.55 30 110.6 31.05 114.55L 37.85 114.55C 36.25 107 29.75 101.85 20.65 101.85C 10.1 101.85 2.5 109.95 2.5 120C 2.5 130 10.1 138.15 20.65 138.15C 26.7 138.15 30.65 136.45 33.7 132.6L 34.5 137.5L 38.2 137.5ZM 50.1957 120C 50.1957 113.3 55.1457 107.55 62.3457 107.55C 69.3957 107.55 74.2957 113.3 74.2957 120C 74.2957 126.65 69.3957 132.3 62.2957 132.3C 55.0957 132.3 50.1957 126.65 50.1957 120ZM 44.0957 120C 44.0957 130 51.6957 138.15 62.2457 138.15C 72.7957 138.15 80.3957 130 80.3957 120C 80.3957 109.95 72.7957 101.85 62.2457 101.85C 51.6957 101.85 44.0957 109.95 44.0957 120ZM 86.916 137.5L 111.616 137.5L 111.616 132L 93.016 132L 93.016 121.9L 108.066 121.9L 108.066 116.6L 93.016 116.6L 93.016 108L 111.316 108L 111.316 102.5L 86.916 102.5L 86.916 137.5ZM 145.273 109.25C 143.123 105.5 137.823 101.85 131.023 101.85C 127.823 101.85 124.473 102.5 121.873 104.15C 119.223 105.8 117.423 108.6 117.423 112C 117.423 119 123.823 121 126.723 121.5L 134.373 122.95C 138.023 123.7 139.973 124.9 139.973 127.3C 139.973 130.95 136.673 132.8 132.073 132.8C 126.673 132.8 122.923 130.15 120.773 124.85L 115.823 128.1C 116.773 130.9 118.573 133.1 120.973 134.85C 123.973 137 127.723 138.15 131.723 138.15C 136.323 138.15 139.923 137.2 142.473 135.05C 144.523 133.3 146.123 130.4 146.123 127.2C 146.123 120.15 141.073 118.3 135.723 117.25L 128.873 115.95C 125.873 115.4 123.573 114.15 123.573 111.8C 123.573 108.85 127.323 107.4 131.123 107.4C 134.973 107.4 138.773 109.95 140.523 112.9L 145.273 109.25ZM 4.25 187.5L 10.35 187.5L 10.35 171.9L 26.2 171.9L 26.2 187.5L 32.25 187.5L 32.3 152.5L 26.2 152.5L 26.2 166.6L 10.35 166.6L 10.35 152.5L 4.25 152.5L 4.25 187.5ZM 40.8223 187.5L 65.5223 187.5L 65.5223 182L 46.9223 182L 46.9223 171.9L 61.9723 171.9L 61.9723 166.6L 46.9223 166.6L 46.9223 158L 65.2223 158L 65.2223 152.5L 40.8223 152.5L 40.8223 187.5ZM 71.5293 187.5L 77.6293 187.5L 77.6293 172.5L 83.9793 172.5C 87.9293 172.5 89.8793 175.1 90.1293 177.75C 90.5293 182.15 90.4793 185.9 92.3293 187.5L 99.2293 187.5C 99.2293 185.35 97.0793 187.3 96.2793 176.75C 96.0293 174.05 94.6793 171.15 90.6293 170.35C 92.0293 170.35 99.3293 169.8 99.3293 162.2C 99.3293 154.05 92.8793 152.5 87.1293 152.5L 71.5293 152.5L 71.5293 187.5ZM 93.1793 162.35C 93.1793 165.75 90.8293 167.35 86.6293 167.35L 77.6293 167.35L 77.6293 157.65L 86.6293 157.65C 90.8293 157.65 93.1793 158.95 93.1793 162.35ZM 105.813 187.5L 130.512 187.5L 130.512 182L 111.913 182L 111.913 171.9L 126.963 171.9L 126.963 166.6L 111.913 166.6L 111.913 158L 130.213 158L 130.213 152.5L 105.813 152.5L 105.813 187.5Z"/>
</defs>
</svg>
