<svg width="1000" height="1334" viewBox="0 0 1000 1334" version="2.0" xmlns="http://www.w3.org/2000/svg" xmlns:xlink="http://www.w3.org/1999/xlink" xmlns:figma="http://www.figma.com/figma/ns">
<title>group_acronym-3x4.svg</title>
<desc>Created using Figma 0.90</desc>
<g id="Canvas" transform="matrix(2 0 0 2 -1100 0)" figma:type="canvas">
<mask id="mask0_alpha" mask-type="alpha">
<path d="M 550 0L 1050 0L 1050 667L 550 667L 550 0Z" fill="#FFFFFF"/>
</mask>
<g id="group_acronym-3x4" style="mix-blend-mode:normal;" mask="url(#mask0_alpha)" figma:type="frame">
<g id="bg" style="mix-blend-mode:normal;" figma:type="vector">
<use xlink:href="#path0_fill" transform="translate(550 0)" fill="#231E1E" style="mix-blend-mode:normal;"/>
</g>
<g id="label" style="mix-blend-mode:normal;" figma:type="text">
<use xlink:href="#path1_fill" transform="translate(735 150)" fill="#FFFFFF" style="mix-blend-mode:normal;"/>
</g>
<g id="SPACE" style="mix-blend-mode:normal;" figma:type="text">
<use xlink:href="#path2_fill" transform="translate(717 91.5)" fill="#FFFFFF" style="mix-blend-mode:normal;"/>
</g>
</g>
</g>
<defs>
<path id="path0_fill" d="M 0 0L 500 0L 250 667L 0 0Z"/>
<path id="path1_fill" d="M 12.2246 37.5L 18.3246 37.5L 18.3246 23L 32.6246 23L 32.6246 17.7L 18.3246 17.7L 18.3246 8L 35.5246 8L 35.5246 2.5L 12.2246 2.5L 12.2246 37.5ZM 45.5297 20C 45.5297 13.3 50.4797 7.55 57.6797 7.55C 64.7297 7.55 69.6297 13.3 69.6297 20C 69.6297 26.65 64.7297 32.3 57.6297 32.3C 50.4297 32.3 45.5297 26.65 45.5297 20ZM 39.4297 20C 39.4297 30 47.0297 38.15 57.5797 38.15C 68.1297 38.15 75.7297 30 75.7297 20C 75.7297 9.95 68.1297 1.85 57.5797 1.85C 47.0297 1.85 39.4297 9.95 39.4297 20ZM 82 37.5L 88.1 37.5L 88.1 22.5L 94.45 22.5C 98.4 22.5 100.35 25.1 100.6 27.75C 101 32.15 100.95 35.9 102.8 37.5L 109.7 37.5C 109.7 35.35 107.55 37.3 106.75 26.75C 106.5 24.05 105.15 21.15 101.1 20.35C 102.5 20.35 109.8 19.8 109.8 12.2C 109.8 4.05 103.35 2.5 97.6 2.5L 82 2.5L 82 37.5ZM 103.65 12.35C 103.65 15.75 101.3 17.35 97.1 17.35L 88.1 17.35L 88.1 7.65L 97.1 7.65C 101.3 7.65 103.65 8.95 103.65 12.35ZM 4.26562 87.5L 10.3656 87.5L 10.3656 72.5L 16.7156 72.5C 20.6656 72.5 22.6156 75.1 22.8656 77.75C 23.2656 82.15 23.2156 85.9 25.0656 87.5L 31.9656 87.5C 31.9656 85.35 29.8156 87.3 29.0156 76.75C 28.7656 74.05 27.4156 71.15 23.3656 70.35C 24.7656 70.35 32.0656 69.8 32.0656 62.2C 32.0656 54.05 25.6156 52.5 19.8656 52.5L 4.26562 52.5L 4.26562 87.5ZM 25.9156 62.35C 25.9156 65.75 23.5656 67.35 19.3656 67.35L 10.3656 67.35L 10.3656 57.65L 19.3656 57.65C 23.5656 57.65 25.9156 58.95 25.9156 62.35ZM 38.5488 87.5L 63.2488 87.5L 63.2488 82L 44.6488 82L 44.6488 71.9L 59.6988 71.9L 59.6988 66.6L 44.6488 66.6L 44.6488 58L 62.9488 58L 62.9488 52.5L 38.5488 52.5L 38.5488 87.5ZM 90.8059 87.5L 97.2559 87.5L 97.2559 52.5L 91.2559 52.5L 91.2559 77.7L 76.1559 52.5L 69.3559 52.5L 69.3559 87.5L 75.3559 87.5L 75.3559 61.7L 90.8059 87.5ZM 102.09 58L 112.99 58L 112.99 87.5L 119.09 87.5L 119.09 58L 129.99 58L 129.99 52.5L 102.09 52.5L 102.09 58Z"/>
<path id="path2_fill" d="M 21.9 11.7C 25 11.7 27.2167 12.2 28.55 13.2C 29.8833 14.2 30.55 15.4167 30.55 16.85C 30.55 18.25 30.0667 19.5667 29.1 20.8C 28.1667 22 26.85 22.6 25.15 22.6C 23.45 22.6 22.6 21.8833 22.6 20.45C 22.6 20.3167 22.6333 20.05 22.7 19.65C 23.6 19.65 24.3833 19.3 25.05 18.6C 25.7167 17.9 26.05 17.1333 26.05 16.3C 26.05 15.4667 25.65 14.7833 24.85 14.25C 24.05 13.7167 23.0833 13.45 21.95 13.45C 20.0167 13.45 18.4167 14.0333 17.15 15.2C 15.8833 16.3667 15.25 17.7333 15.25 19.3C 15.25 20.1333 15.55 21.05 16.15 22.05C 16.75 23.05 17.3167 23.85 17.85 24.45C 18.4167 25.0167 19.3167 25.8833 20.55 27.05C 21.8167 28.1833 22.5667 28.8667 22.8 29.1C 25.3333 31.6333 26.6 34.4 26.6 37.4C 26.6 40.3667 25.25 42.9667 22.55 45.2C 19.85 47.4 16.6167 48.5 12.85 48.5C 9.78333 48.5 7.3 48 5.4 47C 3.53333 46 2.6 44.4333 2.6 42.3C 2.6 41.1333 2.98333 40.0667 3.75 39.1C 4.51667 38.1333 5.6 37.65 7 37.65C 8.43333 37.65 9.4 38.15 9.9 39.15C 8.73333 40.0833 8.15 41.2167 8.15 42.55C 8.15 43.85 8.58333 44.8667 9.45 45.6C 10.35 46.3 11.5167 46.65 12.95 46.65C 14.95 46.65 16.7 45.9333 18.2 44.5C 19.7333 43.0667 20.5 41.2667 20.5 39.1C 20.5 36.9 19.0667 34.2833 16.2 31.25C 16.1667 31.1833 15.5833 30.5667 14.45 29.4C 13.3167 28.2 12.3667 26.9833 11.6 25.75C 10.8667 24.5167 10.5 23.05 10.5 21.35C 10.5 18.45 11.6333 16.1167 13.9 14.35C 16.1667 12.5833 18.8333 11.7 21.9 11.7ZM 64.3523 20.1C 64.1523 22.3 63.4523 24.2333 62.2523 25.9C 61.0523 27.5333 59.519 28.8 57.6523 29.7C 54.0857 31.5 49.9523 32.4 45.2523 32.4C 44.419 32.4 43.6523 32.35 42.9523 32.25C 40.1857 39.25 38.8023 43.9667 38.8023 46.4C 38.8023 46.9 38.869 47.2667 39.0023 47.5L 32.5523 47.5C 33.4857 43.4667 35.4523 37.8667 38.4523 30.7C 42.4523 21.1667 45.0357 15.75 46.2023 14.45C 43.369 14.5167 40.4857 15.1 37.5523 16.2C 34.6523 17.2667 32.969 18.55 32.5023 20.05C 32.469 20.15 32.4023 20.2 32.3023 20.2C 32.0023 20.2 31.8523 19.9833 31.8523 19.55C 31.8523 19.4833 31.8857 19.3167 31.9523 19.05C 32.5857 17.2167 33.5023 15.8 34.7023 14.8C 35.9023 13.8 37.069 13.1833 38.2023 12.95C 39.369 12.7167 40.8023 12.6 42.5023 12.6L 55.1523 12.6C 58.1857 12.6 60.469 13.25 62.0023 14.55C 63.569 15.85 64.3523 17.4833 64.3523 19.45L 64.3523 20.1ZM 43.8523 31.45C 46.2523 31.45 48.6357 31.0333 51.0023 30.2C 53.4023 29.3667 55.369 28.1 56.9023 26.4C 58.4357 24.6667 59.2023 22.6167 59.2023 20.25C 59.2023 16.45 56.9023 14.4 52.3023 14.1C 50.1023 16.8333 47.4357 21.8 44.3023 29L 43.2523 31.45L 43.8523 31.45ZM 77.5992 12.6L 88.7992 12.6C 87.9659 13.4333 86.5159 14.0667 84.4492 14.5C 82.3826 14.9333 80.0492 15.2833 77.4492 15.55C 74.8492 15.7833 73.1492 15.9833 72.3492 16.15C 68.7826 16.9833 66.9992 19.1167 66.9992 22.55C 65.9659 21.4833 65.4492 20.3333 65.4492 19.1C 65.4492 14.7667 69.4992 12.6 77.5992 12.6ZM 91.3492 12.6L 94.9492 12.6C 93.4159 14.0667 91.8492 18.0833 90.2492 24.65C 88.6826 31.1833 87.8992 36.2333 87.8992 39.8C 87.8992 42.3333 88.3659 44.0833 89.2992 45.05C 89.6992 45.4833 90.1992 45.7 90.7992 45.7C 91.3992 45.7 92.0326 45.4833 92.6992 45.05L 92.9992 45.5C 92.5326 46.1667 91.6992 46.75 90.4992 47.25C 89.2992 47.7167 88.1159 47.95 86.9492 47.95C 85.2159 47.95 84.0326 47.3333 83.3992 46.1C 82.7659 44.8667 82.3992 43.2167 82.2992 41.15C 82.2992 39.45 82.5159 37.25 82.9492 34.55L 71.4992 34.55C 66.5326 39.8167 62.6326 44.1333 59.7992 47.5L 54.7992 47.5C 57.9326 44.6333 62.7992 39.9333 69.3992 33.4C 77.8992 24.9333 83.4826 19.0667 86.1492 15.8C 86.8159 15 87.3159 14.45 87.6492 14.15C 87.9826 13.8167 88.4826 13.4833 89.1492 13.15C 89.8492 12.7833 90.5826 12.6 91.3492 12.6ZM 86.1992 19.65C 82.3992 23.2167 78.2326 27.35 73.6992 32.05L 83.2992 32.05C 83.8992 28.75 84.8659 24.6167 86.1992 19.65ZM 127.499 19.7C 126.966 21.0667 125.966 22.2167 124.499 23.15C 123.066 24.0833 121.566 24.55 119.999 24.55C 119.266 24.55 118.666 24.4 118.199 24.1C 117.733 23.7667 117.499 23.35 117.499 22.85C 117.499 22.35 117.699 21.8167 118.099 21.25C 118.466 21.3833 118.883 21.45 119.349 21.45C 120.649 21.45 121.849 21 122.949 20.1C 124.049 19.2 124.599 18.1167 124.599 16.85C 124.599 14.9167 123.316 13.95 120.749 13.95C 117.349 13.95 114.033 15.1167 110.799 17.45C 107.566 19.7833 104.949 22.8167 102.949 26.55C 100.983 30.25 99.9992 34.0167 99.9992 37.85C 99.9992 43.7833 102.699 46.75 108.099 46.75C 111.466 46.75 115.033 45.45 118.799 42.85C 122.566 40.25 125.066 37.4333 126.299 34.4C 126.933 34.8333 127.249 35.4167 127.249 36.15C 127.249 37.65 126.183 39.5167 124.049 41.75C 121.916 43.95 119.233 45.7167 115.999 47.05C 112.766 48.35 109.466 49 106.099 49C 98.2659 49 94.3492 45.35 94.3492 38.05C 94.3492 35.2833 94.9659 32.4 96.1992 29.4C 97.4326 26.3667 99.0992 23.5667 101.199 21C 103.299 18.4 105.916 16.2667 109.049 14.6C 112.216 12.9333 115.333 12.1 118.399 12.1C 121.466 12.1 123.816 12.6333 125.449 13.7C 127.083 14.7333 127.899 16.0667 127.899 17.7C 127.899 18.3 127.766 18.9667 127.499 19.7ZM 151.689 12.6L 157.139 12.35C 158.172 12.35 158.739 12.5667 158.839 13C 158.972 13.4 159.039 13.7 159.039 13.9C 159.039 15.0667 158.622 16.55 157.789 18.35C 156.989 20.1167 156.405 21 156.039 21C 155.705 21 155.539 20.8667 155.539 20.6L 155.939 17.6C 155.939 16.5667 155.522 15.75 154.689 15.15C 153.855 14.55 152.855 14.25 151.689 14.25C 150.522 14.25 149.655 14.3333 149.089 14.5C 148.522 14.6667 148.072 15.0167 147.739 15.55C 145.305 19.1833 143.089 23.3167 141.089 27.95L 154.139 27.95L 154.189 28C 154.189 28.2333 153.955 28.7 153.489 29.4C 153.022 30.0667 152.639 30.4 152.339 30.4L 139.989 30.4C 139.089 32.6 138.205 35.0667 137.339 37.8C 136.472 40.5333 136.039 42.35 136.039 43.25C 136.039 44.1167 136.305 44.7667 136.839 45.2C 137.372 45.6 138.272 45.8 139.539 45.8C 149.272 45.8 155.039 43.9 156.839 40.1C 156.905 40 157.022 39.95 157.189 39.95C 157.389 39.95 157.489 40.05 157.489 40.25C 157.489 40.45 157.455 40.7167 157.389 41.05C 156.455 43.95 155.072 45.7833 153.239 46.55C 152.272 46.95 151.355 47.2167 150.489 47.35C 149.655 47.45 148.572 47.5 147.239 47.5L 132.139 47.5C 131.105 47.5 130.589 46.7167 130.589 45.15C 130.589 42.45 132.072 37.5333 135.039 30.4L 132.289 30.4C 132.022 30.4 131.889 30.3167 131.889 30.15C 131.889 29.8167 132.205 29.3667 132.839 28.8C 133.472 28.2333 133.989 27.95 134.389 27.95L 136.089 27.95C 139.155 20.5833 141.372 16.1 142.739 14.5C 139.605 14.9 136.739 15.5667 134.139 16.5C 131.572 17.4333 129.889 18.5833 129.089 19.95C 129.055 20.05 128.972 20.1 128.839 20.1C 128.705 20.1 128.639 20.0167 128.639 19.85C 128.639 19.65 128.655 19.5167 128.689 19.45C 129.955 15.9833 132.272 13.8667 135.639 13.1C 137.172 12.7667 139.222 12.6 141.789 12.6L 151.689 12.6Z"/>
</defs>
</svg>
