<svg width="1000" height="750" viewBox="0 0 1000 750" version="2.0" xmlns="http://www.w3.org/2000/svg" xmlns:xlink="http://www.w3.org/1999/xlink" xmlns:figma="http://www.figma.com/figma/ns">
<title>cd-4x3.svg</title>
<desc>Created using Figma 0.90</desc>
<g id="Canvas" transform="matrix(2 0 0 2 -4400 -2158)" figma:type="canvas">
<mask id="mask0_alpha" mask-type="alpha">
<path d="M 2200 1079L 2700 1079L 2700 1454L 2200 1454L 2200 1079Z" fill="#FFFFFF"/>
</mask>
<g id="cd-4x3" style="mix-blend-mode:normal;" mask="url(#mask0_alpha)" figma:type="frame">
<g id="label" style="mix-blend-mode:normal;" figma:type="text">
<use xlink:href="#path0_fill" transform="translate(2293 1136)" fill="#0E0E0E" style="mix-blend-mode:normal;"/>
</g>
<g id="bg" style="mix-blend-mode:normal;" filter="url(#filter0_b)" figma:type="rounded-rectangle">
<use xlink:href="#path1_fill" transform="translate(2259 1124)" fill="#A5E6F0" fill-opacity="0.2" style="mix-blend-mode:normal;"/>
<mask id="mask1_outline_ins">
<use xlink:href="#path1_fill" fill="white" transform="translate(2259 1124)"/>
</mask>
<g mask="url(#mask1_outline_ins)">
<use xlink:href="#path2_stroke_2x" transform="translate(2259 1124)" fill="#231E1E" style="mix-blend-mode:normal;"/>
</g>
</g>
</g>
</g>
<defs>
<filter id="filter0_b" filterUnits="userSpaceOnUse" x="2249" y="1114" width="402" height="306" color-interpolation-filters="sRGB">
<feFlood flood-opacity="0" result="BackgroundImageFix"/>
<desc>type="backgroundBlur" size="10"</desc>
<feGaussianBlur in="BackgroundImage" stdDeviation="5"/>
<feComposite in2="SourceAlpha" operator="in" result="effect1_backgroundBlur"/>
<feBlend mode="normal" in="SourceGraphic" in2="effect1_backgroundBlur" result="shape"/>
</filter>
<path id="path0_fill" d="M 17.55 22.05C 20.2833 22.05 22.6667 22.6 24.7 23.7C 26.7667 24.7667 28.3667 26.25 29.5 28.15C 30.6333 30.05 31.2667 32.2 31.4 34.6L 28 34.6C 27.7333 31.7 26.65 29.4 24.75 27.7C 22.8833 25.9667 20.4833 25.1 17.55 25.1C 15.1167 25.1 13 25.7167 11.2 26.95C 9.43333 28.1833 8.06667 29.9667 7.1 32.3C 6.16667 34.6 5.7 37.3333 5.7 40.5C 5.7 43.6667 6.16667 46.4167 7.1 48.75C 8.06667 51.05 9.43333 52.8167 11.2 54.05C 12.9667 55.2833 15.05 55.9 17.45 55.9C 20.35 55.9 22.7667 55.0333 24.7 53.3C 26.6333 51.5333 27.8 49.1667 28.2 46.2L 31.6 46.2C 31.3333 48.7667 30.6 51.0167 29.4 52.95C 28.2 54.85 26.5667 56.3333 24.5 57.4C 22.4667 58.4333 20.1167 58.95 17.45 58.95C 14.35 58.95 11.65 58.2167 9.35 56.75C 7.08333 55.25 5.33333 53.1167 4.1 50.35C 2.86667 47.5833 2.25 44.3 2.25 40.5C 2.25 36.7 2.86667 33.4167 4.1 30.65C 5.33333 27.8833 7.1 25.7667 9.4 24.3C 11.7 22.8 14.4167 22.05 17.55 22.05ZM 49.6309 22.7C 53.7309 22.7 56.7809 23.5167 58.7809 25.15C 60.8142 26.7833 61.8309 29.1333 61.8309 32.2C 61.8309 34.5 61.1975 36.4667 59.9309 38.1C 58.6642 39.7 56.9975 40.7167 54.9309 41.15L 54.9309 41.25C 56.2309 41.65 57.2309 42.3167 57.9309 43.25C 58.6642 44.15 59.4309 45.7 60.2309 47.9L 63.9809 58.3L 60.4309 58.3L 57.0309 48.4C 56.2642 46.2 55.3642 44.6833 54.3309 43.85C 53.2975 43.0167 51.7809 42.6 49.7809 42.6L 42.4309 42.6L 42.4309 58.3L 39.1809 58.3L 39.1809 22.7L 49.6309 22.7ZM 42.4309 39.65L 49.8309 39.65C 52.6975 39.65 54.8475 38.9833 56.2809 37.65C 57.7475 36.3167 58.4809 34.55 58.4809 32.35C 58.4809 27.8833 55.5142 25.65 49.5809 25.65L 42.4309 25.65L 42.4309 39.65ZM 70.5285 58.3L 70.5285 22.7L 73.7785 22.7L 73.7785 58.3L 70.5285 58.3ZM 94.0367 25.65L 94.0367 58.3L 90.7867 58.3L 90.7867 25.65L 78.1367 25.65L 78.1367 22.7L 106.737 22.7L 106.737 25.65L 94.0367 25.65ZM 111.105 58.3L 111.105 22.7L 114.355 22.7L 114.355 58.3L 111.105 58.3ZM 136.935 22.05C 139.668 22.05 142.051 22.6 144.085 23.7C 146.151 24.7667 147.751 26.25 148.885 28.15C 150.018 30.05 150.651 32.2 150.785 34.6L 147.385 34.6C 147.118 31.7 146.035 29.4 144.135 27.7C 142.268 25.9667 139.868 25.1 136.935 25.1C 134.501 25.1 132.385 25.7167 130.585 26.95C 128.818 28.1833 127.451 29.9667 126.485 32.3C 125.551 34.6 125.085 37.3333 125.085 40.5C 125.085 43.6667 125.551 46.4167 126.485 48.75C 127.451 51.05 128.818 52.8167 130.585 54.05C 132.351 55.2833 134.435 55.9 136.835 55.9C 139.735 55.9 142.151 55.0333 144.085 53.3C 146.018 51.5333 147.185 49.1667 147.585 46.2L 150.985 46.2C 150.718 48.7667 149.985 51.0167 148.785 52.95C 147.585 54.85 145.951 56.3333 143.885 57.4C 141.851 58.4333 139.501 58.95 136.835 58.95C 133.735 58.95 131.035 58.2167 128.735 56.75C 126.468 55.25 124.718 53.1167 123.485 50.35C 122.251 47.5833 121.635 44.3 121.635 40.5C 121.635 36.7 122.251 33.4167 123.485 30.65C 124.718 27.8833 126.485 25.7667 128.785 24.3C 131.085 22.8 133.801 22.05 136.935 22.05ZM 160.545 46.8L 156.095 58.3L 152.595 58.3L 166.695 22.7L 171.145 22.7L 185.195 58.3L 181.695 58.3L 177.245 46.8L 160.545 46.8ZM 174.645 40.1L 168.945 25.35L 168.845 25.35L 168.245 26.9C 166.512 31.4667 164.812 35.8667 163.145 40.1L 161.695 43.8L 176.045 43.8L 174.645 40.1ZM 211.671 55.35L 211.671 58.3L 189.571 58.3L 189.571 22.7L 192.821 22.7L 192.821 55.35L 211.671 55.35ZM 15.45 98C 21.25 98 25.7333 99.55 28.9 102.65C 32.0667 105.717 33.65 110.1 33.65 115.8C 33.65 121.5 32.0667 125.9 28.9 129C 25.7333 132.067 21.25 133.6 15.45 133.6L 5.05 133.6L 5.05 98L 15.45 98ZM 8.3 130.65L 15.45 130.65C 20.1833 130.65 23.8167 129.367 26.35 126.8C 28.9167 124.233 30.2 120.567 30.2 115.8C 30.2 111.033 28.9167 107.367 26.35 104.8C 23.8167 102.233 20.1833 100.95 15.45 100.95L 8.3 100.95L 8.3 130.65ZM 44.1887 100.95L 44.1887 113.85L 62.1387 113.85L 62.1387 116.8L 44.1887 116.8L 44.1887 130.65L 63.6887 130.65L 63.6887 133.6L 40.9387 133.6L 40.9387 98L 63.0887 98L 63.0887 100.95L 44.1887 100.95ZM 79.9691 97.35C 84.0691 97.35 87.1525 98.3333 89.2191 100.3C 91.3191 102.267 92.3691 105.183 92.3691 109.05L 89.0691 109.05C 89.0691 103.217 86.0358 100.3 79.9691 100.3C 77.4691 100.3 75.5358 100.883 74.1691 102.05C 72.8025 103.183 72.1191 104.75 72.1191 106.75C 72.1191 108.117 72.4358 109.233 73.0691 110.1C 73.7358 110.933 74.6858 111.617 75.9191 112.15C 77.1858 112.65 78.9191 113.167 81.1191 113.7C 83.8191 114.367 85.9858 115.05 87.6191 115.75C 89.2525 116.45 90.5525 117.467 91.5191 118.8C 92.5191 120.1 93.0191 121.867 93.0191 124.1C 93.0191 127.2 91.9191 129.667 89.7191 131.5C 87.5525 133.333 84.6025 134.25 80.8691 134.25C 76.8025 134.25 73.6525 133.183 71.4191 131.05C 69.2191 128.917 68.1191 125.817 68.1191 121.75L 71.3691 121.75C 71.3691 124.983 72.2025 127.383 73.8691 128.95C 75.5358 130.483 77.8691 131.25 80.8691 131.25C 83.7358 131.25 85.9191 130.633 87.4191 129.4C 88.9525 128.167 89.7191 126.417 89.7191 124.15C 89.7191 122.717 89.3691 121.583 88.6691 120.75C 88.0025 119.883 87.0191 119.2 85.7191 118.7C 84.4525 118.167 82.6525 117.6 80.3191 117C 77.6525 116.333 75.5191 115.65 73.9191 114.95C 72.3525 114.25 71.1025 113.267 70.1691 112C 69.2691 110.7 68.8191 108.967 68.8191 106.8C 68.8191 104.933 69.2525 103.3 70.1191 101.9C 71.0191 100.467 72.3025 99.35 73.9691 98.55C 75.6691 97.75 77.6691 97.35 79.9691 97.35ZM 100.851 133.6L 100.851 98L 104.101 98L 104.101 133.6L 100.851 133.6ZM 127.131 97.35C 129.731 97.35 132.031 97.8167 134.031 98.75C 136.031 99.65 137.631 100.95 138.831 102.65C 140.031 104.317 140.731 106.267 140.931 108.5L 137.531 108.5C 137.098 105.933 135.981 103.95 134.181 102.55C 132.381 101.117 130.031 100.4 127.131 100.4C 124.598 100.4 122.398 101.033 120.531 102.3C 118.698 103.533 117.281 105.317 116.281 107.65C 115.314 109.983 114.831 112.733 114.831 115.9C 114.831 119.067 115.298 121.8 116.231 124.1C 117.198 126.4 118.564 128.167 120.331 129.4C 122.098 130.6 124.198 131.2 126.631 131.2C 129.998 131.2 132.698 130.15 134.731 128.05C 136.798 125.917 137.831 122.55 137.831 117.95L 127.381 117.95L 127.381 115L 140.981 115L 140.981 133.6L 137.931 133.6L 137.931 128.15L 137.831 128.15C 136.931 129.983 135.431 131.45 133.331 132.55C 131.231 133.65 128.881 134.2 126.281 134.2C 123.248 134.2 120.614 133.467 118.381 132C 116.148 130.533 114.414 128.433 113.181 125.7C 111.981 122.933 111.381 119.667 111.381 115.9C 111.381 112.1 112.014 108.817 113.281 106.05C 114.548 103.25 116.364 101.1 118.731 99.6C 121.098 98.1 123.898 97.35 127.131 97.35ZM 172.563 133.6L 163.313 117.8L 158.062 108.85C 156.129 105.45 154.663 102.917 153.662 101.25L 153.563 101.25L 153.612 119.05L 153.612 133.6L 150.363 133.6L 150.363 98L 155.313 98L 164.562 113.8L 169.813 122.75C 171.746 126.15 173.213 128.683 174.213 130.35L 174.312 130.35C 174.279 126.383 174.262 120.45 174.262 112.55L 174.262 98L 177.512 98L 177.512 133.6L 172.563 133.6ZM 185.668 133.6L 185.668 129L 189.968 129L 189.968 133.6L 185.668 133.6ZM 185.668 112.8L 185.668 108.2L 189.968 108.2L 189.968 112.8L 185.668 112.8ZM 5.05 208.9L 5.05 173.3L 8.3 173.3L 8.3 208.9L 5.05 208.9ZM 28.5301 182.95C 31.4634 182.95 33.6967 183.833 35.2301 185.6C 36.7967 187.367 37.5801 189.983 37.5801 193.45L 37.5801 208.9L 34.4801 208.9L 34.4801 193.6C 34.4801 190.733 33.9301 188.7 32.8301 187.5C 31.7301 186.267 30.1134 185.65 27.9801 185.65C 26.6467 185.65 25.4134 185.967 24.2801 186.6C 23.1467 187.233 22.2467 188.167 21.5801 189.4C 20.9134 190.633 20.5801 192.117 20.5801 193.85L 20.5801 208.9L 17.4801 208.9L 17.4801 183.5L 20.5301 183.5L 20.5301 186.95L 20.6301 186.95C 21.4301 185.717 22.5134 184.75 23.8801 184.05C 25.2801 183.317 26.8301 182.95 28.5301 182.95ZM 52.8668 206.35C 53.5001 206.35 54.0835 206.283 54.6168 206.15L 54.6168 208.8C 53.8835 208.967 53.1168 209.05 52.3168 209.05C 50.1168 209.05 48.5335 208.517 47.5668 207.45C 46.6001 206.383 46.1168 204.633 46.1168 202.2L 46.1168 186.1L 41.5668 186.1L 41.5668 183.5L 46.1168 183.5L 46.1168 177.6L 49.2168 177.6L 49.2168 183.5L 54.3668 183.5L 54.3668 186.1L 49.2168 186.1L 49.2168 202.15C 49.2168 203.65 49.4835 204.733 50.0168 205.4C 50.5835 206.033 51.5335 206.35 52.8668 206.35ZM 68.9758 206.9C 71.0091 206.9 72.6758 206.4 73.9758 205.4C 75.2758 204.367 76.1258 203.017 76.5258 201.35L 79.7258 201.35C 79.2924 203.683 78.1424 205.633 76.2758 207.2C 74.4424 208.767 72.0091 209.55 68.9758 209.55C 65.3758 209.55 62.5424 208.317 60.4758 205.85C 58.4091 203.35 57.3758 199.983 57.3758 195.75C 57.3758 193.25 57.8258 191.033 58.7258 189.1C 59.6591 187.133 60.9758 185.6 62.6758 184.5C 64.4091 183.4 66.4424 182.85 68.7758 182.85C 71.6091 182.85 73.9591 183.65 75.8258 185.25C 77.7258 186.85 78.9591 189.067 79.5258 191.9C 79.7924 193.1 79.9258 194.733 79.9258 196.8L 60.5258 196.8C 60.5924 200.067 61.4091 202.567 62.9758 204.3C 64.5424 206.033 66.5424 206.9 68.9758 206.9ZM 68.7758 185.5C 66.4424 185.5 64.5258 186.283 63.0258 187.85C 61.5258 189.417 60.7091 191.55 60.5758 194.25L 76.9258 194.25C 76.7591 191.483 75.9424 189.333 74.4758 187.8C 73.0091 186.267 71.1091 185.5 68.7758 185.5ZM 97.1789 183.3C 97.8122 183.3 98.3789 183.35 98.8789 183.45L 98.8789 186.4C 98.3456 186.333 97.8122 186.3 97.2789 186.3C 94.7456 186.3 92.7956 187.1 91.4289 188.7C 90.0622 190.3 89.3789 192.567 89.3789 195.5L 89.3789 208.9L 86.2789 208.9L 86.2789 183.5L 89.3289 183.5L 89.3289 187.5L 89.4289 187.5C 90.2622 186.133 91.3456 185.1 92.6789 184.4C 94.0122 183.667 95.5122 183.3 97.1789 183.3ZM 112.001 175.75C 110.768 175.75 109.851 176.1 109.251 176.8C 108.651 177.5 108.351 178.65 108.351 180.25L 108.351 183.5L 113.501 183.5L 113.501 186.1L 108.351 186.1L 108.351 208.9L 105.251 208.9L 105.251 186.1L 100.701 186.1L 100.701 183.5L 105.251 183.5L 105.251 179.95C 105.251 175.383 107.335 173.1 111.501 173.1C 112.168 173.1 112.868 173.167 113.601 173.3L 113.601 175.95C 113.135 175.817 112.601 175.75 112.001 175.75ZM 126.228 182.85C 129.194 182.85 131.511 183.667 133.178 185.3C 134.878 186.933 135.728 189.367 135.728 192.6L 135.728 202.65C 135.728 205.05 135.911 207.133 136.278 208.9L 133.378 208.9C 133.144 207.767 133.028 206.483 133.028 205.05L 132.928 205.05C 131.194 207.95 128.178 209.4 123.878 209.4C 121.311 209.4 119.228 208.717 117.628 207.35C 116.061 205.983 115.278 204.233 115.278 202.1C 115.278 199.933 115.994 198.233 117.428 197C 118.894 195.767 121.394 194.867 124.928 194.3C 127.361 193.9 129.961 193.6 132.728 193.4L 132.728 192.2C 132.728 189.933 132.144 188.25 130.978 187.15C 129.811 186.05 128.228 185.5 126.228 185.5C 124.161 185.5 122.561 186.017 121.428 187.05C 120.294 188.05 119.678 189.417 119.578 191.15L 116.328 191.15C 116.494 188.683 117.428 186.683 119.128 185.15C 120.861 183.617 123.228 182.85 126.228 182.85ZM 132.728 196C 130.561 196.167 128.094 196.467 125.328 196.9C 122.828 197.267 121.078 197.833 120.078 198.6C 119.078 199.367 118.578 200.467 118.578 201.9C 118.578 203.4 119.094 204.6 120.128 205.5C 121.194 206.367 122.661 206.8 124.528 206.8C 125.694 206.8 126.778 206.617 127.778 206.25C 128.811 205.85 129.678 205.283 130.378 204.55C 131.278 203.617 131.894 202.7 132.228 201.8C 132.561 200.867 132.728 199.583 132.728 197.95L 132.728 196ZM 153.348 182.85C 156.215 182.85 158.582 183.717 160.448 185.45C 162.348 187.183 163.415 189.45 163.648 192.25L 160.398 192.25C 160.232 190.283 159.498 188.683 158.198 187.45C 156.898 186.183 155.282 185.55 153.348 185.55C 150.815 185.55 148.815 186.5 147.348 188.4C 145.915 190.3 145.198 192.9 145.198 196.2C 145.198 199.533 145.915 202.15 147.348 204.05C 148.815 205.917 150.815 206.85 153.348 206.85C 155.248 206.85 156.848 206.183 158.148 204.85C 159.482 203.483 160.232 201.817 160.398 199.85L 163.648 199.85C 163.482 201.683 162.948 203.333 162.048 204.8C 161.182 206.267 159.998 207.433 158.498 208.3C 156.998 209.133 155.282 209.55 153.348 209.55C 149.782 209.55 146.965 208.367 144.898 206C 142.865 203.6 141.848 200.333 141.848 196.2C 141.848 192.067 142.865 188.817 144.898 186.45C 146.965 184.05 149.782 182.85 153.348 182.85ZM 179.816 206.9C 181.849 206.9 183.516 206.4 184.816 205.4C 186.116 204.367 186.966 203.017 187.366 201.35L 190.566 201.35C 190.132 203.683 188.982 205.633 187.116 207.2C 185.282 208.767 182.849 209.55 179.816 209.55C 176.216 209.55 173.382 208.317 171.316 205.85C 169.249 203.35 168.216 199.983 168.216 195.75C 168.216 193.25 168.666 191.033 169.566 189.1C 170.499 187.133 171.816 185.6 173.516 184.5C 175.249 183.4 177.282 182.85 179.616 182.85C 182.449 182.85 184.799 183.65 186.666 185.25C 188.566 186.85 189.799 189.067 190.366 191.9C 190.632 193.1 190.766 194.733 190.766 196.8L 171.366 196.8C 171.432 200.067 172.249 202.567 173.816 204.3C 175.382 206.033 177.382 206.9 179.816 206.9ZM 179.616 185.5C 177.282 185.5 175.366 186.283 173.866 187.85C 172.366 189.417 171.549 191.55 171.416 194.25L 187.766 194.25C 187.599 191.483 186.782 189.333 185.316 187.8C 183.849 186.267 181.949 185.5 179.616 185.5ZM 217.292 182.85C 220.259 182.85 222.576 183.667 224.242 185.3C 225.942 186.933 226.792 189.367 226.792 192.6L 226.792 202.65C 226.792 205.05 226.976 207.133 227.342 208.9L 224.442 208.9C 224.209 207.767 224.092 206.483 224.092 205.05L 223.992 205.05C 222.259 207.95 219.242 209.4 214.942 209.4C 212.376 209.4 210.292 208.717 208.692 207.35C 207.126 205.983 206.342 204.233 206.342 202.1C 206.342 199.933 207.059 198.233 208.492 197C 209.959 195.767 212.459 194.867 215.992 194.3C 218.426 193.9 221.026 193.6 223.792 193.4L 223.792 192.2C 223.792 189.933 223.209 188.25 222.042 187.15C 220.876 186.05 219.292 185.5 217.292 185.5C 215.226 185.5 213.626 186.017 212.492 187.05C 211.359 188.05 210.742 189.417 210.642 191.15L 207.392 191.15C 207.559 188.683 208.492 186.683 210.192 185.15C 211.926 183.617 214.292 182.85 217.292 182.85ZM 223.792 196C 221.626 196.167 219.159 196.467 216.392 196.9C 213.892 197.267 212.142 197.833 211.142 198.6C 210.142 199.367 209.642 200.467 209.642 201.9C 209.642 203.4 210.159 204.6 211.192 205.5C 212.259 206.367 213.726 206.8 215.592 206.8C 216.759 206.8 217.842 206.617 218.842 206.25C 219.876 205.85 220.742 205.283 221.442 204.55C 222.342 203.617 222.959 202.7 223.292 201.8C 223.626 200.867 223.792 199.583 223.792 197.95L 223.792 196ZM 245.913 182.95C 248.846 182.95 251.08 183.833 252.613 185.6C 254.18 187.367 254.963 189.983 254.963 193.45L 254.963 208.9L 251.863 208.9L 251.863 193.6C 251.863 190.733 251.313 188.7 250.213 187.5C 249.113 186.267 247.496 185.65 245.363 185.65C 244.03 185.65 242.796 185.967 241.663 186.6C 240.53 187.233 239.63 188.167 238.963 189.4C 238.296 190.633 237.963 192.117 237.963 193.85L 237.963 208.9L 234.863 208.9L 234.863 183.5L 237.913 183.5L 237.913 186.95L 238.013 186.95C 238.813 185.717 239.896 184.75 241.263 184.05C 242.663 183.317 244.213 182.95 245.913 182.95ZM 279.887 208.9L 279.887 205.05L 279.787 205.05C 279.12 206.383 278.07 207.45 276.637 208.25C 275.203 209.05 273.587 209.45 271.787 209.45C 269.62 209.45 267.72 208.917 266.087 207.85C 264.487 206.75 263.253 205.2 262.387 203.2C 261.52 201.167 261.087 198.817 261.087 196.15C 261.087 193.483 261.52 191.15 262.387 189.15C 263.253 187.117 264.487 185.567 266.087 184.5C 267.72 183.4 269.62 182.85 271.787 182.85C 273.587 182.85 275.203 183.25 276.637 184.05C 278.07 184.85 279.12 185.917 279.787 187.25L 279.887 187.25L 279.887 173.3L 282.987 173.3L 282.987 208.9L 279.887 208.9ZM 272.287 185.45C 269.853 185.45 267.92 186.417 266.487 188.35C 265.053 190.283 264.337 192.883 264.337 196.15C 264.337 199.417 265.053 202.017 266.487 203.95C 267.92 205.883 269.853 206.85 272.287 206.85C 274.653 206.85 276.537 205.883 277.937 203.95C 279.337 201.983 280.037 199.383 280.037 196.15C 280.037 192.917 279.337 190.333 277.937 188.4C 276.537 186.433 274.653 185.45 272.287 185.45ZM 5.05 284.2L 5.05 248.6L 8.3 248.6L 8.3 284.2L 5.05 284.2ZM 43.3801 258.25C 46.0801 258.25 48.1301 259.117 49.5301 260.85C 50.9634 262.55 51.6801 265.083 51.6801 268.45L 51.6801 284.2L 48.5801 284.2L 48.5801 268.65C 48.5801 265.85 48.0967 263.867 47.1301 262.7C 46.1967 261.533 44.7801 260.95 42.8801 260.95C 40.8467 260.95 39.2134 261.7 37.9801 263.2C 36.7467 264.7 36.1301 266.683 36.1301 269.15L 36.1301 284.2L 33.0301 284.2L 33.0301 267.85C 33.0301 265.683 32.5301 264 31.5301 262.8C 30.5301 261.567 29.1301 260.95 27.3301 260.95C 25.2967 260.95 23.6634 261.733 22.4301 263.3C 21.1967 264.867 20.5801 266.95 20.5801 269.55L 20.5801 284.2L 17.4801 284.2L 17.4801 258.8L 20.5801 258.8L 20.5801 262.1L 20.6801 262.1C 22.5134 259.533 24.8801 258.25 27.7801 258.25C 29.5134 258.25 31.0467 258.7 32.3801 259.6C 33.7134 260.467 34.6967 261.7 35.3301 263.3C 36.1301 261.667 37.2134 260.417 38.5801 259.55C 39.9467 258.683 41.5467 258.25 43.3801 258.25ZM 68.3664 258.15C 71.3331 258.15 73.6497 258.967 75.3164 260.6C 77.0164 262.233 77.8664 264.667 77.8664 267.9L 77.8664 277.95C 77.8664 280.35 78.0497 282.433 78.4164 284.2L 75.5164 284.2C 75.2831 283.067 75.1664 281.783 75.1664 280.35L 75.0664 280.35C 73.3331 283.25 70.3164 284.7 66.0164 284.7C 63.4497 284.7 61.3664 284.017 59.7664 282.65C 58.1997 281.283 57.4164 279.533 57.4164 277.4C 57.4164 275.233 58.1331 273.533 59.5664 272.3C 61.0331 271.067 63.5331 270.167 67.0664 269.6C 69.4997 269.2 72.0997 268.9 74.8664 268.7L 74.8664 267.5C 74.8664 265.233 74.2831 263.55 73.1164 262.45C 71.9497 261.35 70.3664 260.8 68.3664 260.8C 66.2997 260.8 64.6997 261.317 63.5664 262.35C 62.4331 263.35 61.8164 264.717 61.7164 266.45L 58.4664 266.45C 58.6331 263.983 59.5664 261.983 61.2664 260.45C 62.9997 258.917 65.3664 258.15 68.3664 258.15ZM 74.8664 271.3C 72.6997 271.467 70.2331 271.767 67.4664 272.2C 64.9664 272.567 63.2164 273.133 62.2164 273.9C 61.2164 274.667 60.7164 275.767 60.7164 277.2C 60.7164 278.7 61.2331 279.9 62.2664 280.8C 63.3331 281.667 64.7997 282.1 66.6664 282.1C 67.8331 282.1 68.9164 281.917 69.9164 281.55C 70.9497 281.15 71.8164 280.583 72.5164 279.85C 73.4164 278.917 74.0331 278 74.3664 277.1C 74.6997 276.167 74.8664 274.883 74.8664 273.25L 74.8664 271.3ZM 94.8871 258.15C 96.5538 258.15 98.0538 258.533 99.3871 259.3C 100.754 260.067 101.854 261.167 102.687 262.6L 102.787 262.6L 102.787 258.8L 105.887 258.8L 105.887 282.65C 105.887 286.317 104.987 289.083 103.187 290.95C 101.387 292.85 98.7371 293.8 95.2371 293.8C 92.0704 293.8 89.5871 293.083 87.7871 291.65C 85.9871 290.25 85.0704 288.3 85.0371 285.8L 88.1871 285.8C 88.2204 287.5 88.8704 288.817 90.1371 289.75C 91.4038 290.717 93.1038 291.2 95.2371 291.2C 97.8038 291.2 99.7038 290.483 100.937 289.05C 102.17 287.65 102.787 285.467 102.787 282.5L 102.787 279.5L 102.687 279.5C 101.82 280.933 100.704 282.033 99.3371 282.8C 98.0038 283.567 96.5204 283.95 94.8871 283.95C 92.6871 283.95 90.7704 283.417 89.1371 282.35C 87.5038 281.283 86.2371 279.783 85.3371 277.85C 84.4371 275.883 83.9871 273.617 83.9871 271.05C 83.9871 268.483 84.4371 266.233 85.3371 264.3C 86.2371 262.333 87.5038 260.817 89.1371 259.75C 90.7704 258.683 92.6871 258.15 94.8871 258.15ZM 94.9871 260.8C 92.6204 260.8 90.7371 261.733 89.3371 263.6C 87.9371 265.467 87.2371 267.95 87.2371 271.05C 87.2371 274.15 87.9371 276.633 89.3371 278.5C 90.7371 280.367 92.6204 281.3 94.9871 281.3C 97.4538 281.3 99.3871 280.383 100.787 278.55C 102.22 276.717 102.937 274.217 102.937 271.05C 102.937 267.883 102.22 265.383 100.787 263.55C 99.3871 261.717 97.4538 260.8 94.9871 260.8ZM 114.209 284.2L 114.209 258.8L 117.309 258.8L 117.309 284.2L 114.209 284.2ZM 114.209 253L 114.209 248.6L 117.309 248.6L 117.309 253L 114.209 253ZM 136.636 258.25C 139.569 258.25 141.802 259.133 143.336 260.9C 144.902 262.667 145.686 265.283 145.686 268.75L 145.686 284.2L 142.586 284.2L 142.586 268.9C 142.586 266.033 142.036 264 140.936 262.8C 139.836 261.567 138.219 260.95 136.086 260.95C 134.752 260.95 133.519 261.267 132.386 261.9C 131.252 262.533 130.352 263.467 129.686 264.7C 129.019 265.933 128.686 267.417 128.686 269.15L 128.686 284.2L 125.586 284.2L 125.586 258.8L 128.636 258.8L 128.636 262.25L 128.736 262.25C 129.536 261.017 130.619 260.05 131.986 259.35C 133.386 258.617 134.936 258.25 136.636 258.25ZM 162.409 258.15C 165.376 258.15 167.693 258.967 169.359 260.6C 171.059 262.233 171.909 264.667 171.909 267.9L 171.909 277.95C 171.909 280.35 172.093 282.433 172.459 284.2L 169.559 284.2C 169.326 283.067 169.209 281.783 169.209 280.35L 169.109 280.35C 167.376 283.25 164.359 284.7 160.059 284.7C 157.493 284.7 155.409 284.017 153.809 282.65C 152.243 281.283 151.459 279.533 151.459 277.4C 151.459 275.233 152.176 273.533 153.609 272.3C 155.076 271.067 157.576 270.167 161.109 269.6C 163.543 269.2 166.143 268.9 168.909 268.7L 168.909 267.5C 168.909 265.233 168.326 263.55 167.159 262.45C 165.993 261.35 164.409 260.8 162.409 260.8C 160.343 260.8 158.743 261.317 157.609 262.35C 156.476 263.35 155.859 264.717 155.759 266.45L 152.509 266.45C 152.676 263.983 153.609 261.983 155.309 260.45C 157.043 258.917 159.409 258.15 162.409 258.15ZM 168.909 271.3C 166.743 271.467 164.276 271.767 161.509 272.2C 159.009 272.567 157.259 273.133 156.259 273.9C 155.259 274.667 154.759 275.767 154.759 277.2C 154.759 278.7 155.276 279.9 156.309 280.8C 157.376 281.667 158.843 282.1 160.709 282.1C 161.876 282.1 162.959 281.917 163.959 281.55C 164.993 281.15 165.859 280.583 166.559 279.85C 167.459 278.917 168.076 278 168.409 277.1C 168.743 276.167 168.909 274.883 168.909 273.25L 168.909 271.3ZM 187.242 281.65C 187.875 281.65 188.458 281.583 188.992 281.45L 188.992 284.1C 188.258 284.267 187.492 284.35 186.692 284.35C 184.492 284.35 182.908 283.817 181.942 282.75C 180.975 281.683 180.492 279.933 180.492 277.5L 180.492 261.4L 175.942 261.4L 175.942 258.8L 180.492 258.8L 180.492 252.9L 183.592 252.9L 183.592 258.8L 188.742 258.8L 188.742 261.4L 183.592 261.4L 183.592 277.45C 183.592 278.95 183.858 280.033 184.392 280.7C 184.958 281.333 185.908 281.65 187.242 281.65ZM 194.58 284.2L 194.58 258.8L 197.68 258.8L 197.68 284.2L 194.58 284.2ZM 194.58 253L 194.58 248.6L 197.68 248.6L 197.68 253L 194.58 253ZM 215.607 258.15C 219.207 258.15 222.04 259.35 224.107 261.75C 226.173 264.117 227.207 267.367 227.207 271.5C 227.207 275.633 226.173 278.9 224.107 281.3C 222.04 283.667 219.207 284.85 215.607 284.85C 212.007 284.85 209.173 283.667 207.107 281.3C 205.04 278.9 204.007 275.633 204.007 271.5C 204.007 267.367 205.04 264.117 207.107 261.75C 209.173 259.35 212.007 258.15 215.607 258.15ZM 215.607 260.85C 213.007 260.85 210.957 261.8 209.457 263.7C 207.99 265.6 207.257 268.2 207.257 271.5C 207.257 274.8 207.99 277.4 209.457 279.3C 210.957 281.2 213.007 282.15 215.607 282.15C 218.24 282.15 220.29 281.2 221.757 279.3C 223.257 277.4 224.007 274.8 224.007 271.5C 224.007 268.2 223.257 265.6 221.757 263.7C 220.29 261.8 218.24 260.85 215.607 260.85ZM 244.595 258.25C 247.528 258.25 249.761 259.133 251.295 260.9C 252.861 262.667 253.645 265.283 253.645 268.75L 253.645 284.2L 250.545 284.2L 250.545 268.9C 250.545 266.033 249.995 264 248.895 262.8C 247.795 261.567 246.178 260.95 244.045 260.95C 242.711 260.95 241.478 261.267 240.345 261.9C 239.211 262.533 238.311 263.467 237.645 264.7C 236.978 265.933 236.645 267.417 236.645 269.15L 236.645 284.2L 233.545 284.2L 233.545 258.8L 236.595 258.8L 236.595 262.25L 236.695 262.25C 237.495 261.017 238.578 260.05 239.945 259.35C 241.345 258.617 242.895 258.25 244.595 258.25Z"/>
<path id="path1_fill" d="M 0 2C 0 0.895431 0.895431 0 2 0L 380 0C 381.105 0 382 0.895431 382 2L 382 284C 382 285.105 381.105 286 380 286L 2 286C 0.895431 286 0 285.105 0 284L 0 2Z"/>
<path id="path2_stroke_2x" d="M 2 1L 380 1L 380 -1L 2 -1L 2 1ZM 381 2L 381 284L 383 284L 383 2L 381 2ZM 380 285L 2 285L 2 287L 380 287L 380 285ZM 1 284L 1 2L -1 2L -1 284L 1 284ZM 2 -1C 0.343146 -1 -1 0.343146 -1 2L 1 2C 1 1.44772 1.44772 1 2 1L 2 -1ZM 380 1C 380.552 1 381 1.44772 381 2L 383 2C 383 0.343146 381.657 -1 380 -1L 380 1ZM 381 284C 381 284.552 380.552 285 380 285L 380 287C 381.657 287 383 285.657 383 284L 381 284ZM 2 285C 1.44772 285 1 284.552 1 284L -1 284C -1 285.657 0.343146 287 2 287L 2 285Z"/>
</defs>
</svg>
