<svg width="1000" height="752" viewBox="0 0 1000 752" version="1.1" xmlns="http://www.w3.org/2000/svg" xmlns:xlink="http://www.w3.org/1999/xlink" xmlns:figma="http://www.figma.com/figma/ns">
<title>ei-4x3</title>
<desc>Created using Figma</desc>
<g id="Canvas" transform="matrix(2 0 0 2 -4400 -3116)" figma:type="canvas">
<mask id="mask0_alpha" mask-type="alpha">
<path d="M 2200 1558.5L 2700 1558.5L 2700 1933.5L 2200 1933.5L 2200 1558.5Z" fill="#FFFFFF"/>
</mask>
<g id="ei-4x3" style="mix-blend-mode:normal;" mask="url(#mask0_alpha)" figma:type="frame">
<g id="emulating_intelligence" style="mix-blend-mode:normal;" figma:type="frame">
<g id="layer1" style="mix-blend-mode:normal;" figma:type="frame">
<g id="text5795-43" style="mix-blend-mode:normal;" figma:type="frame">
<g id="path3885" style="mix-blend-mode:normal;" figma:type="vector">
<use xlink:href="#path0_fill" transform="matrix(0.967544 -0.252704 0.250428 0.968135 2479.86 1758.02)" style="mix-blend-mode:normal;"/>
</g>
<g id="path3887" style="mix-blend-mode:normal;" figma:type="vector">
<use xlink:href="#path1_fill" transform="matrix(0.967544 -0.252704 0.250428 0.968135 2504.73 1759.31)" style="mix-blend-mode:normal;"/>
</g>
<g id="path3889" style="mix-blend-mode:normal;" figma:type="vector">
<use xlink:href="#path2_fill" transform="matrix(0.967544 -0.252704 0.250428 0.968135 2536.9 1751.35)" style="mix-blend-mode:normal;"/>
</g>
<g id="path3891" style="mix-blend-mode:normal;" figma:type="vector">
<use xlink:href="#path3_fill" transform="matrix(0.967544 -0.252704 0.250428 0.968135 2556.69 1736.21)" style="mix-blend-mode:normal;"/>
</g>
<g id="path3893" style="mix-blend-mode:normal;" figma:type="vector">
<use xlink:href="#path4_fill" transform="matrix(0.967544 -0.252704 0.250428 0.968135 2566.99 1743.05)" style="mix-blend-mode:normal;"/>
</g>
<g id="path3895" style="mix-blend-mode:normal;" figma:type="vector">
<use xlink:href="#path5_fill" transform="matrix(0.967544 -0.252704 0.250428 0.968135 2584.95 1733.13)" style="mix-blend-mode:normal;"/>
</g>
<g id="path3897" style="mix-blend-mode:normal;" figma:type="vector">
<use xlink:href="#path6_fill" transform="matrix(0.967544 -0.252704 0.250428 0.968135 2600.27 1725.99)" style="mix-blend-mode:normal;"/>
</g>
<g id="path3899" style="mix-blend-mode:normal;" figma:type="vector">
<use xlink:href="#path7_fill" transform="matrix(0.967544 -0.252704 0.250428 0.968135 2612.22 1731.24)" style="mix-blend-mode:normal;"/>
</g>
<g id="path3901" style="mix-blend-mode:normal;" figma:type="vector">
<use xlink:href="#path8_fill" transform="matrix(0.967544 -0.252704 0.250428 0.968135 2632.8 1725.86)" style="mix-blend-mode:normal;"/>
</g>
<g id="path3903" style="mix-blend-mode:normal;" figma:type="vector">
<use xlink:href="#path9_fill" transform="matrix(0.967544 -0.252704 0.250428 0.968135 2494.51 1814.68)" style="mix-blend-mode:normal;"/>
</g>
<g id="path3905" style="mix-blend-mode:normal;" figma:type="vector">
<use xlink:href="#path7_fill" transform="matrix(0.967544 -0.252704 0.250428 0.968135 2506.26 1819.4)" style="mix-blend-mode:normal;"/>
</g>
<g id="path3907" style="mix-blend-mode:normal;" figma:type="vector">
<use xlink:href="#path5_fill" transform="matrix(0.967544 -0.252704 0.250428 0.968135 2524.72 1809.35)" style="mix-blend-mode:normal;"/>
</g>
<g id="path3909" style="mix-blend-mode:normal;" figma:type="vector">
<use xlink:href="#path10_fill" transform="matrix(0.967544 -0.252704 0.250428 0.968135 2540.85 1810.36)" style="mix-blend-mode:normal;"/>
</g>
<g id="path3911" style="mix-blend-mode:normal;" figma:type="vector">
<use xlink:href="#path3_fill" transform="matrix(0.967544 -0.252704 0.250428 0.968135 2560.6 1795.67)" style="mix-blend-mode:normal;"/>
</g>
<g id="path3913" style="mix-blend-mode:normal;" figma:type="vector">
<use xlink:href="#path3_fill" transform="matrix(0.967544 -0.252704 0.250428 0.968135 2570.03 1793.21)" style="mix-blend-mode:normal;"/>
</g>
<g id="path3915" style="mix-blend-mode:normal;" figma:type="vector">
<use xlink:href="#path6_fill" transform="matrix(0.967544 -0.252704 0.250428 0.968135 2579.24 1791.97)" style="mix-blend-mode:normal;"/>
</g>
<g id="path3917" style="mix-blend-mode:normal;" figma:type="vector">
<use xlink:href="#path8_fill" transform="matrix(0.967544 -0.252704 0.250428 0.968135 2589.75 1797.59)" style="mix-blend-mode:normal;"/>
</g>
<g id="path3919" style="mix-blend-mode:normal;" figma:type="vector">
<use xlink:href="#path10_fill" transform="matrix(0.967544 -0.252704 0.250428 0.968135 2612.39 1791.68)" style="mix-blend-mode:normal;"/>
</g>
<g id="path3921" style="mix-blend-mode:normal;" figma:type="vector">
<use xlink:href="#path7_fill" transform="matrix(0.967544 -0.252704 0.250428 0.968135 2634.45 1785.92)" style="mix-blend-mode:normal;"/>
</g>
<g id="path3923" style="mix-blend-mode:normal;" figma:type="vector">
<use xlink:href="#path11_fill" transform="matrix(0.967544 -0.252704 0.250428 0.968135 2655.03 1780.54)" style="mix-blend-mode:normal;"/>
</g>
<g id="path3925" style="mix-blend-mode:normal;" figma:type="vector">
<use xlink:href="#path12_fill" transform="matrix(0.967544 -0.252704 0.250428 0.968135 2675.03 1775.32)" style="mix-blend-mode:normal;"/>
</g>
</g>
<g id="rect2841-7" style="mix-blend-mode:normal;" figma:type="vector">
<use xlink:href="#path13_fill" transform="translate(2210.83 1630.5)" style="mix-blend-mode:normal;"/>
</g>
<g id="text2843-5" style="mix-blend-mode:normal;" figma:type="frame">
<g id="path3096" style="mix-blend-mode:normal;" figma:type="vector">
<use xlink:href="#path14_fill" transform="matrix(0.997659 0.0683809 -0.0677265 0.997704 2234.59 1641.23)" style="mix-blend-mode:normal;"/>
</g>
<g id="path3098" style="mix-blend-mode:normal;" figma:type="vector">
<use xlink:href="#path15_fill" transform="matrix(0.997659 0.0683809 -0.0677265 0.997704 2279.97 1644.4)" style="mix-blend-mode:normal;"/>
</g>
<g id="path3100" style="mix-blend-mode:normal;" figma:type="vector">
<use xlink:href="#path16_fill" transform="matrix(0.997659 0.0683809 -0.0677265 0.997704 2325.04 1647.78)" style="mix-blend-mode:normal;"/>
</g>
<g id="path3102" style="mix-blend-mode:normal;" figma:type="vector">
<use xlink:href="#path17_fill" transform="matrix(0.997659 0.0683809 -0.0677265 0.997704 2370.73 1650.74)" style="mix-blend-mode:normal;"/>
</g>
<g id="path3104" style="mix-blend-mode:normal;" figma:type="vector">
<use xlink:href="#path18_fill" transform="matrix(0.997659 0.0683809 -0.0677265 0.997704 2416.12 1653.91)" style="mix-blend-mode:normal;"/>
</g>
</g>
<g id="text2843-3-56" style="mix-blend-mode:normal;" figma:type="frame">
<g id="path3107" style="mix-blend-mode:normal;" figma:type="vector">
<use xlink:href="#path19_fill" transform="matrix(1.08257 0.0756129 0.249833 0.941451 2240.65 1668.92)" style="mix-blend-mode:normal;"/>
</g>
<g id="path3109" style="mix-blend-mode:normal;" figma:type="vector">
<use xlink:href="#path20_fill" transform="matrix(1.08257 0.0756129 0.249833 0.941451 2285.46 1671.81)" style="mix-blend-mode:normal;"/>
</g>
<g id="path3111" style="mix-blend-mode:normal;" figma:type="vector">
<use xlink:href="#path21_fill" transform="matrix(1.08257 0.0756129 0.249833 0.941451 2330.84 1674.98)" style="mix-blend-mode:normal;"/>
</g>
<g id="path3113" style="mix-blend-mode:normal;" figma:type="vector">
<use xlink:href="#path22_fill" transform="matrix(1.08257 0.0756129 0.249833 0.941451 2376.23 1678.15)" style="mix-blend-mode:normal;"/>
</g>
<g id="path3115" style="mix-blend-mode:normal;" figma:type="vector">
<use xlink:href="#path23_fill" transform="matrix(1.08257 0.0756129 0.249833 0.941451 2421.61 1681.32)" style="mix-blend-mode:normal;"/>
</g>
</g>
<g id="text2843-3-5-9" style="mix-blend-mode:normal;" figma:type="frame">
<g id="path3118" style="mix-blend-mode:normal;" figma:type="vector">
<use xlink:href="#path24_fill" transform="matrix(1.08257 0.0756129 0.249833 0.941451 2247.39 1696.19)" style="mix-blend-mode:normal;"/>
</g>
<g id="path3120" style="mix-blend-mode:normal;" figma:type="vector">
<use xlink:href="#path25_fill" transform="matrix(1.08257 0.0756129 0.249833 0.941451 2293.34 1699.64)" style="mix-blend-mode:normal;"/>
</g>
<g id="path3122" style="mix-blend-mode:normal;" figma:type="vector">
<use xlink:href="#path24_fill" transform="matrix(1.08257 0.0756129 0.249833 0.941451 2338.16 1702.53)" style="mix-blend-mode:normal;"/>
</g>
<g id="path3124" style="mix-blend-mode:normal;" figma:type="vector">
<use xlink:href="#path26_fill" transform="matrix(1.08257 0.0756129 0.249833 0.941451 2383.54 1705.7)" style="mix-blend-mode:normal;"/>
</g>
<g id="path3126" style="mix-blend-mode:normal;" figma:type="vector">
<use xlink:href="#path27_fill" transform="matrix(1.08257 0.0756129 0.249833 0.941451 2428.92 1708.87)" style="mix-blend-mode:normal;"/>
</g>
</g>
<g id="text2843-3-5-6-2" style="mix-blend-mode:normal;" figma:type="frame">
<g id="path3129" style="mix-blend-mode:normal;" figma:type="vector">
<use xlink:href="#path28_fill" transform="matrix(1.08257 0.0756129 0.249833 0.941451 2254.7 1723.74)" style="mix-blend-mode:normal;"/>
</g>
<g id="path3131" style="mix-blend-mode:normal;" figma:type="vector">
<use xlink:href="#path29_fill" transform="matrix(1.08257 0.0756129 0.249833 0.941451 2300.08 1726.91)" style="mix-blend-mode:normal;"/>
</g>
<g id="path3133" style="mix-blend-mode:normal;" figma:type="vector">
<use xlink:href="#path28_fill" transform="matrix(1.08257 0.0756129 0.249833 0.941451 2345.47 1730.08)" style="mix-blend-mode:normal;"/>
</g>
<g id="path3135" style="mix-blend-mode:normal;" figma:type="vector">
<use xlink:href="#path30_fill" transform="matrix(1.08257 0.0756129 0.249833 0.941451 2390.85 1733.25)" style="mix-blend-mode:normal;"/>
</g>
<g id="path3137" style="mix-blend-mode:normal;" figma:type="vector">
<use xlink:href="#path31_fill" transform="matrix(1.08257 0.0756129 0.249833 0.941451 2436.8 1736.7)" style="mix-blend-mode:normal;"/>
</g>
</g>
<g id="text2843-3-5-6-7-09" style="mix-blend-mode:normal;" figma:type="frame">
<g id="path3140" style="mix-blend-mode:normal;" figma:type="vector">
<use xlink:href="#path28_fill" transform="matrix(1.08257 0.0756129 0.249833 0.941451 2262.01 1751.29)" style="mix-blend-mode:normal;"/>
</g>
<g id="path3142" style="mix-blend-mode:normal;" figma:type="vector">
<use xlink:href="#path29_fill" transform="matrix(1.08257 0.0756129 0.249833 0.941451 2307.39 1754.46)" style="mix-blend-mode:normal;"/>
</g>
<g id="path3144" style="mix-blend-mode:normal;" figma:type="vector">
<use xlink:href="#path28_fill" transform="matrix(1.08257 0.0756129 0.249833 0.941451 2352.78 1757.63)" style="mix-blend-mode:normal;"/>
</g>
<g id="path3146" style="mix-blend-mode:normal;" figma:type="vector">
<use xlink:href="#path32_fill" transform="matrix(1.08257 0.0756129 0.249833 0.941451 2398.73 1761.07)" style="mix-blend-mode:normal;"/>
</g>
<g id="path3148" style="mix-blend-mode:normal;" figma:type="vector">
<use xlink:href="#path33_fill" transform="matrix(1.08257 0.0756129 0.249833 0.941451 2443.54 1763.97)" style="mix-blend-mode:normal;"/>
</g>
</g>
<g id="text2843-3-5-6-7-0-6" style="mix-blend-mode:normal;" figma:type="frame">
<g id="path3151" style="mix-blend-mode:normal;" figma:type="vector">
<use xlink:href="#path34_fill" transform="matrix(1.08257 0.0756129 0.249833 0.941451 2269.89 1779.11)" style="mix-blend-mode:normal;"/>
</g>
<g id="path3153" style="mix-blend-mode:normal;" figma:type="vector">
<use xlink:href="#path29_fill" transform="matrix(1.08257 0.0756129 0.249833 0.941451 2314.71 1782.01)" style="mix-blend-mode:normal;"/>
</g>
<g id="path3155" style="mix-blend-mode:normal;" figma:type="vector">
<use xlink:href="#path28_fill" transform="matrix(1.08257 0.0756129 0.249833 0.941451 2360.09 1785.17)" style="mix-blend-mode:normal;"/>
</g>
<g id="path3157" style="mix-blend-mode:normal;" figma:type="vector">
<use xlink:href="#path30_fill" transform="matrix(1.08257 0.0756129 0.249833 0.941451 2405.47 1788.34)" style="mix-blend-mode:normal;"/>
</g>
<g id="path3159" style="mix-blend-mode:normal;" figma:type="vector">
<use xlink:href="#path33_fill" transform="matrix(1.08257 0.0756129 0.249833 0.941451 2450.85 1791.51)" style="mix-blend-mode:normal;"/>
</g>
</g>
<g id="text2843-3-5-6-7-0-7-6" style="mix-blend-mode:normal;" figma:type="frame">
<g id="path3162" style="mix-blend-mode:normal;" figma:type="vector">
<use xlink:href="#path28_fill" transform="matrix(1.08257 0.0756129 0.249833 0.941451 2276.63 1806.38)" style="mix-blend-mode:normal;"/>
</g>
<g id="path3164" style="mix-blend-mode:normal;" figma:type="vector">
<use xlink:href="#path35_fill" transform="matrix(1.08257 0.0756129 0.249833 0.941451 2322.58 1809.83)" style="mix-blend-mode:normal;"/>
</g>
<g id="path3166" style="mix-blend-mode:normal;" figma:type="vector">
<use xlink:href="#path28_fill" transform="matrix(1.08257 0.0756129 0.249833 0.941451 2367.4 1812.72)" style="mix-blend-mode:normal;"/>
</g>
<g id="path3168" style="mix-blend-mode:normal;" figma:type="vector">
<use xlink:href="#path30_fill" transform="matrix(1.08257 0.0756129 0.249833 0.941451 2412.78 1815.89)" style="mix-blend-mode:normal;"/>
</g>
<g id="path3170" style="mix-blend-mode:normal;" figma:type="vector">
<use xlink:href="#path33_fill" transform="matrix(1.08257 0.0756129 0.249833 0.941451 2458.16 1819.06)" style="mix-blend-mode:normal;"/>
</g>
</g>
<g id="rect2841-7-3" style="mix-blend-mode:normal;" figma:type="vector">
<use xlink:href="#path36_fill" transform="translate(2205.4 1638.03)" style="mix-blend-mode:normal;"/>
</g>
<g id="rect2841-7-3-3" style="mix-blend-mode:normal;" figma:type="vector">
<use xlink:href="#path37_fill" transform="translate(2200 1645.62)" style="mix-blend-mode:normal;"/>
</g>
</g>
</g>
</g>
</g>
<defs>
<path id="path0_fill" d="M -1.2805e-06 1.66883e-05L 18.2291 1.66883e-05L 18.2291 3.27731L 3.63647 3.27731L 3.63647 12.3602L 16.877 12.3602L 16.877 15.6375L 3.63647 15.6375L 3.63647 25.4225L 18.2291 25.4225L 18.2291 28.7467L -1.2805e-06 28.7467L -1.2805e-06 1.66883e-05"/>
<path id="path1_fill" d="M 14.6858 3.32413C 16.2398 1.10807 18.3378 3.33385e-06 20.9797 -1.61739e-05C 23.0621 3.33385e-06 24.6628 0.671097 25.7818 2.01321C 26.9317 3.35537 27.5067 5.16569 27.5068 7.44418L 27.5068 21.2089L 23.9635 21.2089L 23.9635 8.00599C 23.9635 6.50781 23.6371 5.33737 22.9845 4.49461C 22.3317 3.62068 21.3527 3.18371 20.0473 3.18369C 18.9905 3.18371 18.0426 3.52702 17.2034 4.21368C 16.3642 4.86916 15.7892 5.75874 15.4784 6.88237L 15.4784 21.2089L 11.9818 21.2089L 11.9818 8.00599C 11.9818 6.50781 11.6554 5.33737 11.0027 4.49461C 10.35 3.62068 9.37093 3.18371 8.06553 3.18369C 7.00877 3.18371 6.06081 3.52702 5.22163 4.21368C 4.38243 4.86916 3.80743 5.75874 3.49663 6.88237L 3.49663 21.2089L 4.17349e-06 21.2089L 4.17349e-06 0.421359L 3.49663 0.421359L 3.49663 2.85596C 4.6777 0.952022 6.54255 3.33385e-06 9.09121 -1.61739e-05C 11.702 3.33385e-06 13.5669 1.10807 14.6858 3.32413"/>
<path id="path2_fill" d="M 16.7838 -9.50624e-06L 16.7838 20.7875L 13.2405 20.7875L 13.2405 18.1657C 12.6189 19.0396 11.7797 19.7731 10.723 20.3661C 9.66619 20.928 8.50068 21.2089 7.22636 21.2089C 4.92635 21.2089 3.13917 20.5222 1.86486 19.1489C 0.621615 17.7755 9.62747e-06 15.934 9.62747e-06 13.6243L 9.62747e-06 -9.50624e-06L 3.54323 -9.50624e-06L 3.54323 13.0624C 3.54322 14.5919 3.9162 15.7935 4.66216 16.6675C 5.4081 17.5414 6.54255 17.9784 8.06554 17.9784C 9.24661 17.9784 10.3034 17.6194 11.2358 16.9016C 12.1993 16.1837 12.8675 15.2473 13.2405 14.0924L 13.2405 -9.50624e-06L 16.7838 -9.50624e-06"/>
<path id="path3_fill" d="M 3.49663 -9.98251e-06L 3.49663 30.4322L 4.17349e-06 30.4322L 4.17349e-06 -9.98251e-06L 3.49663 -9.98251e-06Z"/>
<path id="path4_fill" d="M 16.5041 21.2089L 13.1473 21.2089L 13.1473 19.6639C 12.7122 20.1321 11.9817 20.569 10.9561 20.9748C 9.93039 21.3806 8.84256 21.5834 7.69257 21.5834C 5.51689 21.5834 3.68311 20.9748 2.19122 19.7575C 0.730411 18.5402 -6.26023e-06 16.9328 -6.26023e-06 14.9352C -6.26023e-06 13.0312 0.7615 11.4706 2.28447 10.2533C 3.80745 9.03603 5.68783 8.42739 7.92567 8.42737C 8.95134 8.42739 9.96147 8.59906 10.9561 8.94239C 11.9507 9.28574 12.6811 9.6759 13.1473 10.1129L 13.1473 7.49097C 13.1473 6.14885 12.7432 5.07207 11.9351 4.26053C 11.1581 3.44902 10.0392 3.04322 8.57837 3.0432C 6.40269 3.04322 4.98852 3.99523 4.33582 5.89918L 0.885822 5.89918C 1.22771 4.1513 2.09797 2.73109 3.49662 1.63863C 4.92634 0.546215 6.6358 3.33385e-06 8.625 -1.61739e-05C 11.0804 3.33385e-06 13.0074 0.655457 14.4061 1.96636C 15.8047 3.27731 16.504 5.07204 16.5041 7.35053L 16.5041 21.2089M 13.1473 16.0588L 13.1473 13.9052C 12.8365 13.1561 12.2148 12.5474 11.2824 12.0792C 10.3811 11.5799 9.38648 11.3302 8.29865 11.3301C 6.93107 11.3302 5.76552 11.6422 4.80202 12.2665C 3.83851 12.8907 3.35674 13.7803 3.35674 14.9352C 3.35674 16.1213 3.83851 17.042 4.80202 17.6975C 5.76552 18.3218 6.93107 18.6338 8.29865 18.6338C 9.38648 18.6338 10.3811 18.3998 11.2824 17.9316C 12.2148 17.4322 12.8365 16.8079 13.1473 16.0588"/>
<path id="path5_fill" d="M 3.35676 21.0216L 3.35676 8.4742L 6.07052e-06 8.4742L 6.07052e-06 5.47778L 3.35676 5.47778L 3.35676 2.28798e-05L 6.85338 2.28798e-05L 6.85338 5.47778L 11.8419 5.47778L 11.8419 8.4742L 6.85338 8.4742L 6.85338 20.647C 6.85338 22.5822 7.77027 23.5498 9.60406 23.5498C 10.5676 23.5498 11.4689 23.2689 12.3081 22.7071L 12.3081 25.9844C 11.4378 26.4526 10.35 26.6867 9.04458 26.6867C 7.30403 26.6867 5.92095 26.2185 4.89529 25.2821C 3.86961 24.3145 3.35676 22.8944 3.35676 21.0216"/>
<path id="path6_fill" d="M 4.00947 8.521L 4.00947 29.3085L 0.512842 29.3085L 0.512842 8.521L 4.00947 8.521ZM 3.82297 0.655487C 4.28917 1.09249 4.52228 1.62306 4.52229 2.24728C 4.52228 2.87156 4.28917 3.40219 3.82297 3.83914C 3.38782 4.27614 2.85946 4.49463 2.23784 4.4946C 1.61622 4.49463 1.08782 4.27614 0.652689 3.83914C 0.217554 3.40219 -1.05286e-05 2.87156 -1.05286e-05 2.24728C -1.05286e-05 1.62306 0.217554 1.09249 0.652689 0.655487C 1.08782 0.218541 1.61622 5.69041e-05 2.23784 2.76424e-05C 2.85946 5.69041e-05 3.38782 0.218541 3.82297 0.655487Z"/>
<path id="path7_fill" d="M 4.17349e-06 21.2089L 4.17349e-06 0.421359L 3.49663 0.421359L 3.49663 3.0432C 4.14932 2.16927 5.00404 1.45137 6.06081 0.889527C 7.14863 0.29651 8.32973 3.33385e-06 9.60406 -1.61739e-05C 11.9041 3.33385e-06 13.6912 0.686677 14.9655 2.06001C 16.2398 3.43338 16.877 5.27491 16.877 7.58462L 16.877 21.2089L 13.3338 21.2089L 13.3338 8.14643C 13.3338 6.64825 12.9452 5.46223 12.1682 4.58826C 11.4223 3.68312 10.2878 3.23051 8.76486 3.23049C 7.55269 3.23051 6.46486 3.60503 5.50136 4.35411C 4.53783 5.07202 3.8696 5.99282 3.49663 7.11645L 3.49663 21.2089L 4.17349e-06 21.2089"/>
<path id="path8_fill" d="M 15.0588 19.8043L 15.0588 18.2593C 14.4993 19.0396 13.6912 19.7107 12.6344 20.2725C 11.6088 20.8031 10.4899 21.0684 9.2777 21.0684C 6.38715 21.0684 4.11823 20.0384 2.47095 17.9784C 0.823649 15.9184 -6.26023e-06 13.437 -6.26023e-06 10.5342C -6.26023e-06 7.60023 0.823649 5.11888 2.47095 3.09005C 4.11823 1.03004 6.38715 3.33385e-06 9.2777 -1.61739e-05C 10.4899 3.33385e-06 11.6088 0.265348 12.6344 0.795941C 13.6912 1.32657 14.4993 1.98203 15.0588 2.76232L 15.0588 0.421359L 18.602 0.421359L 18.602 19.5702C 18.602 22.8788 17.7473 25.3757 16.0378 27.0612C 14.3594 28.7779 12.1372 29.6363 9.37095 29.6363C 6.88445 29.6363 4.86419 29.0276 3.31015 27.8103C 1.78718 26.593 0.854738 24.9075 0.512846 22.7539L 3.96285 22.7539C 4.55338 25.3445 6.35607 26.6398 9.37095 26.6398C 13.1628 26.6398 15.0588 24.3613 15.0588 19.8043M 15.0588 14.6542L 15.0588 6.36734C 13.8777 4.2137 12.1216 3.13686 9.79055 3.13684C 7.86351 3.13686 6.34053 3.82354 5.22162 5.19686C 4.13377 6.57023 3.58987 8.34933 3.58987 10.5342C 3.58987 12.7191 4.13377 14.4982 5.22162 15.8716C 6.34053 17.2137 7.86351 17.8847 9.79055 17.8847C 12.1216 17.8847 13.8777 16.8079 15.0588 14.6542"/>
<path id="path9_fill" d="M 3.6831 1.66883e-05L 3.6831 28.7467L -1.2805e-06 28.7467L -1.2805e-06 1.66883e-05L 3.6831 1.66883e-05Z"/>
<path id="path10_fill" d="M 14.546 14.982L 17.8561 14.982C 17.4831 17.0108 16.5662 18.6338 15.1054 19.8511C 13.6446 21.0372 11.7797 21.6303 9.5108 21.6303C 6.68241 21.6303 4.38243 20.6471 2.61082 18.6807C 0.870282 16.6831 -6.26023e-06 14.0768 -6.26023e-06 10.8619C -6.26023e-06 7.70947 0.870282 5.11888 2.61082 3.09005C 4.35135 1.03004 6.62027 3.33385e-06 9.41757 -1.61739e-05C 12.1838 3.33385e-06 14.3284 0.936382 15.8514 2.80911C 17.3743 4.65067 18.1358 7.11644 18.1358 10.2065L 18.1358 11.4706L 3.49662 11.4706C 3.5277 13.6555 4.08715 15.4033 5.175 16.7143C 6.29391 17.994 7.73917 18.6338 9.5108 18.6338C 10.8162 18.6338 11.904 18.3218 12.7743 17.6975C 13.6757 17.042 14.2662 16.1369 14.546 14.982M 9.4642 2.9964C 7.91014 2.99642 6.60472 3.51141 5.54797 4.54141C 4.49121 5.57144 3.83852 6.99159 3.58987 8.80189L 14.5926 8.80189C 14.5615 7.14765 14.1108 5.7743 13.2406 4.68184C 12.3703 3.55821 11.1115 2.99642 9.4642 2.9964Z"/>
<path id="path11_fill" d="M 2.61082 18.6338C 0.870282 16.6362 -6.26023e-06 14.03 -6.26023e-06 10.8151C -6.26023e-06 7.60025 0.870282 4.99402 2.61082 2.9964C 4.35135 0.998823 6.62027 3.33385e-06 9.41758 -1.61739e-05C 11.6865 3.33385e-06 13.5358 0.608656 14.9656 1.82592C 16.4263 3.04323 17.3432 4.66628 17.7162 6.69507L 14.1264 6.69507C 13.8777 5.57144 13.3338 4.69751 12.4946 4.07324C 11.6865 3.41779 10.6608 3.09007 9.41758 3.09005C 7.64594 3.09007 6.2162 3.80796 5.12837 5.24372C 4.07161 6.67951 3.54325 8.53662 3.54325 10.8151C 3.54325 13.0936 4.07161 14.9508 5.12837 16.3865C 6.2162 17.8223 7.64594 18.5402 9.41758 18.5402C 10.6608 18.5402 11.6865 18.2281 12.4946 17.6039C 13.3338 16.9484 13.8777 16.0588 14.1264 14.9352L 17.7162 14.9352C 17.3432 16.964 16.4263 18.587 14.9656 19.8043C 13.5358 21.0216 11.6865 21.6303 9.41758 21.6303C 6.62027 21.6303 4.35135 20.6314 2.61082 18.6338"/>
<path id="path12_fill" d="M 14.546 14.982L 17.8561 14.982C 17.4831 17.0108 16.5662 18.6338 15.1054 19.8511C 13.6446 21.0372 11.7797 21.6303 9.5108 21.6303C 6.68241 21.6303 4.38243 20.6471 2.61082 18.6807C 0.870282 16.6831 -6.26023e-06 14.0768 -6.26023e-06 10.8619C -6.26023e-06 7.70947 0.870282 5.11888 2.61082 3.09005C 4.35135 1.03004 6.62024 3.33385e-06 9.41755 -1.61739e-05C 12.1838 3.33385e-06 14.3284 0.936382 15.8514 2.80911C 17.3743 4.65067 18.1358 7.11644 18.1358 10.2065L 18.1358 11.4706L 3.49662 11.4706C 3.5277 13.6555 4.08715 15.4033 5.175 16.7143C 6.29391 17.994 7.73917 18.6338 9.5108 18.6338C 10.8162 18.6338 11.904 18.3218 12.7743 17.6975C 13.6756 17.042 14.2662 16.1369 14.546 14.982M 9.4642 2.9964C 7.91014 2.99642 6.60472 3.51141 5.54797 4.54141C 4.49121 5.57144 3.83852 6.99159 3.58987 8.80189L 14.5925 8.80189C 14.5615 7.14765 14.1108 5.7743 13.2406 4.68184C 12.3703 3.55821 11.1115 2.99642 9.4642 2.9964"/>
<path id="path13_fill" d="M 0 0L 0.333776 1.31108L 53.1008 200.168L 53.2828 200.839L 53.9807 200.9L 281.616 216.785L 282.982 216.877L 282.618 215.566L 229.851 16.7086L 229.668 16.0378L 228.971 15.9768L 1.33511 0.0914111L 0 0ZM 2.54884 2.13432L 228.151 17.8673L 280.402 214.743L 54.8 199.01L 2.54884 2.13432Z"/>
<path id="path14_fill" d="M 3.86674 5.46352e-06C 0.123845 -0.00487286 -0.89287 2.73417 0.777787 7.65599C 2.45579 12.5994 5.33369 15.3435 9.0766 15.3483C 12.8195 15.3532 13.8362 12.6142 12.1582 7.67076C 10.4875 2.74894 7.60963 0.0048672 3.86674 5.46352e-06ZM 4.36499 1.46792C 6.53992 1.47075 8.4452 3.28572 9.93269 7.66787C 11.4275 12.0716 10.7532 13.8832 8.57829 13.8804C 6.42866 13.8776 4.49808 12.0626 3.00327 7.65888C 1.51578 3.27673 2.21536 1.46513 4.36504 1.46792M 5.99177 6.26022C 5.05605 6.25905 4.56042 6.8841 4.82421 7.66124C 5.09534 8.45995 6.01594 9.08689 6.95166 9.08811C 7.91268 9.08938 8.40829 8.46425 8.13715 7.66554C 7.87334 6.8884 6.95278 6.26147 5.99177 6.26022"/>
<path id="path15_fill" d="M 3.86675 4.90828e-06C 0.123863 -0.00487342 -0.892872 2.73416 0.777794 7.65598C 2.45578 12.5994 5.33371 15.3435 9.07661 15.3483C 12.8195 15.3532 13.8362 12.6142 12.1582 7.67076C 10.4876 2.74894 7.60964 0.0048647 3.86675 4.90828e-06M 4.36499 1.46792C 6.53992 1.47075 8.4452 3.28572 9.93267 7.66786C 11.4275 12.0716 10.7532 13.8832 8.5783 13.8804C 6.42868 13.8776 4.49809 12.0626 3.00328 7.65887C 1.51579 3.27673 2.21536 1.46513 4.36493 1.46792M 5.99166 6.26022C 5.05594 6.25904 4.56029 6.88411 4.82409 7.66124C 5.09523 8.45995 6.01584 9.08689 6.95155 9.0881C 7.91257 9.08937 8.40816 8.46425 8.13704 7.66553C 7.87323 6.8884 6.95267 6.26147 5.99166 6.26022"/>
<path id="path16_fill" d="M 10.6683 13.4079L 6.11795 0.00244042L 4.24649 -1.12168e-06L -1.17773e-05 2.7564L 1.36805 4.03124L 4.64244 1.98564L 8.51871 13.4051L 4.24471 13.3996L 4.74298 14.8675L 14.7831 14.8805L 14.2848 13.4126L 10.6683 13.4079"/>
<path id="path17_fill" d="M 3.86676 6.72479e-06C 0.123868 -0.0048716 -0.892887 2.73416 0.77778 7.65598C 2.45579 12.5994 5.33369 15.3435 9.07659 15.3483C 12.8195 15.3532 13.8362 12.6142 12.1582 7.67076C 10.4876 2.74894 7.60965 0.00486651 3.86676 6.72479e-06M 4.36501 1.46792C 6.53993 1.47075 8.44522 3.28572 9.93268 7.66786C 11.4275 12.0716 10.7532 13.8832 8.57835 13.8804C 6.42871 13.8776 4.49812 12.0626 3.00329 7.65887C 1.51582 3.27673 2.21537 1.46513 4.36507 1.46792M 5.99176 6.26022C 5.05604 6.25905 4.5604 6.8841 4.8242 7.66123C 5.09533 8.45995 6.01597 9.08689 6.95168 9.08811C 7.9127 9.08937 8.40829 8.46425 8.13717 7.66553C 7.87335 6.8884 6.95277 6.26146 5.99176 6.26022"/>
<path id="path18_fill" d="M 3.86673 7.14521e-06C 0.123821 -0.00487118 -0.892846 2.73416 0.777812 7.65598C 2.45582 12.5994 5.33369 15.3435 9.0766 15.3483C 12.8195 15.3532 13.8362 12.6142 12.1582 7.67076C 10.4876 2.74894 7.60962 0.00486596 3.86673 7.14521e-06ZM 4.36498 1.46792C 6.53991 1.47075 8.44521 3.28572 9.93269 7.66787C 11.4275 12.0716 10.7533 13.8832 8.57835 13.8804C 6.42871 13.8776 4.49812 12.0626 3.00329 7.65887C 1.51583 3.27672 2.21539 1.46513 4.36498 1.46792M 5.99164 6.26022C 5.05592 6.25905 4.56033 6.88411 4.82411 7.66124C 5.09525 8.45995 6.01585 9.0869 6.95157 9.08811C 7.91259 9.08938 8.40819 8.46425 8.13706 7.66554C 7.87324 6.88841 6.95267 6.26147 5.99164 6.26022Z"/>
<path id="path19_fill" d="M 6.50188 14.537L 6.50188 -3.40953e-06L 4.77737 -3.40953e-06L -1.18531e-06 2.99636L 0.862255 4.37749L 4.52102 2.15363L 4.52102 14.537L 0.58261 14.537L 0.58261 16.1288L 9.83436 16.1288L 9.83436 14.537L 6.50188 14.537"/>
<path id="path20_fill" d="M 5.24343 -3.35e-06C 1.79442 -3.35e-06 -6.99809e-06 2.97295 -6.99809e-06 8.3102C -6.99809e-06 13.6709 1.79442 16.6438 5.24343 16.6438C 8.69245 16.6438 10.4869 13.6709 10.4869 8.3102C 10.4869 2.97295 8.69245 -3.35e-06 5.24343 -3.35e-06ZM 5.24343 1.59181C 7.24759 1.59181 8.43613 3.55817 8.43613 8.3102C 8.43613 13.0856 7.24759 15.052 5.24343 15.052C 3.26258 15.052 2.05076 13.0856 2.05076 8.3102C 2.05076 3.55817 3.26258 1.59181 5.24343 1.59181ZM 5.24343 6.78862C 4.38119 6.78862 3.72866 7.46748 3.72866 8.3102C 3.72866 9.17633 4.38119 9.8552 5.24343 9.8552C 6.12899 9.8552 6.78152 9.17633 6.78152 8.3102C 6.78152 7.46748 6.12899 6.78862 5.24343 6.78862Z"/>
<path id="path21_fill" d="M 5.24346 -3.35e-06C 1.79443 -3.35e-06 -1.18531e-05 2.97295 -1.18531e-05 8.3102C -1.18531e-05 13.6709 1.79443 16.6438 5.24346 16.6438C 8.69248 16.6438 10.4869 13.6709 10.4869 8.3102C 10.4869 2.97295 8.69248 -3.35e-06 5.24346 -3.35e-06ZM 5.24346 1.59181C 7.24762 1.59181 8.43613 3.55817 8.43613 8.3102C 8.43613 13.0856 7.24762 15.052 5.24346 15.052C 3.2626 15.052 2.05076 13.0856 2.05076 8.3102C 2.05076 3.55817 3.2626 1.59181 5.24346 1.59181ZM 5.24346 6.78862C 4.3812 6.78862 3.72869 7.46748 3.72869 8.3102C 3.72869 9.17633 4.3812 9.8552 5.24346 9.8552C 6.12902 9.8552 6.78152 9.17633 6.78152 8.3102C 6.78152 7.46748 6.12902 6.78862 5.24346 6.78862Z"/>
<path id="path22_fill" d="M 5.24346 -3.35e-06C 1.79444 -3.35e-06 -6.99809e-06 2.97295 -6.99809e-06 8.3102C -6.99809e-06 13.6709 1.79444 16.6438 5.24346 16.6438C 8.69247 16.6438 10.4869 13.6709 10.4869 8.3102C 10.4869 2.97295 8.69247 -3.35e-06 5.24346 -3.35e-06ZM 5.24346 1.59181C 7.24761 1.59181 8.4361 3.55817 8.4361 8.3102C 8.4361 13.0856 7.24761 15.052 5.24346 15.052C 3.2626 15.052 2.05076 13.0856 2.05076 8.3102C 2.05076 3.55817 3.2626 1.59181 5.24346 1.59181ZM 5.24346 6.78862C 4.38121 6.78862 3.72869 7.46748 3.72869 8.3102C 3.72869 9.17633 4.38121 9.8552 5.24346 9.8552C 6.12901 9.8552 6.78152 9.17633 6.78152 8.3102C 6.78152 7.46748 6.12901 6.78862 5.24346 6.78862Z"/>
<path id="path23_fill" d="M 5.24346 -3.35e-06C 1.79443 -3.35e-06 -1.18531e-05 2.97295 -1.18531e-05 8.3102C -1.18531e-05 13.6709 1.79443 16.6438 5.24346 16.6438C 8.69248 16.6438 10.4869 13.6709 10.4869 8.3102C 10.4869 2.97295 8.69248 -3.35e-06 5.24346 -3.35e-06ZM 5.24346 1.59181C 7.24762 1.59181 8.4361 3.55817 8.4361 8.3102C 8.4361 13.0856 7.24762 15.052 5.24346 15.052C 3.2626 15.052 2.05076 13.0856 2.05076 8.3102C 2.05076 3.55817 3.2626 1.59181 5.24346 1.59181ZM 5.24346 6.78862C 4.3812 6.78862 3.72869 7.46748 3.72869 8.3102C 3.72869 9.17633 4.3812 9.8552 5.24346 9.8552C 6.12902 9.8552 6.78152 9.17633 6.78152 8.3102C 6.78152 7.46748 6.12902 6.78862 5.24346 6.78862Z"/>
<path id="path24_fill" d="M 5.24346 -4.23869e-07C 1.79443 -4.23869e-07 -1.18531e-05 2.97295 -1.18531e-05 8.3102C -1.18531e-05 13.6709 1.79443 16.6438 5.24346 16.6438C 8.69248 16.6438 10.4869 13.6709 10.4869 8.3102C 10.4869 2.97295 8.69248 -4.23869e-07 5.24346 -4.23869e-07M 5.24346 1.59182C 7.24762 1.59182 8.43613 3.55818 8.43613 8.3102C 8.43613 13.0856 7.24762 15.052 5.24346 15.052C 3.2626 15.052 2.05076 13.0856 2.05076 8.3102C 2.05076 3.55818 3.2626 1.59182 5.24346 1.59182ZM 5.24346 6.78861C 4.3812 6.78861 3.72869 7.46747 3.72869 8.3102C 3.72869 9.17633 4.3812 9.8552 5.24346 9.8552C 6.12902 9.8552 6.78152 9.17633 6.78152 8.3102C 6.78152 7.46747 6.12902 6.78861 5.24346 6.78861Z"/>
<path id="path25_fill" d="M 6.50186 14.537L 6.50186 -4.83401e-07L 4.77735 -4.83401e-07L 3.66973e-06 2.99635L 0.86226 4.37748L 4.52102 2.15363L 4.52102 14.537L 0.582615 14.537L 0.582615 16.1288L 9.8344 16.1288L 9.8344 14.537L 6.50186 14.537"/>
<path id="path26_fill" d="M 5.24346 -4.23869e-07C 1.79444 -4.23869e-07 -6.99809e-06 2.97295 -6.99809e-06 8.3102C -6.99809e-06 13.6709 1.79444 16.6438 5.24346 16.6438C 8.69247 16.6438 10.4869 13.6709 10.4869 8.3102C 10.4869 2.97295 8.69247 -4.23869e-07 5.24346 -4.23869e-07M 5.24346 1.59182C 7.24761 1.59182 8.4361 3.55818 8.4361 8.3102C 8.4361 13.0856 7.24761 15.052 5.24346 15.052C 3.2626 15.052 2.05076 13.0856 2.05076 8.3102C 2.05076 3.55818 3.2626 1.59182 5.24346 1.59182ZM 5.24346 6.78861C 4.38121 6.78861 3.72869 7.46747 3.72869 8.3102C 3.72869 9.17633 4.38121 9.8552 5.24346 9.8552C 6.12901 9.8552 6.78152 9.17633 6.78152 8.3102C 6.78152 7.46747 6.12901 6.78861 5.24346 6.78861Z"/>
<path id="path27_fill" d="M 5.24346 -4.23869e-07C 1.79443 -4.23869e-07 -1.18531e-05 2.97295 -1.18531e-05 8.3102C -1.18531e-05 13.6709 1.79443 16.6438 5.24346 16.6438C 8.69248 16.6438 10.4869 13.6709 10.4869 8.3102C 10.4869 2.97295 8.69248 -4.23869e-07 5.24346 -4.23869e-07M 5.24346 1.59182C 7.24762 1.59182 8.4361 3.55818 8.4361 8.3102C 8.4361 13.0856 7.24762 15.052 5.24346 15.052C 3.2626 15.052 2.05076 13.0856 2.05076 8.3102C 2.05076 3.55818 3.2626 1.59182 5.24346 1.59182ZM 5.24346 6.78861C 4.3812 6.78861 3.72869 7.46747 3.72869 8.3102C 3.72869 9.17633 4.3812 9.8552 5.24346 9.8552C 6.12902 9.8552 6.78152 9.17633 6.78152 8.3102C 6.78152 7.46747 6.12902 6.78861 5.24346 6.78861Z"/>
<path id="path28_fill" d="M 5.24346 -4.23869e-07C 1.79443 -4.23869e-07 -1.18531e-05 2.97296 -1.18531e-05 8.3102C -1.18531e-05 13.6709 1.79443 16.6438 5.24346 16.6438C 8.69248 16.6438 10.4869 13.6709 10.4869 8.3102C 10.4869 2.97296 8.69248 -4.23869e-07 5.24346 -4.23869e-07ZM 5.24346 1.59182C 7.24762 1.59182 8.43613 3.55818 8.43613 8.3102C 8.43613 13.0856 7.24762 15.052 5.24346 15.052C 3.2626 15.052 2.05076 13.0856 2.05076 8.3102C 2.05076 3.55818 3.2626 1.59182 5.24346 1.59182ZM 5.24346 6.78862C 4.3812 6.78862 3.72869 7.46748 3.72869 8.3102C 3.72869 9.17634 4.3812 9.8552 5.24346 9.8552C 6.12902 9.8552 6.78152 9.17634 6.78152 8.3102C 6.78152 7.46748 6.12902 6.78862 5.24346 6.78862Z"/>
<path id="path29_fill" d="M 5.24343 -4.23869e-07C 1.79442 -4.23869e-07 -6.99809e-06 2.97296 -6.99809e-06 8.3102C -6.99809e-06 13.6709 1.79442 16.6438 5.24343 16.6438C 8.69245 16.6438 10.4869 13.6709 10.4869 8.3102C 10.4869 2.97296 8.69245 -4.23869e-07 5.24343 -4.23869e-07ZM 5.24343 1.59182C 7.24759 1.59182 8.43613 3.55818 8.43613 8.3102C 8.43613 13.0856 7.24759 15.052 5.24343 15.052C 3.26258 15.052 2.05076 13.0856 2.05076 8.3102C 2.05076 3.55818 3.26258 1.59182 5.24343 1.59182ZM 5.24343 6.78862C 4.38119 6.78862 3.72866 7.46748 3.72866 8.3102C 3.72866 9.17634 4.38119 9.8552 5.24343 9.8552C 6.12899 9.8552 6.78152 9.17634 6.78152 8.3102C 6.78152 7.46748 6.12899 6.78862 5.24343 6.78862Z"/>
<path id="path30_fill" d="M 5.24346 -4.23869e-07C 1.79444 -4.23869e-07 -6.99809e-06 2.97296 -6.99809e-06 8.3102C -6.99809e-06 13.6709 1.79444 16.6438 5.24346 16.6438C 8.69247 16.6438 10.4869 13.6709 10.4869 8.3102C 10.4869 2.97296 8.69247 -4.23869e-07 5.24346 -4.23869e-07ZM 5.24346 1.59182C 7.24761 1.59182 8.4361 3.55818 8.4361 8.3102C 8.4361 13.0856 7.24761 15.052 5.24346 15.052C 3.2626 15.052 2.05076 13.0856 2.05076 8.3102C 2.05076 3.55818 3.2626 1.59182 5.24346 1.59182ZM 5.24346 6.78862C 4.38121 6.78862 3.72869 7.46748 3.72869 8.3102C 3.72869 9.17634 4.38121 9.8552 5.24346 9.8552C 6.12901 9.8552 6.78152 9.17634 6.78152 8.3102C 6.78152 7.46748 6.12901 6.78862 5.24346 6.78862Z"/>
<path id="path31_fill" d="M 6.50188 14.537L 6.50188 6.95812e-06L 4.77737 6.95812e-06L 2.84475e-05 2.99635L 0.862284 4.37748L 4.52099 2.15363L 4.52099 14.537L 0.58261 14.537L 0.58261 16.1288L 9.83439 16.1288L 9.83439 14.537L 6.50188 14.537"/>
<path id="path32_fill" d="M 6.50189 14.537L 6.50189 6.95812e-06L 4.77738 6.95812e-06L -2.59631e-05 2.99635L 0.86223 4.37748L 4.52105 2.15363L 4.52105 14.537L 0.582615 14.537L 0.582615 16.1288L 9.8344 16.1288L 9.8344 14.537L 6.50189 14.537Z"/>
<path id="path33_fill" d="M 5.24346 -4.23869e-07C 1.79443 -4.23869e-07 -1.18531e-05 2.97296 -1.18531e-05 8.3102C -1.18531e-05 13.6709 1.79443 16.6438 5.24346 16.6438C 8.69248 16.6438 10.4869 13.6709 10.4869 8.3102C 10.4869 2.97296 8.69248 -4.23869e-07 5.24346 -4.23869e-07ZM 5.24346 1.59182C 7.24762 1.59182 8.4361 3.55818 8.4361 8.3102C 8.4361 13.0856 7.24762 15.052 5.24346 15.052C 3.2626 15.052 2.05076 13.0856 2.05076 8.3102C 2.05076 3.55818 3.2626 1.59182 5.24346 1.59182ZM 5.24346 6.78862C 4.3812 6.78862 3.72869 7.46748 3.72869 8.3102C 3.72869 9.17634 4.3812 9.8552 5.24346 9.8552C 6.12902 9.8552 6.78152 9.17634 6.78152 8.3102C 6.78152 7.46748 6.12902 6.78862 5.24346 6.78862Z"/>
<path id="path34_fill" d="M 6.50188 14.537L 6.50188 6.95812e-06L 4.77737 6.95812e-06L -1.18531e-06 2.99635L 0.862255 4.37748L 4.52102 2.15363L 4.52102 14.537L 0.58261 14.537L 0.58261 16.1288L 9.83436 16.1288L 9.83436 14.537L 6.50188 14.537"/>
<path id="path35_fill" d="M 6.50186 14.537L 6.50186 6.95812e-06L 4.77735 6.95812e-06L 3.66973e-06 2.99635L 0.86226 4.37748L 4.52102 2.15363L 4.52102 14.537L 0.582615 14.537L 0.582615 16.1288L 9.8344 16.1288L 9.8344 14.537L 6.50186 14.537"/>
<path id="path36_fill" d="M 0 0L 0.333776 1.31108L 53.1311 200.168L 53.3132 200.839L 53.9807 200.9L 281.616 216.785L 282.982 216.877L 282.618 215.566L 280.493 207.516L 280.311 206.846L 279.614 206.785L 60.2315 191.479L 9.77054 1.34157L 9.58848 0.670785L 8.89059 0.609804L 1.33511 0.0914706L 0 5.95512e-05L 0 0ZM 2.54884 2.13432L 8.07132 2.5002L 58.5322 192.637L 58.7143 193.338L 59.3818 193.369L 278.794 208.675L 280.372 214.743L 54.8 199.01L 2.54884 2.13426L 2.54884 2.13432Z"/>
<path id="path37_fill" d="M 0 0L 0.333776 1.31108L 53.1008 200.168L 53.2828 200.839L 53.9807 200.9L 281.616 216.785L 282.951 216.877L 282.618 215.566L 280.493 207.516L 280.311 206.846L 279.614 206.785L 60.2011 191.478L 9.7402 1.34151L 9.55814 0.670725L 8.89059 0.609745L 1.33511 0.0914111L 0 0ZM 2.54884 2.13432L 8.04098 2.5002L 58.5019 192.637L 58.6839 193.338L 59.3818 193.369L 278.794 208.675L 280.372 214.743L 54.8 199.01L 2.54884 2.13426L 2.54884 2.13432Z"/>
</defs>
</svg>
