<svg width="1000" height="750" viewBox="0 0 1000 750" version="2.0" xmlns="http://www.w3.org/2000/svg" xmlns:xlink="http://www.w3.org/1999/xlink" xmlns:figma="http://www.figma.com/figma/ns">
<title>group_acronym-4x3.svg</title>
<desc>Created using Figma 0.90</desc>
<g id="Canvas" transform="matrix(2 0 0 2 -2200 0)" figma:type="canvas">
<mask id="mask0_alpha" mask-type="alpha">
<path d="M 1100 0L 1600 0L 1600 375L 1100 375L 1100 0Z" fill="#FFFFFF"/>
</mask>
<g id="group_acronym-4x3" style="mix-blend-mode:normal;" mask="url(#mask0_alpha)" figma:type="frame">
<g id="bg" style="mix-blend-mode:normal;" figma:type="rounded-rectangle">
<use xlink:href="#path0_fill" transform="translate(1100 0)" style="mix-blend-mode:normal;"/>
</g>
<g id="label" style="mix-blend-mode:normal;" figma:type="text">
<use xlink:href="#path1_fill" transform="translate(1181 142)" fill="#FFFFFF" style="mix-blend-mode:normal;"/>
</g>
</g>
</g>
<defs>
<path id="path0_fill" d="M 0 0L 500 0L 500 375L 0 375L 0 0Z"/>
<path id="path1_fill" d="M 31.65 9.25C 29.5 5.5 24.2 1.85 17.4 1.85C 14.2 1.85 10.85 2.5 8.25 4.15C 5.6 5.8 3.8 8.6 3.8 12C 3.8 19 10.2 21 13.1 21.5L 20.75 22.95C 24.4 23.7 26.35 24.9 26.35 27.3C 26.35 30.95 23.05 32.8 18.45 32.8C 13.05 32.8 9.3 30.15 7.15 24.85L 2.2 28.1C 3.15 30.9 4.95 33.1 7.35 34.85C 10.35 37 14.1 38.15 18.1 38.15C 22.7 38.15 26.3 37.2 28.85 35.05C 30.9 33.3 32.5 30.4 32.5 27.2C 32.5 20.15 27.45 18.3 22.1 17.25L 15.25 15.95C 12.25 15.4 9.95 14.15 9.95 11.8C 9.95 8.85 13.7 7.4 17.5 7.4C 21.35 7.4 25.15 9.95 26.9 12.9L 31.65 9.25ZM 39.4133 37.5L 45.5133 37.5L 45.5133 22.5L 54.5133 22.5C 62.3633 22.5 67.0633 19.3 67.0633 12.3C 67.0633 5.65 62.5133 2.5 54.4633 2.5L 39.4133 2.5L 39.4133 37.5ZM 60.9633 12.4C 60.9633 15.8 58.9133 17.35 54.5133 17.35L 45.5133 17.35L 45.5133 7.65L 54.5133 7.65C 58.9133 7.65 60.9633 9 60.9633 12.4ZM 72.3164 37.5L 97.0164 37.5L 97.0164 32L 78.4164 32L 78.4164 21.9L 93.4664 21.9L 93.4664 16.6L 78.4164 16.6L 78.4164 8L 96.7164 8L 96.7164 2.5L 72.3164 2.5L 72.3164 37.5ZM 130.373 25C 129.173 29.2 124.873 32.3 119.723 32.3C 112.523 32.3 107.623 26.65 107.623 20C 107.623 13.3 112.573 7.55 119.773 7.55C 125.123 7.55 129.273 10.8 130.373 15L 136.773 15C 135.323 7.55 128.323 1.85 119.673 1.85C 109.123 1.85 101.523 9.95 101.523 20C 101.523 30 109.123 38.15 119.673 38.15C 128.323 38.15 135.323 32.55 136.773 25L 130.373 25ZM 170.308 2.5L 164.208 2.5L 164.208 22.8C 164.208 26.3 163.958 27.7 163.408 28.9C 162.358 31.35 160.108 32.55 156.658 32.55C 153.258 32.55 150.808 31.45 149.658 28.9C 149.108 27.55 148.858 26.25 148.858 22.8L 148.858 2.5L 142.758 2.5L 142.758 22.9C 142.758 28.1 143.258 30.25 144.608 32.5C 146.858 36.5 151.258 38.15 156.658 38.15C 161.908 38.15 166.208 36.5 168.458 32.5C 169.808 30.25 170.308 28.1 170.308 22.9L 170.308 2.5ZM 202.127 37.5L 202.127 31.95L 184.527 31.95L 184.527 2.5L 178.427 2.5L 178.427 37.5L 202.127 37.5ZM 226.069 28.85L 228.969 37.5L 234.969 37.5L 223.069 2.5L 215.269 2.5L 203.369 37.5L 209.369 37.5L 212.269 28.85L 226.069 28.85ZM 214.169 23.35L 219.169 8.35L 224.169 23.35L 214.169 23.35ZM 234.002 8L 244.902 8L 244.902 37.5L 251.002 37.5L 251.002 8L 261.902 8L 261.902 2.5L 234.002 2.5L 234.002 8ZM 267.146 37.5L 273.246 37.5L 273.246 2.5L 267.146 2.5L 267.146 37.5ZM 308.184 2.5L 301.384 2.5L 293.384 28.25L 285.334 2.5L 278.334 2.5L 290.634 37.5L 296.034 37.5L 308.184 2.5ZM 311.818 37.5L 336.518 37.5L 336.518 32L 317.918 32L 317.918 21.9L 332.968 21.9L 332.968 16.6L 317.918 16.6L 317.918 8L 336.218 8L 336.218 2.5L 311.818 2.5L 311.818 37.5ZM 38.2 87.5L 38.2 69.15L 26.9 69.15L 26.9 75L 31.85 75C 30.8 79.4 25.95 82.35 20.7 82.35C 13.55 82.35 8.25 76.95 8.5 70C 8.65 63.05 13.55 57.55 20.7 57.55C 25.65 57.55 30 60.6 31.05 64.55L 37.85 64.55C 36.25 57 29.75 51.85 20.65 51.85C 10.1 51.85 2.5 59.95 2.5 70C 2.5 80 10.1 88.15 20.65 88.15C 26.7 88.15 30.65 86.45 33.7 82.6L 34.5 87.5L 38.2 87.5ZM 45.8457 87.5L 51.9457 87.5L 51.9457 72.5L 58.2957 72.5C 62.2457 72.5 64.1957 75.1 64.4457 77.75C 64.8457 82.15 64.7957 85.9 66.6457 87.5L 73.5457 87.5C 73.5457 85.35 71.3957 87.3 70.5957 76.75C 70.3457 74.05 68.9957 71.15 64.9457 70.35C 66.3457 70.35 73.6457 69.8 73.6457 62.2C 73.6457 54.05 67.1957 52.5 61.4457 52.5L 45.8457 52.5L 45.8457 87.5ZM 67.4957 62.35C 67.4957 65.75 65.1457 67.35 60.9457 67.35L 51.9457 67.35L 51.9457 57.65L 60.9457 57.65C 65.1457 57.65 67.4957 58.95 67.4957 62.35ZM 84.2289 70C 84.2289 63.3 89.1789 57.55 96.3789 57.55C 103.429 57.55 108.329 63.3 108.329 70C 108.329 76.65 103.429 82.3 96.3289 82.3C 89.1289 82.3 84.2289 76.65 84.2289 70ZM 78.1289 70C 78.1289 80 85.7289 88.15 96.2789 88.15C 106.829 88.15 114.429 80 114.429 70C 114.429 59.95 106.829 51.85 96.2789 51.85C 85.7289 51.85 78.1289 59.95 78.1289 70ZM 147.749 52.5L 141.649 52.5L 141.649 72.8C 141.649 76.3 141.399 77.7 140.849 78.9C 139.799 81.35 137.549 82.55 134.099 82.55C 130.699 82.55 128.249 81.45 127.099 78.9C 126.549 77.55 126.299 76.25 126.299 72.8L 126.299 52.5L 120.199 52.5L 120.199 72.9C 120.199 78.1 120.699 80.25 122.049 82.5C 124.299 86.5 128.699 88.15 134.099 88.15C 139.349 88.15 143.649 86.5 145.899 82.5C 147.249 80.25 147.749 78.1 147.749 72.9L 147.749 52.5ZM 155.868 87.5L 161.968 87.5L 161.968 72.5L 170.968 72.5C 178.818 72.5 183.518 69.3 183.518 62.3C 183.518 55.65 178.968 52.5 170.918 52.5L 155.868 52.5L 155.868 87.5ZM 177.418 62.4C 177.418 65.8 175.368 67.35 170.968 67.35L 161.968 67.35L 161.968 57.65L 170.968 57.65C 175.368 57.65 177.418 59 177.418 62.4Z"/>
</defs>
</svg>
