<svg width="1000" height="1000" viewBox="0 0 1000 1000" version="1.1" xmlns="http://www.w3.org/2000/svg" xmlns:xlink="http://www.w3.org/1999/xlink" xmlns:figma="http://www.figma.com/figma/ns">
<title>kc-1x1</title>
<desc>Created using Figma</desc>
<g id="Canvas" transform="matrix(2 0 0 2 -1100 -2158)" figma:type="canvas">
<mask id="mask0_alpha" mask-type="alpha">
<path d="M 550 1079L 1050 1079L 1050 1579L 550 1579L 550 1079Z" fill="#FFFFFF"/>
</mask>
<g id="kc-1x1" style="mix-blend-mode:normal;" mask="url(#mask0_alpha)" figma:type="frame">
<g id="bg" style="mix-blend-mode:normal;" figma:type="rounded-rectangle">
<use xlink:href="#path0_fill" transform="translate(550 1079)" fill="#F9423A" style="mix-blend-mode:normal;"/>
</g>
<g id="Kid&#226;&#128;&#153;s Club" style="mix-blend-mode:normal;" figma:type="text">
<use xlink:href="#path1_fill" transform="translate(654 1297)" fill="#FFFFFF" style="mix-blend-mode:normal;"/>
</g>
</g>
</g>
<defs>
<path id="path0_fill" d="M 0 250C 0 111.929 111.929 0 250 0C 388.071 0 500 111.929 500 250C 500 388.071 388.071 500 250 500C 111.929 500 0 388.071 0 250Z"/>
<path id="path1_fill" d="M 17.6333 40.0103L 11.8101 46.0625L 11.8101 62.1582L 5.52881 62.1582L 5.52881 14.5254L 11.8101 14.5254L 11.8101 38.0801L 32.9766 14.5254L 40.5664 14.5254L 21.8208 35.561L 42.0386 62.1582L 34.5142 62.1582L 17.6333 40.0103ZM 53.1616 62.1582L 47.1094 62.1582L 47.1094 26.7607L 53.1616 26.7607L 53.1616 62.1582ZM 46.6187 17.3716C 46.6187 16.3901 46.9131 15.5614 47.502 14.8853C 48.1126 14.2091 49.0068 13.8711 50.1846 13.8711C 51.3623 13.8711 52.2565 14.2091 52.8672 14.8853C 53.4779 15.5614 53.7832 16.3901 53.7832 17.3716C 53.7832 18.353 53.4779 19.1709 52.8672 19.8252C 52.2565 20.4795 51.3623 20.8066 50.1846 20.8066C 49.0068 20.8066 48.1126 20.4795 47.502 19.8252C 46.9131 19.1709 46.6187 18.353 46.6187 17.3716ZM 61.4058 44.165C 61.4058 38.7344 62.6925 34.3724 65.2661 31.0791C 67.8397 27.764 71.2093 26.1064 75.375 26.1064C 79.5189 26.1064 82.8013 27.5241 85.2222 30.3594L 85.2222 11.9082L 91.2744 11.9082L 91.2744 62.1582L 85.7129 62.1582L 85.4185 58.3633C 82.9976 61.3294 79.6279 62.8125 75.3096 62.8125C 71.2093 62.8125 67.8615 61.1331 65.2661 57.7744C 62.6925 54.4157 61.4058 50.0319 61.4058 44.623L 61.4058 44.165ZM 67.458 44.8521C 67.458 48.8651 68.2868 52.0057 69.9443 54.2739C 71.6019 56.5422 73.8919 57.6763 76.8145 57.6763C 80.653 57.6763 83.4556 55.9533 85.2222 52.5073L 85.2222 36.248C 83.4119 32.9111 80.6312 31.2427 76.8799 31.2427C 73.9137 31.2427 71.6019 32.3877 69.9443 34.6777C 68.2868 36.9678 67.458 40.3592 67.458 44.8521ZM 101.122 27.9385L 97.6865 25.583C 99.7148 22.7477 100.762 19.7598 100.827 16.6191L 100.827 11.9082L 106.814 11.9082L 106.814 16.1611C 106.792 18.3421 106.247 20.5231 105.178 22.7041C 104.131 24.8633 102.779 26.6081 101.122 27.9385ZM 131.056 52.769C 131.056 51.1333 130.434 49.8683 129.191 48.9741C 127.97 48.0581 125.821 47.2729 122.746 46.6187C 119.693 45.9644 117.261 45.1792 115.451 44.2632C 113.662 43.3472 112.332 42.2567 111.459 40.9917C 110.609 39.7267 110.184 38.2218 110.184 36.4771C 110.184 33.5763 111.405 31.1227 113.848 29.1162C 116.312 27.1097 119.453 26.1064 123.27 26.1064C 127.283 26.1064 130.532 27.1424 133.019 29.2144C 135.527 31.2863 136.781 33.9362 136.781 37.1641L 130.696 37.1641C 130.696 35.5065 129.987 34.078 128.569 32.8784C 127.174 31.6789 125.407 31.0791 123.27 31.0791C 121.067 31.0791 119.344 31.5589 118.101 32.5186C 116.857 33.4782 116.236 34.7323 116.236 36.2808C 116.236 37.742 116.814 38.8434 117.97 39.585C 119.126 40.3265 121.208 41.0353 124.218 41.7114C 127.25 42.3875 129.703 43.1945 131.579 44.1323C 133.455 45.0702 134.84 46.2043 135.734 47.5347C 136.65 48.8433 137.108 50.4463 137.108 52.3438C 137.108 55.5062 135.843 58.047 133.313 59.9663C 130.783 61.8638 127.501 62.8125 123.466 62.8125C 120.631 62.8125 118.122 62.3109 115.941 61.3076C 113.76 60.3044 112.048 58.9085 110.805 57.1201C 109.584 55.3099 108.973 53.3579 108.973 51.2642L 115.025 51.2642C 115.134 53.2925 115.941 54.9064 117.446 56.106C 118.973 57.2837 120.979 57.8726 123.466 57.8726C 125.756 57.8726 127.588 57.4146 128.962 56.4985C 130.358 55.5607 131.056 54.3175 131.056 52.769ZM 197.598 47.0439C 197.009 52.082 195.144 55.9751 192.003 58.7231C 188.885 61.4494 184.73 62.8125 179.539 62.8125C 173.912 62.8125 169.397 60.7951 165.995 56.7603C 162.615 52.7254 160.924 47.3275 160.924 40.5664L 160.924 35.9863C 160.924 31.5589 161.709 27.6659 163.28 24.3071C 164.872 20.9484 167.118 18.3748 170.019 16.5864C 172.92 14.7762 176.278 13.8711 180.095 13.8711C 185.155 13.8711 189.212 15.2887 192.265 18.124C 195.319 20.9375 197.096 24.8415 197.598 29.8359L 191.284 29.8359C 190.738 26.041 189.55 23.293 187.718 21.5918C 185.908 19.8906 183.367 19.04 180.095 19.04C 176.082 19.04 172.931 20.5231 170.641 23.4893C 168.372 26.4554 167.238 30.6756 167.238 36.1499L 167.238 40.7627C 167.238 45.9316 168.318 50.0428 170.477 53.0962C 172.636 56.1496 175.657 57.6763 179.539 57.6763C 183.029 57.6763 185.7 56.8911 187.554 55.3208C 189.43 53.7287 190.673 50.9697 191.284 47.0439L 197.598 47.0439ZM 211.829 62.1582L 205.776 62.1582L 205.776 11.9082L 211.829 11.9082L 211.829 62.1582ZM 243.398 58.6577C 241.043 61.4276 237.586 62.8125 233.028 62.8125C 229.255 62.8125 226.376 61.722 224.391 59.541C 222.428 57.3382 221.436 54.0885 221.414 49.792L 221.414 26.7607L 227.466 26.7607L 227.466 49.6284C 227.466 54.9937 229.647 57.6763 234.009 57.6763C 238.633 57.6763 241.708 55.9533 243.235 52.5073L 243.235 26.7607L 249.287 26.7607L 249.287 62.1582L 243.529 62.1582L 243.398 58.6577ZM 288.479 44.8521C 288.479 50.2609 287.236 54.612 284.75 57.9053C 282.264 61.1768 278.927 62.8125 274.739 62.8125C 270.268 62.8125 266.811 61.2313 264.369 58.0688L 264.074 62.1582L 258.513 62.1582L 258.513 11.9082L 264.565 11.9082L 264.565 30.6538C 267.008 27.6222 270.377 26.1064 274.674 26.1064C 278.97 26.1064 282.34 27.7313 284.783 30.981C 287.247 34.2306 288.479 38.6798 288.479 44.3286L 288.479 44.8521ZM 282.427 44.165C 282.427 40.043 281.631 36.8587 280.039 34.6123C 278.447 32.3659 276.157 31.2427 273.169 31.2427C 269.178 31.2427 266.31 33.0965 264.565 36.8042L 264.565 52.1147C 266.419 55.8224 269.309 57.6763 273.234 57.6763C 276.135 57.6763 278.392 56.5531 280.006 54.3066C 281.62 52.0602 282.427 48.6797 282.427 44.165Z"/>
</defs>
</svg>
