<svg width="1000" height="1334" viewBox="0 0 1000 1334" version="2.0" xmlns="http://www.w3.org/2000/svg" xmlns:xlink="http://www.w3.org/1999/xlink" xmlns:figma="http://www.figma.com/figma/ns">
<title>momm-3x4.svg</title>
<desc>Created using Figma 0.90</desc>
<g id="Canvas" transform="matrix(2 0 0 2 -2200 -2158)" figma:type="canvas">
<mask id="mask0_alpha" mask-type="alpha">
<path d="M 1100 1079L 1600 1079L 1600 1746L 1100 1746L 1100 1079Z" fill="#FFFFFF"/>
</mask>
<g id="momm-3x4" style="mix-blend-mode:normal;" mask="url(#mask0_alpha)" figma:type="frame">
<g id="Mass Manufacture" style="mix-blend-mode:normal;" figma:type="frame">
<g id="label" style="mix-blend-mode:normal;" figma:type="text">
<use xlink:href="#path0_fill" transform="translate(1146 1599)" fill="#231E1E" style="mix-blend-mode:normal;"/>
</g>
<g id="label" style="mix-blend-mode:normal;" figma:type="text">
<use xlink:href="#path1_fill" transform="translate(1267 1649)" fill="#231E1E" style="mix-blend-mode:normal;"/>
</g>
</g>
<g id="Methods of" style="mix-blend-mode:normal;" figma:type="frame">
<g id="label" style="mix-blend-mode:normal;" figma:type="text">
<use xlink:href="#path2_fill" transform="translate(1228 1159.97)" fill="#231E1E" style="mix-blend-mode:normal;"/>
</g>
<g id="label" style="mix-blend-mode:normal;" figma:type="text">
<use xlink:href="#path3_fill" transform="translate(1427 1109.97)" fill="#231E1E" style="mix-blend-mode:normal;"/>
</g>
</g>
<g id="concave" style="mix-blend-mode:normal;" figma:type="frame">
<g id="Vector" style="mix-blend-mode:normal;" figma:type="vector">
<use xlink:href="#path4_stroke" transform="translate(1270.68 1422.73)" fill="#231E1E" style="mix-blend-mode:normal;"/>
</g>
<g id="Vector" style="mix-blend-mode:normal;" figma:type="vector">
<use xlink:href="#path5_stroke" transform="translate(1261.23 1418.35)" fill="#231E1E" style="mix-blend-mode:normal;"/>
</g>
<g id="Vector" style="mix-blend-mode:normal;" figma:type="vector">
<use xlink:href="#path6_stroke" transform="translate(1399.84 1418.58)" fill="#231E1E" style="mix-blend-mode:normal;"/>
</g>
<g id="Vector" style="mix-blend-mode:normal;" figma:type="vector">
<use xlink:href="#path7_stroke" transform="translate(1304.42 1496.6)" fill="#231E1E" style="mix-blend-mode:normal;"/>
</g>
<g id="Vector" style="mix-blend-mode:normal;" figma:type="vector">
<use xlink:href="#path8_stroke" transform="translate(1305.37 1544.9)" fill="#231E1E" style="mix-blend-mode:normal;"/>
</g>
<g id="Vector" style="mix-blend-mode:normal;" figma:type="vector">
<use xlink:href="#path9_stroke" transform="translate(1486.27 1456.59)" fill="#231E1E" style="mix-blend-mode:normal;"/>
</g>
<g id="Vector" style="mix-blend-mode:normal;" figma:type="vector">
<use xlink:href="#path10_stroke" transform="translate(1304.42 1456.59)" fill="#231E1E" style="mix-blend-mode:normal;"/>
</g>
<g id="Vector" style="mix-blend-mode:normal;" figma:type="vector">
<use xlink:href="#path11_stroke" transform="translate(1207.22 1434.21)" fill="#231E1E" style="mix-blend-mode:normal;"/>
</g>
<g id="Vector" style="mix-blend-mode:normal;" figma:type="vector">
<use xlink:href="#path12_stroke" transform="translate(1210.42 1517.32)" fill="#231E1E" style="mix-blend-mode:normal;"/>
</g>
<g id="Vector" style="mix-blend-mode:normal;" figma:type="vector">
<use xlink:href="#path13_stroke" transform="translate(1207.22 1434.21)" fill="#231E1E" style="mix-blend-mode:normal;"/>
</g>
<g id="Vector" style="mix-blend-mode:normal;" figma:type="vector">
<use xlink:href="#path14_stroke" transform="translate(1220.24 1414.91)" fill="#231E1E" style="mix-blend-mode:normal;"/>
</g>
<g id="Vector" style="mix-blend-mode:normal;" figma:type="vector">
<use xlink:href="#path15_stroke" transform="translate(1220.24 1425.69)" fill="#231E1E" style="mix-blend-mode:normal;"/>
</g>
<g id="Vector" style="mix-blend-mode:normal;" figma:type="vector">
<use xlink:href="#path16_stroke" transform="translate(1308.92 1445.34)" fill="#231E1E" style="mix-blend-mode:normal;"/>
</g>
<g id="Vector" style="mix-blend-mode:normal;" figma:type="vector">
<use xlink:href="#path17_stroke" transform="translate(1404.22 1414.56)" fill="#231E1E" style="mix-blend-mode:normal;"/>
</g>
<g id="Vector" style="mix-blend-mode:normal;" figma:type="vector">
<use xlink:href="#path18_stroke" transform="translate(1475.73 1445.34)" fill="#231E1E" style="mix-blend-mode:normal;"/>
</g>
<g id="Vector" style="mix-blend-mode:normal;" figma:type="vector">
<use xlink:href="#path19_stroke" transform="translate(1304.42 1479.79)" fill="#231E1E" style="mix-blend-mode:normal;"/>
</g>
<g id="Vector" style="mix-blend-mode:normal;" figma:type="vector">
<use xlink:href="#path20_stroke" transform="translate(1207.22 1425.69)" fill="#231E1E" style="mix-blend-mode:normal;"/>
</g>
</g>
<g id="convex" style="mix-blend-mode:normal;" figma:type="frame">
<g id="Vector" style="mix-blend-mode:normal;" figma:type="vector">
<use xlink:href="#path21_stroke" transform="translate(1495.38 1253.43)" fill="#0066FF" style="mix-blend-mode:normal;"/>
</g>
<g id="Vector" style="mix-blend-mode:normal;" figma:type="vector">
<use xlink:href="#path22_stroke" transform="translate(1302.41 1253.43)" fill="#0066FF" style="mix-blend-mode:normal;"/>
</g>
<g id="Vector" style="mix-blend-mode:normal;" figma:type="vector">
<use xlink:href="#path23_stroke" transform="translate(1302.41 1270.6)" fill="#0066FF" style="mix-blend-mode:normal;"/>
</g>
<g id="Vector" style="mix-blend-mode:normal;" figma:type="vector">
<use xlink:href="#path24_stroke" transform="translate(1376.16 1232)" fill="#0066FF" style="mix-blend-mode:normal;"/>
</g>
<g id="Vector" style="mix-blend-mode:normal;" figma:type="vector">
<use xlink:href="#path25_stroke" transform="translate(1200 1243.96)" fill="#0066FF" style="mix-blend-mode:normal;"/>
</g>
<g id="Vector" style="mix-blend-mode:normal;" figma:type="vector">
<use xlink:href="#path26_stroke" transform="translate(1200 1232)" fill="#0066FF" style="mix-blend-mode:normal;"/>
</g>
<g id="Vector" style="mix-blend-mode:normal;" figma:type="vector">
<use xlink:href="#path27_stroke" transform="translate(1203.55 1336.66)" fill="#0066FF" style="mix-blend-mode:normal;"/>
</g>
<g id="Vector" style="mix-blend-mode:normal;" figma:type="vector">
<use xlink:href="#path28_stroke" transform="translate(1200 1243.96)" fill="#0066FF" style="mix-blend-mode:normal;"/>
</g>
<g id="Vector" style="mix-blend-mode:normal;" figma:type="vector">
<use xlink:href="#path29_stroke" transform="translate(1217.52 1347.43)" fill="#0066FF" style="mix-blend-mode:normal;"/>
</g>
<g id="Vector" style="mix-blend-mode:normal;" figma:type="vector">
<use xlink:href="#path30_stroke" transform="translate(1308.21 1362.47)" fill="#0066FF" style="mix-blend-mode:normal;"/>
</g>
<g id="Vector" style="mix-blend-mode:normal;" figma:type="vector">
<use xlink:href="#path31_stroke" transform="translate(1303.35 1381.41)" fill="#0066FF" style="mix-blend-mode:normal;"/>
</g>
<g id="Vector" style="mix-blend-mode:normal;" figma:type="vector">
<use xlink:href="#path32_stroke" transform="translate(1479.28 1352.76)" fill="#0066FF" style="mix-blend-mode:normal;"/>
</g>
<g id="Vector" style="mix-blend-mode:normal;" figma:type="vector">
<use xlink:href="#path33_stroke" transform="translate(1203.55 1336.66)" fill="#0066FF" style="mix-blend-mode:normal;"/>
</g>
<g id="Vector" style="mix-blend-mode:normal;" figma:type="vector">
<use xlink:href="#path34_stroke" transform="translate(1303.35 1352.76)" fill="#0066FF" style="mix-blend-mode:normal;"/>
</g>
<g id="Vector" style="mix-blend-mode:normal;" figma:type="vector">
<use xlink:href="#path35_stroke" transform="translate(1260.5 1367.08)" fill="#0066FF" style="mix-blend-mode:normal;"/>
</g>
<g id="Vector" style="mix-blend-mode:normal;" figma:type="vector">
<use xlink:href="#path36_stroke" transform="translate(1304.78 1370.52)" fill="#0066FF" style="mix-blend-mode:normal;"/>
</g>
</g>
</g>
</g>
<defs>
<path id="path0_fill" d="M 10.1 37.5L 10.1 11.3L 18.75 37.5L 24.45 37.5L 33.1 11.3L 33.1 37.5L 39.1 37.5L 39.1 2.5L 30.2 2.5L 21.65 29.4L 13 2.5L 4.1 2.5L 4.1 37.5L 10.1 37.5ZM 61.1129 27.85C 61.1129 30.9 58.1629 33.6 54.1629 33.6C 51.7129 33.6 50.2629 31.3 51.2129 29.15C 51.6129 28.3 52.3629 27.5 54.2129 26.95C 55.9629 26.4 59.2129 25.95 61.1129 25.7L 61.1129 27.85ZM 68.9129 33.15C 66.9629 33.15 66.5629 32.4 66.5629 30.8L 66.5629 20.7C 66.5629 14.45 62.3629 12.35 56.2129 12.35C 49.3129 12.35 46.0629 15.9 45.8129 20.45L 51.6129 20.45C 51.8129 18.1 53.5629 17 56.3629 17C 60.9629 17 61.1129 20.4 61.1129 21.65L 57.5629 22.15C 55.7129 22.4 53.7129 22.6 52.9629 22.75C 49.1629 23.3 45.0129 25.4 45.0129 30.55C 45.0129 35.4 48.2629 38.15 53.4629 38.15C 57.1129 38.15 60.9129 35.9 61.6629 34.35C 62.2129 37.8 65.9629 38.15 68.9129 37.5L 68.9129 33.15ZM 92.5242 16.75C 89.9742 14.4 86.4742 12.35 81.8742 12.35C 79.6742 12.35 77.3242 13.05 75.5742 14.3C 73.8242 15.65 72.6742 17.5 72.6742 19.85C 72.6742 21.75 73.3742 23.3 74.7242 24.5C 76.0242 25.6 77.6242 26.45 79.5742 27.05L 83.6742 28.3C 85.2742 28.85 87.3242 29.2 87.3242 30.9C 87.3242 32.55 85.0242 33.4 82.7742 33.4C 79.7742 33.4 76.9242 31.55 74.9242 29L 71.5242 32.8C 73.8742 35.8 77.9242 38.15 82.7242 38.15C 85.7742 38.15 88.5742 37.45 90.3242 35.9C 91.8742 34.55 92.7742 32.6 92.7742 30.45C 92.7742 28.5 92.1242 27.1 91.1242 26.1C 89.7742 24.75 87.7242 24 85.7242 23.45L 81.9242 22.35C 79.3742 21.6 78.2242 20.95 78.2242 19.75C 78.2242 18.5 79.6242 17.4 81.7742 17.4C 85.3242 17.4 88.1742 19.95 89.2742 21.15L 92.5242 16.75ZM 117.817 16.75C 115.267 14.4 111.767 12.35 107.167 12.35C 104.967 12.35 102.617 13.05 100.867 14.3C 99.1172 15.65 97.9672 17.5 97.9672 19.85C 97.9672 21.75 98.6672 23.3 100.017 24.5C 101.317 25.6 102.917 26.45 104.867 27.05L 108.967 28.3C 110.567 28.85 112.617 29.2 112.617 30.9C 112.617 32.55 110.317 33.4 108.067 33.4C 105.067 33.4 102.217 31.55 100.217 29L 96.8172 32.8C 99.1672 35.8 103.217 38.15 108.017 38.15C 111.067 38.15 113.867 37.45 115.617 35.9C 117.167 34.55 118.067 32.6 118.067 30.45C 118.067 28.5 117.417 27.1 116.417 26.1C 115.067 24.75 113.017 24 111.017 23.45L 107.217 22.35C 104.667 21.6 103.517 20.95 103.517 19.75C 103.517 18.5 104.917 17.4 107.067 17.4C 110.617 17.4 113.467 19.95 114.567 21.15L 117.817 16.75Z"/>
<path id="path1_fill" d="M 10.1 37.5L 10.1 11.3L 18.75 37.5L 24.45 37.5L 33.1 11.3L 33.1 37.5L 39.1 37.5L 39.1 2.5L 30.2 2.5L 21.65 29.4L 13 2.5L 4.1 2.5L 4.1 37.5L 10.1 37.5ZM 61.1129 27.85C 61.1129 30.9 58.1629 33.6 54.1629 33.6C 51.7129 33.6 50.2629 31.3 51.2129 29.15C 51.6129 28.3 52.3629 27.5 54.2129 26.95C 55.9629 26.4 59.2129 25.95 61.1129 25.7L 61.1129 27.85ZM 68.9129 33.15C 66.9629 33.15 66.5629 32.4 66.5629 30.8L 66.5629 20.7C 66.5629 14.45 62.3629 12.35 56.2129 12.35C 49.3129 12.35 46.0629 15.9 45.8129 20.45L 51.6129 20.45C 51.8129 18.1 53.5629 17 56.3629 17C 60.9629 17 61.1129 20.4 61.1129 21.65L 57.5629 22.15C 55.7129 22.4 53.7129 22.6 52.9629 22.75C 49.1629 23.3 45.0129 25.4 45.0129 30.55C 45.0129 35.4 48.2629 38.15 53.4629 38.15C 57.1129 38.15 60.9129 35.9 61.6629 34.35C 62.2129 37.8 65.9629 38.15 68.9129 37.5L 68.9129 33.15ZM 73.3242 13L 73.3242 37.5L 79.0742 37.5L 79.0742 23.2C 79.0742 19.1 81.7242 17 84.7242 17C 87.3242 17 88.6742 19.05 88.6742 21.25L 88.6742 37.5L 94.4242 37.5L 94.4242 20.75C 94.4242 15 90.8742 12.4 86.1742 12.4C 83.1242 12.4 79.8242 13.9 79.0242 16.05L 79.0242 13L 73.3242 13ZM 121.659 37.5L 121.659 13L 115.909 13L 115.909 27.3C 115.909 31.5 113.409 33.45 110.409 33.5C 107.809 33.5 106.459 31.45 106.459 29.25L 106.459 13L 100.709 13L 100.709 29.75C 100.709 35.5 104.259 38.1 108.959 38.1C 112.109 38.1 115.159 36.6 115.959 34.45L 115.959 37.5L 121.659 37.5ZM 136.096 37.5L 136.096 18L 140.246 18L 140.246 13L 136.096 13L 136.096 9.5C 136.096 6.75 138.746 6.7 140.546 7.1L 140.546 2.3C 139.296 2.05 137.596 1.8 136.196 1.95C 132.446 2.2 130.346 5.15 130.346 8.95L 130.346 13L 126.346 13L 126.346 18L 130.296 18L 130.296 37.5L 136.096 37.5ZM 159.306 27.85C 159.306 30.9 156.356 33.6 152.356 33.6C 149.906 33.6 148.456 31.3 149.406 29.15C 149.806 28.3 150.556 27.5 152.406 26.95C 154.156 26.4 157.406 25.95 159.306 25.7L 159.306 27.85ZM 167.106 33.15C 165.156 33.15 164.756 32.4 164.756 30.8L 164.756 20.7C 164.756 14.45 160.556 12.35 154.406 12.35C 147.506 12.35 144.256 15.9 144.006 20.45L 149.806 20.45C 150.006 18.1 151.756 17 154.556 17C 159.156 17 159.306 20.4 159.306 21.65L 155.756 22.15C 153.906 22.4 151.906 22.6 151.156 22.75C 147.356 23.3 143.206 25.4 143.206 30.55C 143.206 35.4 146.456 38.15 151.656 38.15C 155.306 38.15 159.106 35.9 159.856 34.35C 160.406 37.8 164.156 38.15 167.106 37.5L 167.106 33.15ZM 188.318 28.4C 187.668 31.2 185.818 33.2 182.418 33.2C 178.168 33.2 175.868 29.35 175.868 25.25C 175.868 21.1 178.168 17.2 182.418 17.2C 185.818 17.2 187.718 19.65 188.268 22.65L 194.018 22.65C 193.818 19.85 192.368 17.2 190.568 15.45C 188.418 13.5 185.868 12.35 182.418 12.35C 175.068 12.35 170.118 18.2 170.118 25.25C 170.118 32.3 175.018 38.15 182.418 38.15C 185.668 38.15 188.368 37.1 190.518 35.25C 192.518 33.55 193.718 31.25 194.068 28.4L 188.318 28.4ZM 200.697 13L 196.847 13L 196.847 17.85L 200.697 17.85L 200.697 32C 200.697 35.65 203.397 37.7 207.197 37.9C 208.397 37.95 209.647 37.8 210.847 37.55L 210.847 32.8C 207.847 33.25 206.447 32.25 206.447 30.6L 206.447 17.85L 210.947 17.85L 210.947 13L 206.447 13L 206.447 5.25L 200.697 5.3L 200.697 13ZM 236.6 37.5L 236.6 13L 230.85 13L 230.85 27.3C 230.85 31.5 228.35 33.45 225.35 33.5C 222.75 33.5 221.4 31.45 221.4 29.25L 221.4 13L 215.65 13L 215.65 29.75C 215.65 35.5 219.2 38.1 223.9 38.1C 227.05 38.1 230.1 36.6 230.9 34.45L 230.9 37.5L 236.6 37.5ZM 243.588 37.5L 249.338 37.5L 249.338 23.5C 249.338 19.65 251.638 17.95 254.038 17.95C 255.188 17.95 256.388 18.35 257.638 19.2L 259.188 13.6C 257.938 12.8 256.388 12.45 254.838 12.45C 252.438 12.45 250.838 13.45 249.288 15.3L 249.288 12.9L 243.588 12.9L 243.588 37.5ZM 278.431 29.5C 277.581 32 275.781 33.25 273.031 33.25C 269.831 33.25 267.381 30.65 267.031 26.85L 284.481 26.85C 284.531 26.1 284.531 25.75 284.531 25.3C 284.531 17 280.081 12.35 273.131 12.35C 265.581 12.35 261.231 18.2 261.231 25.25C 261.231 32.3 265.931 38.15 273.181 38.15C 278.981 38.15 283.081 34.45 284.131 29.5L 278.431 29.5ZM 272.981 17C 276.731 17 278.731 19.9 278.731 22.75L 267.131 22.75C 267.131 19.95 269.181 17 272.981 17Z"/>
<path id="path2_fill" d="M 10.1 37.5L 10.1 11.3L 18.75 37.5L 24.45 37.5L 33.1 11.3L 33.1 37.5L 39.1 37.5L 39.1 2.5L 30.2 2.5L 21.65 29.4L 13 2.5L 4.1 2.5L 4.1 37.5L 10.1 37.5ZM 62.5129 29.5C 61.6629 32 59.8629 33.25 57.1129 33.25C 53.9129 33.25 51.4629 30.65 51.1129 26.85L 68.5629 26.85C 68.6129 26.1 68.6129 25.75 68.6129 25.3C 68.6129 17 64.1629 12.35 57.2129 12.35C 49.6629 12.35 45.3129 18.2 45.3129 25.25C 45.3129 32.3 50.0129 38.15 57.2629 38.15C 63.0629 38.15 67.1629 34.45 68.2129 29.5L 62.5129 29.5ZM 57.0629 17C 60.8129 17 62.8129 19.9 62.8129 22.75L 51.2129 22.75C 51.2129 19.95 53.2629 17 57.0629 17ZM 75.4043 13L 71.5543 13L 71.5543 17.85L 75.4043 17.85L 75.4043 32C 75.4043 35.65 78.1043 37.7 81.9043 37.9C 83.1043 37.95 84.3543 37.8 85.5543 37.55L 85.5543 32.8C 82.5543 33.25 81.1543 32.25 81.1543 30.6L 81.1543 17.85L 85.6543 17.85L 85.6543 13L 81.1543 13L 81.1543 5.25L 75.4043 5.3L 75.4043 13ZM 90.707 2.5L 90.707 37.5L 96.457 37.5L 96.457 23.2C 96.457 19.1 99.107 17 102.107 17C 104.707 17 106.057 19.05 106.057 21.25L 106.057 37.5L 111.807 37.5L 111.807 20.75C 111.807 15 108.257 12.4 103.557 12.4C 100.407 12.4 97.357 13.9 96.407 16.05L 96.407 2.5L 90.707 2.5ZM 117.041 25.25C 117.041 32.3 121.891 38.15 129.541 38.15C 137.141 38.15 142.141 32.3 142.141 25.25C 142.141 18.2 137.141 12.35 129.541 12.35C 121.891 12.35 117.041 18.2 117.041 25.25ZM 122.791 25.25C 122.791 21.1 124.991 17.2 129.541 17.2C 134.091 17.2 136.391 21.1 136.391 25.25C 136.391 29.35 134.091 33.2 129.541 33.2C 124.991 33.2 122.791 29.35 122.791 25.25ZM 169.488 2.5L 163.738 2.5L 163.738 15.3C 161.938 13.3 159.638 12.35 157.088 12.35C 150.438 12.35 146.638 18.2 146.638 25.25C 146.638 32.3 150.138 38.15 156.788 38.15C 159.438 38.15 161.688 37.25 163.738 35.2L 163.738 37.5L 169.488 37.5L 169.488 2.5ZM 163.788 25.15C 163.788 29.3 162.138 33.35 158.088 33.35C 154.038 33.35 152.388 29.3 152.388 25.15C 152.388 21.05 154.038 17.2 158.088 17.2C 162.088 17.2 163.788 20.95 163.788 25.15ZM 195.552 16.75C 193.002 14.4 189.502 12.35 184.902 12.35C 182.702 12.35 180.352 13.05 178.602 14.3C 176.852 15.65 175.702 17.5 175.702 19.85C 175.702 21.75 176.402 23.3 177.752 24.5C 179.052 25.6 180.652 26.45 182.602 27.05L 186.702 28.3C 188.302 28.85 190.352 29.2 190.352 30.9C 190.352 32.55 188.052 33.4 185.802 33.4C 182.802 33.4 179.952 31.55 177.952 29L 174.552 32.8C 176.902 35.8 180.952 38.15 185.752 38.15C 188.802 38.15 191.602 37.45 193.352 35.9C 194.902 34.55 195.802 32.6 195.802 30.45C 195.802 28.5 195.152 27.1 194.152 26.1C 192.802 24.75 190.752 24 188.752 23.45L 184.952 22.35C 182.402 21.6 181.252 20.95 181.252 19.75C 181.252 18.5 182.652 17.4 184.802 17.4C 188.352 17.4 191.202 19.95 192.302 21.15L 195.552 16.75Z"/>
<path id="path3_fill" d="M 2.1 25.25C 2.1 32.3 6.95 38.15 14.6 38.15C 22.2 38.15 27.2 32.3 27.2 25.25C 27.2 18.2 22.2 12.35 14.6 12.35C 6.95 12.35 2.1 18.2 2.1 25.25ZM 7.85 25.25C 7.85 21.1 10.05 17.2 14.6 17.2C 19.15 17.2 21.45 21.1 21.45 25.25C 21.45 29.35 19.15 33.2 14.6 33.2C 10.05 33.2 7.85 29.35 7.85 25.25ZM 40.2469 37.5L 40.2469 18L 44.3969 18L 44.3969 13L 40.2469 13L 40.2469 9.5C 40.2469 6.75 42.8969 6.7 44.6969 7.1L 44.6969 2.3C 43.4469 2.05 41.7469 1.8 40.3469 1.95C 36.5969 2.2 34.4969 5.15 34.4969 8.95L 34.4969 13L 30.4969 13L 30.4969 18L 34.4469 18L 34.4469 37.5L 40.2469 37.5Z"/>
<path id="path4_stroke" d="M 141.605 -1.37372C 140.846 -1.70641 139.961 -1.36107 139.629 -0.602377C 139.296 0.156313 139.641 1.04105 140.4 1.37374L 141.605 -1.37372ZM 138.516 30.4262L 139.055 31.8262L 139.057 31.8252L 138.516 30.4262ZM 92.3441 39.3055L 92.246 37.8087L 92.2414 37.809L 92.3441 39.3055ZM 0.770759 24.6406C 0.0600619 24.2149 -0.861152 24.4459 -1.28683 25.1566C -1.71251 25.8673 -1.48145 26.7885 -0.770757 27.2142L 0.770759 24.6406ZM 140.4 1.37374C 145.837 3.75797 149.584 6.25436 151.87 8.70686C 154.134 11.1369 154.891 13.432 154.61 15.5487C 154.323 17.7165 152.904 20.0411 150.096 22.3906C 147.243 24.7862 143.239 26.9953 137.975 29.0272L 139.057 31.8252C 144.508 29.7135 148.939 27.2609 152.021 24.6915C 155.147 22.0761 157.161 19.1324 157.584 15.943C 158.014 12.7026 156.758 9.55179 154.065 6.66164C 151.392 3.794 147.237 1.09603 141.605 -1.37372L 140.4 1.37374ZM 137.978 29.0262C 124.285 34.3026 106.63 36.8666 92.246 37.8087L 92.4423 40.8022C 106.945 39.8501 125.044 37.2049 139.055 31.8262L 137.978 29.0262ZM 92.2414 37.809C 80.2144 38.6352 62.9427 38.6954 45.7995 36.8521C 28.6224 35.0075 11.8456 31.2739 0.770759 24.6406L -0.770757 27.2142C 10.8852 34.1957 28.2047 37.9799 45.4791 39.835C 62.7874 41.6914 80.3223 41.6332 92.4468 40.8019L 92.2414 37.809Z"/>
<path id="path5_stroke" d="M 8.57156 31.7172C 9.28458 32.139 10.2045 31.9029 10.6263 31.1899C 11.0481 30.4769 10.812 29.557 10.099 29.1352L 8.57156 31.7172ZM 4.48128 10.5367L 5.47879 11.657L 5.48347 11.6528L 4.48128 10.5367ZM 27.5986 1.44935C 28.3991 1.23589 28.8749 0.413954 28.6615 -0.386501C 28.448 -1.18696 27.6261 -1.66281 26.8256 -1.44936L 27.5986 1.44935ZM 10.099 29.1352C 5.98466 26.7014 2.98443 23.8784 1.92347 20.986C 1.36356 19.5091 1.29132 18.2298 1.83594 16.6621C 2.33746 15.1438 3.4534 13.4604 5.47878 11.657L 3.48379 9.41644C 1.18794 11.4607 -0.300706 13.5657 -1.01268 15.7212C -1.68155 17.8273 -1.57621 20.1072 -0.893028 22.0191C 0.5322 25.9046 4.2802 29.1787 8.57156 31.7172L 10.099 29.1352ZM 5.48347 11.6528C 10.996 6.70275 20.5095 3.33977 27.5986 1.44935L 26.8256 -1.44936C 19.708 0.448691 9.56878 3.95234 3.47909 9.42063L 5.48347 11.6528Z"/>
<path id="path6_stroke" d="M 0.423253 -1.43904C -0.371511 -1.6728 -1.20529 -1.21801 -1.43904 -0.423242C -1.6728 0.371522 -1.21801 1.2053 -0.423246 1.43906L 0.423253 -1.43904ZM 11.2378 5.51789C 11.9967 5.84994 12.8812 5.50385 13.2132 4.74488C 13.5453 3.98591 13.1992 3.10147 12.4402 2.76942L 11.2378 5.51789ZM -0.423246 1.43906C 3.58273 2.61714 7.51838 3.88863 11.2378 5.51789L 12.4402 2.76942C 8.58265 1.08376 4.46779 -0.249331 0.423253 -1.43904L -0.423246 1.43906Z"/>
<path id="path7_stroke" d="M -0.55281 97.2127C -0.544738 98.0411 0.133347 98.7061 0.961735 98.698C 1.79012 98.69 2.45512 98.0119 2.44705 97.1835L -0.55281 97.2127ZM 1.49993 -0.0146157C 1.49185 -0.843003 0.813769 -1.508 -0.0146193 -1.49993C -0.843007 -1.49186 -1.508 -0.813772 -1.49993 0.0146157L 1.49993 -0.0146157ZM 2.44705 97.1835L 1.49993 -0.0146157L -1.49993 0.0146157L -0.55281 97.2127L 2.44705 97.1835Z"/>
<path id="path8_stroke" d="M -0.391388 47.447C -1.19112 47.6632 -1.6642 48.4867 -1.44804 49.2864C -1.23188 50.0862 -0.408342 50.5592 0.391388 50.3431L -0.391388 47.447ZM 181.291 1.44802C 182.091 1.23187 182.564 0.408328 182.348 -0.391402C 182.132 -1.19113 181.308 -1.66421 180.508 -1.44805L 181.291 1.44802ZM 0.391388 50.3431L 181.291 1.44802L 180.508 -1.44805L -0.391388 47.447L 0.391388 50.3431Z"/>
<path id="path9_stroke" d="M -1.49835 88.2486C -1.53717 89.0761 -0.897811 89.7784 -0.0702944 89.8172C 0.757222 89.856 1.45953 89.2167 1.49836 88.3892L -1.49835 88.2486ZM 5.642 0.0702944C 5.68083 -0.757222 5.04146 -1.45953 4.21395 -1.49836C 3.38643 -1.53718 2.68412 -0.897818 2.6453 -0.0703016L 5.642 0.0702944ZM 1.49836 88.3892L 5.642 0.0702944L 2.6453 -0.0703016L -1.49835 88.2486L 1.49836 88.3892Z"/>
<path id="path10_stroke" d="M -0.315508 38.5493C -1.1254 38.7236 -1.6407 39.5214 -1.46645 40.3313C -1.2922 41.1412 -0.494393 41.6565 0.315501 41.4822L -0.315508 38.5493ZM 186.306 1.46644C 187.116 1.29219 187.631 0.494386 187.457 -0.315508C 187.283 -1.1254 186.485 -1.6407 185.675 -1.46645L 186.306 1.46644ZM 0.315501 41.4822L 186.306 1.46644L 185.675 -1.46645L -0.315508 38.5493L 0.315501 41.4822Z"/>
<path id="path11_stroke" d="M 1.69764 83.1674C 1.72947 83.9952 2.42636 84.6404 3.25418 84.6086C 4.08199 84.5768 4.72726 83.8799 4.69542 83.0521L 1.69764 83.1674ZM 1.49889 -0.0576461C 1.46705 -0.885461 0.770165 -1.53073 -0.0576498 -1.49889C -0.885465 -1.46705 -1.53073 -0.770162 -1.49889 0.0576533L 1.49889 -0.0576461ZM 4.69542 83.0521L 1.49889 -0.0576461L -1.49889 0.0576533L 1.69764 83.1674L 4.69542 83.0521Z"/>
<path id="path12_stroke" d="M 0.940946 -1.16817C 0.295783 -1.68784 -0.6485 -1.58611 -1.16817 -0.940945C -1.68784 -0.295783 -1.58611 0.648501 -0.940945 1.16817L 0.940946 -1.16817ZM 94.0077 77.6481C 94.6529 78.1677 95.5972 78.066 96.1169 77.4208C 96.6365 76.7757 96.5348 75.8314 95.8896 75.3117L 94.0077 77.6481ZM -0.940945 1.16817L 94.0077 77.6481L 95.8896 75.3117L 0.940946 -1.16817L -0.940945 1.16817Z"/>
<path id="path13_stroke" d="M 0.810281 -1.26231C 0.113123 -1.70982 -0.814811 -1.50744 -1.26232 -0.810278C -1.70982 -0.113119 -1.50744 0.814814 -0.810282 1.26232L 0.810281 -1.26231ZM 96.3878 63.6538C 97.085 64.1013 98.0129 63.8989 98.4604 63.2018C 98.9079 62.5046 98.7055 61.5767 98.0084 61.1292L 96.3878 63.6538ZM -0.810282 1.26232L 96.3878 63.6538L 98.0084 61.1292L 0.810281 -1.26231L -0.810282 1.26232Z"/>
<path id="path14_stroke" d="M 64.8875 1.47959C 65.7046 1.3434 66.2567 0.570557 66.1205 -0.246599C 65.9843 -1.06375 65.2114 -1.61578 64.3943 -1.47959L 64.8875 1.47959ZM -0.246598 9.2939C -1.06375 9.43009 -1.61578 10.2029 -1.47959 11.0201C -1.3434 11.8372 -0.570556 12.3893 0.246599 12.2531L -0.246598 9.2939ZM 64.3943 -1.47959L -0.246598 9.2939L 0.246599 12.2531L 64.8875 1.47959L 64.3943 -1.47959Z"/>
<path id="path15_stroke" d="M 0.781276 -1.28046C 0.0740913 -1.71195 -0.848985 -1.48845 -1.28047 -0.781269C -1.71196 -0.0740836 -1.48846 0.848992 -0.781275 1.28048L 0.781276 -1.28046ZM 87.8928 55.3847C 88.5999 55.8162 89.523 55.5927 89.9545 54.8855C 90.386 54.1783 90.1625 53.2552 89.4553 52.8237L 87.8928 55.3847ZM -0.781275 1.28048L 87.8928 55.3847L 89.4553 52.8237L 0.781276 -1.28046L -0.781275 1.28048Z"/>
<path id="path16_stroke" d="M -0.303391 32.9825C -1.1147 33.15 -1.63656 33.9436 -1.469 34.7549C -1.30144 35.5662 -0.507914 36.088 0.303391 35.9205L -0.303391 32.9825ZM 167.115 1.46899C 167.926 1.30144 168.448 0.50791 168.28 -0.303395C 168.113 -1.1147 167.319 -1.63656 166.508 -1.469L 167.115 1.46899ZM 0.303391 35.9205L 167.115 1.46899L 166.508 -1.469L -0.303391 32.9825L 0.303391 35.9205Z"/>
<path id="path17_stroke" d="M 70.9144 32.1591C 71.6753 32.4867 72.5577 32.1354 72.8853 31.3745C 73.2128 30.6135 72.8615 29.7311 72.1006 29.4036L 70.9144 32.1591ZM 0.593081 -1.37778C -0.167842 -1.70532 -1.05022 -1.35401 -1.37777 -0.593084C -1.70532 0.167838 -1.354 1.05022 -0.593081 1.37777L 0.593081 -1.37778ZM 72.1006 29.4036L 0.593081 -1.37778L -0.593081 1.37777L 70.9144 32.1591L 72.1006 29.4036Z"/>
<path id="path18_stroke" d="M 13.7681 12.4378C 14.4257 12.9416 15.3673 12.8169 15.8711 12.1593C 16.3749 11.5017 16.2502 10.5601 15.5926 10.0563L 13.7681 12.4378ZM 0.912236 -1.19072C 0.254621 -1.69454 -0.686908 -1.56986 -1.19073 -0.912247C -1.69454 -0.254631 -1.56987 0.686897 -0.912251 1.19072L 0.912236 -1.19072ZM 15.5926 10.0563L 0.912236 -1.19072L -0.912251 1.19072L 13.7681 12.4378L 15.5926 10.0563Z"/>
<path id="path19_stroke" d="M 5.94783 0.387768C 6.16199 -0.4125 5.68685 -1.23485 4.88658 -1.44901C 4.08631 -1.66317 3.26396 -1.18803 3.0498 -0.387761L 5.94783 0.387768ZM -1.44902 16.4236C -1.66317 17.2239 -1.18804 18.0462 -0.387768 18.2604C 0.4125 18.4745 1.23485 17.9994 1.44901 17.1991L -1.44902 16.4236ZM 3.0498 -0.387761L -1.44902 16.4236L 1.44901 17.1991L 5.94783 0.387768L 3.0498 -0.387761Z"/>
<path id="path20_stroke" d="M -0.821489 7.26902C -1.51463 7.72272 -1.70875 8.65242 -1.25505 9.34557C -0.801357 10.0387 0.128342 10.2328 0.821488 9.77913L -0.821489 7.26902ZM 13.8444 1.25506C 14.5375 0.801364 14.7316 -0.128335 14.2779 -0.821481C 13.8242 -1.51463 12.8945 -1.70874 12.2014 -1.25505L 13.8444 1.25506ZM 0.821488 9.77913L 13.8444 1.25506L 12.2014 -1.25505L -0.821489 7.26902L 0.821488 9.77913Z"/>
<path id="path21_stroke" d="M -1.49838 99.2595C -1.53685 100.087 -0.897184 100.789 -0.0696505 100.828C 0.757883 100.866 1.45992 100.226 1.49838 99.3988L -1.49838 99.2595ZM 6.11558 0.069651C 6.15405 -0.757883 5.51438 -1.45991 4.68685 -1.49838C 3.85932 -1.53685 3.15728 -0.897184 3.11882 -0.0696501L 6.11558 0.069651ZM 1.49838 99.3988L 6.11558 0.069651L 3.11882 -0.0696501L -1.49838 99.2595L 1.49838 99.3988Z"/>
<path id="path22_stroke" d="M -0.129828 15.6722C -0.955147 15.7439 -1.56607 16.471 -1.49437 17.2964C -1.42267 18.1217 -0.69549 18.7326 0.129828 18.6609L -0.129828 15.6722ZM 197.723 1.49437C 198.548 1.42267 199.159 0.69549 199.087 -0.129828C 199.015 -0.955146 198.288 -1.56607 197.463 -1.49437L 197.723 1.49437ZM 0.129828 18.6609L 197.723 1.49437L 197.463 -1.49437L -0.129828 15.6722L 0.129828 18.6609Z"/>
<path id="path23_stroke" d="M -0.552822 110.826C -0.545742 111.654 0.131546 112.32 0.959943 112.313C 1.78834 112.306 2.45415 111.629 2.44707 110.8L -0.552822 110.826ZM 1.49995 -0.0128219C 1.49286 -0.841219 0.815577 -1.50703 -0.0128201 -1.49995C -0.841217 -1.49287 -1.50703 -0.815579 -1.49995 0.0128183L 1.49995 -0.0128219ZM 2.44707 110.8L 1.49995 -0.0128219L -1.49995 0.0128183L -0.552822 110.826L 2.44707 110.8Z"/>
<path id="path24_stroke" d="M 123.58 22.9066C 124.396 23.0479 125.173 22.5006 125.314 21.6843C 125.455 20.868 124.908 20.0918 124.092 19.9505L 123.58 22.9066ZM 0.255763 -1.47803C -0.560533 -1.61929 -1.33678 -1.07206 -1.47803 -0.255759C -1.61928 0.560537 -1.07205 1.33678 -0.255756 1.47803L 0.255763 -1.47803ZM 124.092 19.9505L 0.255763 -1.47803L -0.255756 1.47803L 123.58 22.9066L 124.092 19.9505Z"/>
<path id="path25_stroke" d="M 2.0528 92.7567C 2.08451 93.5845 2.78131 94.2299 3.60913 94.1982C 4.43695 94.1665 5.08231 93.4697 5.0506 92.6419L 2.0528 92.7567ZM 1.4989 -0.0574287C 1.46718 -0.885248 0.770391 -1.53062 -0.0574291 -1.4989C -0.885249 -1.46718 -1.53062 -0.77039 -1.4989 0.0574296L 1.4989 -0.0574287ZM 5.0506 92.6419L 1.4989 -0.0574287L -1.4989 0.0574296L 2.0528 92.7567L 5.0506 92.6419Z"/>
<path id="path26_stroke" d="M 176.266 1.49656C 177.092 1.44045 177.717 0.724945 177.661 -0.101581C 177.605 -0.928106 176.889 -1.55266 176.063 -1.49656L 176.266 1.49656ZM -0.101581 10.4608C -0.928106 10.5169 -1.55266 11.2324 -1.49656 12.059C -1.44045 12.8855 -0.724945 13.51 0.101581 13.4539L -0.101581 10.4608ZM 176.063 -1.49656L -0.101581 10.4608L 0.101581 13.4539L 176.266 1.49656L 176.063 -1.49656Z"/>
<path id="path27_stroke" d="M 0.613724 -1.3687C -0.142189 -1.70765 -1.02975 -1.36963 -1.3687 -0.613722C -1.70765 0.142191 -1.36964 1.02975 -0.613724 1.3687L 0.613724 -1.3687ZM 99.189 46.1201C 99.9449 46.459 100.832 46.121 101.171 45.3651C 101.51 44.6092 101.172 43.7216 100.416 43.3827L 99.189 46.1201ZM -0.613724 1.3687L 99.189 46.1201L 100.416 43.3827L 0.613724 -1.3687L -0.613724 1.3687Z"/>
<path id="path28_stroke" d="M 0.377608 -1.45169C -0.42414 -1.66024 -1.24315 -1.17936 -1.45169 -0.377608C -1.66024 0.42414 -1.17936 1.24315 -0.377608 1.45169L 0.377608 -1.45169ZM 102.03 28.0894C 102.831 28.298 103.65 27.8171 103.859 27.0153C 104.067 26.2136 103.587 25.3946 102.785 25.186L 102.03 28.0894ZM -0.377608 1.45169L 102.03 28.0894L 102.785 25.186L 0.377608 -1.45169L -0.377608 1.45169Z"/>
<path id="path29_stroke" d="M 0.623387 -1.36433C -0.13011 -1.70861 -1.02004 -1.37688 -1.36433 -0.623387C -1.70861 0.13011 -1.37688 1.02004 -0.623387 1.36433L 0.623387 -1.36433ZM 90.0633 42.8008C 90.8168 43.1451 91.7067 42.8133 92.051 42.0598C 92.3953 41.3064 92.0635 40.4164 91.31 40.0721L 90.0633 42.8008ZM -0.623387 1.36433L 90.0633 42.8008L 91.31 40.0721L 0.623387 -1.36433L -0.623387 1.36433Z"/>
<path id="path30_stroke" d="M -0.228778 24.9185C -1.04751 25.0448 -1.6088 25.811 -1.48245 26.6297C -1.3561 27.4485 -0.589953 28.0097 0.228781 27.8834L -0.228778 24.9185ZM 171.302 1.48245C 172.121 1.3561 172.682 0.589952 172.556 -0.228783C 172.429 -1.04752 171.663 -1.60881 170.845 -1.48245L 171.302 1.48245ZM 0.228781 27.8834L 171.302 1.48245L 170.845 -1.48245L -0.228778 24.9185L 0.228781 27.8834Z"/>
<path id="path31_stroke" d="M 3.59678 8.27675C 4.04865 8.97108 4.97783 9.16764 5.67217 8.71577C 6.36651 8.2639 6.56307 7.33472 6.1112 6.64038L 3.59678 8.27675ZM 1.25721 -0.818187C 0.805343 -1.51252 -0.123842 -1.70908 -0.81818 -1.25721C -1.51252 -0.805343 -1.70908 0.123842 -1.25721 0.81818L 1.25721 -0.818187ZM 6.1112 6.64038L 1.25721 -0.818187L -1.25721 0.81818L 3.59678 8.27675L 6.1112 6.64038Z"/>
<path id="path32_stroke" d="M -0.774527 8.4234C -1.48397 8.85115 -1.71233 9.77304 -1.28458 10.4825C -0.856822 11.1919 0.0650638 11.4203 0.774512 10.9925L -0.774527 8.4234ZM 16.8755 1.28457C 17.585 0.856815 17.8134 -0.065071 17.3856 -0.774519C 16.9578 -1.48397 16.036 -1.71233 15.3265 -1.28457L 16.8755 1.28457ZM 0.774512 10.9925L 16.8755 1.28457L 15.3265 -1.28457L -0.774527 8.4234L 0.774512 10.9925Z"/>
<path id="path33_stroke" d="M 0.916025 -1.18781C 0.260014 -1.69372 -0.681906 -1.57203 -1.18781 -0.916023C -1.69372 -0.260012 -1.57204 0.681908 -0.916025 1.18781L 0.916025 -1.18781ZM 13.054 11.9613C 13.71 12.4672 14.6519 12.3455 15.1578 11.6895C 15.6637 11.0335 15.542 10.0916 14.886 9.58567L 13.054 11.9613ZM -0.916025 1.18781L 13.054 11.9613L 14.886 9.58567L 0.916025 -1.18781L -0.916025 1.18781Z"/>
<path id="path34_stroke" d="M -0.221344 27.1668C -1.0407 27.289 -1.60582 28.0523 -1.48357 28.8717C -1.36133 29.6911 -0.598006 30.2562 0.221351 30.1339L -0.221344 27.1668ZM 192.25 1.48358C 193.069 1.36133 193.634 0.59801 193.512 -0.221348C 193.39 -1.04071 192.626 -1.60583 191.807 -1.48358L 192.25 1.48358ZM 0.221351 30.1339L 192.25 1.48358L 191.807 -1.48358L -0.221344 27.1668L 0.221351 30.1339Z"/>
<path id="path35_stroke" d="M 43.5781 63.7183C 44.3109 64.1047 45.2182 63.824 45.6046 63.0912C 45.9911 62.3584 45.7103 61.4511 44.9775 61.0647L 43.5781 63.7183ZM 1.48316 -0.224124C 1.35938 -1.04325 0.595004 -1.60694 -0.224124 -1.48316C -1.04325 -1.35938 -1.60694 -0.595007 -1.48316 0.22412L 1.48316 -0.224124ZM 44.9775 61.0647C 21.6039 48.7383 5.43744 25.9439 1.48316 -0.224124L -1.48316 0.22412C 2.61307 27.3316 19.359 50.946 43.5781 63.7183L 44.9775 61.0647Z"/>
<path id="path36_stroke" d="M 124.362 0.283966C 124.518 -0.529481 123.986 -1.31605 123.173 -1.47288C 122.359 -1.62971 121.573 -1.09741 121.416 -0.283966L 124.362 0.283966ZM 0.700544 57.7502C -0.0319862 57.3633 -0.939463 57.6435 -1.32636 58.376C -1.71326 59.1085 -1.43307 60.016 -0.700544 60.4029L 0.700544 57.7502ZM 121.416 -0.283966C 110.832 54.6126 50.2389 83.9148 0.700544 57.7502L -0.700544 60.4029C 50.6293 87.5138 113.399 57.1474 124.362 0.283966L 121.416 -0.283966Z"/>
</defs>
</svg>
