<svg width="1000" height="1000" viewBox="0 0 1000 1000" version="2.0" xmlns="http://www.w3.org/2000/svg" xmlns:xlink="http://www.w3.org/1999/xlink" xmlns:figma="http://www.figma.com/figma/ns">
<title>mon-1x1.svg</title>
<desc>Created using Figma 0.90</desc>
<g id="Canvas" transform="matrix(2 0 0 2 -3300 -2158)" figma:type="canvas">
<mask id="mask0_alpha" mask-type="alpha">
<path d="M 1650 1079L 2150 1079L 2150 1579L 1650 1579L 1650 1079Z" fill="#FFFFFF"/>
</mask>
<g id="mon-1x1" style="mix-blend-mode:normal;" mask="url(#mask0_alpha)" figma:type="frame">
<g id="bg" style="mix-blend-mode:normal;" figma:type="rounded-rectangle">
<use xlink:href="#path0_fill" transform="translate(1650 1079)" style="mix-blend-mode:normal;"/>
</g>
<g id="Mondays" style="mix-blend-mode:normal;" figma:type="text">
<use xlink:href="#path1_fill" transform="translate(1769 1292)" fill="#FFFFFF" style="mix-blend-mode:normal;"/>
</g>
<g id="bar" style="mix-blend-mode:normal;" figma:type="rounded-rectangle">
<use xlink:href="#path2_fill" transform="translate(1772 1366)" fill="#FE4747" style="mix-blend-mode:normal;"/>
</g>
</g>
</g>
<defs>
<path id="path0_fill" d="M 0 0L 500 0L 500 500L 0 500L 0 0Z"/>
<path id="path1_fill" d="M 4.14 15.66L 4.14 58.5L 12.96 58.5L 12.96 28.44L 13.08 28.44L 23.58 58.5L 30.84 58.5L 41.34 28.14L 41.46 28.14L 41.46 58.5L 50.28 58.5L 50.28 15.66L 37.02 15.66L 27.54 45.12L 27.42 45.12L 17.4 15.66L 4.14 15.66ZM 65.2336 43.02C 65.2336 41.78 65.3536 40.56 65.5936 39.36C 65.8336 38.16 66.2336 37.1 66.7936 36.18C 67.3936 35.26 68.1736 34.52 69.1336 33.96C 70.0936 33.36 71.2936 33.06 72.7336 33.06C 74.1736 33.06 75.3736 33.36 76.3336 33.96C 77.3336 34.52 78.1136 35.26 78.6736 36.18C 79.2736 37.1 79.6936 38.16 79.9336 39.36C 80.1736 40.56 80.2936 41.78 80.2936 43.02C 80.2936 44.26 80.1736 45.48 79.9336 46.68C 79.6936 47.84 79.2736 48.9 78.6736 49.86C 78.1136 50.78 77.3336 51.52 76.3336 52.08C 75.3736 52.64 74.1736 52.92 72.7336 52.92C 71.2936 52.92 70.0936 52.64 69.1336 52.08C 68.1736 51.52 67.3936 50.78 66.7936 49.86C 66.2336 48.9 65.8336 47.84 65.5936 46.68C 65.3536 45.48 65.2336 44.26 65.2336 43.02ZM 56.7136 43.02C 56.7136 45.5 57.0936 47.74 57.8536 49.74C 58.6136 51.74 59.6936 53.46 61.0936 54.9C 62.4936 56.3 64.1736 57.38 66.1336 58.14C 68.0936 58.9 70.2936 59.28 72.7336 59.28C 75.1736 59.28 77.3736 58.9 79.3336 58.14C 81.3336 57.38 83.0336 56.3 84.4336 54.9C 85.8336 53.46 86.9136 51.74 87.6736 49.74C 88.4336 47.74 88.8136 45.5 88.8136 43.02C 88.8136 40.54 88.4336 38.3 87.6736 36.3C 86.9136 34.26 85.8336 32.54 84.4336 31.14C 83.0336 29.7 81.3336 28.6 79.3336 27.84C 77.3736 27.04 75.1736 26.64 72.7336 26.64C 70.2936 26.64 68.0936 27.04 66.1336 27.84C 64.1736 28.6 62.4936 29.7 61.0936 31.14C 59.6936 32.54 58.6136 34.26 57.8536 36.3C 57.0936 38.3 56.7136 40.54 56.7136 43.02ZM 94.3533 27.48L 94.3533 58.5L 102.873 58.5L 102.873 42.24C 102.873 39.08 103.393 36.82 104.433 35.46C 105.473 34.06 107.153 33.36 109.473 33.36C 111.513 33.36 112.933 34 113.733 35.28C 114.533 36.52 114.933 38.42 114.933 40.98L 114.933 58.5L 123.453 58.5L 123.453 39.42C 123.453 37.5 123.273 35.76 122.913 34.2C 122.593 32.6 122.013 31.26 121.173 30.18C 120.333 29.06 119.173 28.2 117.693 27.6C 116.253 26.96 114.393 26.64 112.113 26.64C 110.313 26.64 108.553 27.06 106.833 27.9C 105.113 28.7 103.713 30 102.633 31.8L 102.453 31.8L 102.453 27.48L 94.3533 27.48ZM 151.94 42.9C 151.94 44.18 151.82 45.42 151.58 46.62C 151.34 47.82 150.94 48.9 150.38 49.86C 149.82 50.78 149.06 51.52 148.1 52.08C 147.18 52.64 146.02 52.92 144.62 52.92C 143.3 52.92 142.16 52.64 141.2 52.08C 140.28 51.48 139.5 50.72 138.86 49.8C 138.26 48.84 137.82 47.76 137.54 46.56C 137.26 45.36 137.12 44.16 137.12 42.96C 137.12 41.68 137.24 40.46 137.48 39.3C 137.76 38.1 138.18 37.04 138.74 36.12C 139.34 35.2 140.12 34.46 141.08 33.9C 142.04 33.34 143.22 33.06 144.62 33.06C 146.02 33.06 147.18 33.34 148.1 33.9C 149.02 34.46 149.76 35.2 150.32 36.12C 150.92 37 151.34 38.04 151.58 39.24C 151.82 40.4 151.94 41.62 151.94 42.9ZM 152.06 54.54L 152.06 58.5L 160.16 58.5L 160.16 15.66L 151.64 15.66L 151.64 31.26L 151.52 31.26C 150.56 29.74 149.24 28.6 147.56 27.84C 145.92 27.04 144.18 26.64 142.34 26.64C 140.06 26.64 138.06 27.1 136.34 28.02C 134.62 28.9 133.18 30.08 132.02 31.56C 130.9 33.04 130.04 34.76 129.44 36.72C 128.88 38.64 128.6 40.64 128.6 42.72C 128.6 44.88 128.88 46.96 129.44 48.96C 130.04 50.96 130.9 52.74 132.02 54.3C 133.18 55.82 134.64 57.04 136.4 57.96C 138.16 58.84 140.2 59.28 142.52 59.28C 144.56 59.28 146.38 58.92 147.98 58.2C 149.62 57.44 150.94 56.22 151.94 54.54L 152.06 54.54ZM 166.239 37.02C 166.359 35.02 166.859 33.36 167.739 32.04C 168.619 30.72 169.739 29.66 171.099 28.86C 172.459 28.06 173.979 27.5 175.659 27.18C 177.379 26.82 179.099 26.64 180.819 26.64C 182.379 26.64 183.959 26.76 185.559 27C 187.159 27.2 188.619 27.62 189.939 28.26C 191.259 28.9 192.339 29.8 193.179 30.96C 194.019 32.08 194.439 33.58 194.439 35.46L 194.439 51.6C 194.439 53 194.519 54.34 194.679 55.62C 194.839 56.9 195.119 57.86 195.519 58.5L 186.879 58.5C 186.719 58.02 186.579 57.54 186.459 57.06C 186.379 56.54 186.319 56.02 186.279 55.5C 184.919 56.9 183.319 57.88 181.479 58.44C 179.639 59 177.759 59.28 175.839 59.28C 174.359 59.28 172.979 59.1 171.699 58.74C 170.419 58.38 169.299 57.82 168.339 57.06C 167.379 56.3 166.619 55.34 166.059 54.18C 165.539 53.02 165.279 51.64 165.279 50.04C 165.279 48.28 165.579 46.84 166.179 45.72C 166.819 44.56 167.619 43.64 168.579 42.96C 169.579 42.28 170.699 41.78 171.939 41.46C 173.219 41.1 174.499 40.82 175.779 40.62C 177.059 40.42 178.319 40.26 179.559 40.14C 180.799 40.02 181.899 39.84 182.859 39.6C 183.819 39.36 184.579 39.02 185.139 38.58C 185.699 38.1 185.959 37.42 185.919 36.54C 185.919 35.62 185.759 34.9 185.439 34.38C 185.159 33.82 184.759 33.4 184.239 33.12C 183.759 32.8 183.179 32.6 182.499 32.52C 181.859 32.4 181.159 32.34 180.399 32.34C 178.719 32.34 177.399 32.7 176.439 33.42C 175.479 34.14 174.919 35.34 174.759 37.02L 166.239 37.02ZM 185.919 43.32C 185.559 43.64 185.099 43.9 184.539 44.1C 184.019 44.26 183.439 44.4 182.799 44.52C 182.199 44.64 181.559 44.74 180.879 44.82C 180.199 44.9 179.519 45 178.839 45.12C 178.199 45.24 177.559 45.4 176.919 45.6C 176.319 45.8 175.779 46.08 175.299 46.44C 174.859 46.76 174.499 47.18 174.219 47.7C 173.939 48.22 173.799 48.88 173.799 49.68C 173.799 50.44 173.939 51.08 174.219 51.6C 174.499 52.12 174.879 52.54 175.359 52.86C 175.839 53.14 176.399 53.34 177.039 53.46C 177.679 53.58 178.339 53.64 179.019 53.64C 180.699 53.64 181.999 53.36 182.919 52.8C 183.839 52.24 184.519 51.58 184.959 50.82C 185.399 50.02 185.659 49.22 185.739 48.42C 185.859 47.62 185.919 46.98 185.919 46.5L 185.919 43.32ZM 216.352 62.34L 229.312 27.48L 220.492 27.48L 213.712 48.72L 213.593 48.72L 206.572 27.48L 197.513 27.48L 208.372 56.58C 208.613 57.18 208.732 57.82 208.732 58.5C 208.732 59.42 208.453 60.26 207.892 61.02C 207.373 61.78 206.553 62.22 205.433 62.34C 204.592 62.38 203.752 62.36 202.913 62.28C 202.073 62.2 201.252 62.12 200.452 62.04L 200.452 69.06C 201.332 69.14 202.192 69.2 203.032 69.24C 203.912 69.32 204.793 69.36 205.672 69.36C 208.593 69.36 210.873 68.82 212.513 67.74C 214.152 66.66 215.432 64.86 216.352 62.34ZM 238.766 48.42L 230.666 48.42C 230.746 50.5 231.206 52.24 232.046 53.64C 232.926 55 234.026 56.1 235.346 56.94C 236.706 57.78 238.246 58.38 239.966 58.74C 241.686 59.1 243.446 59.28 245.246 59.28C 247.006 59.28 248.726 59.1 250.406 58.74C 252.126 58.42 253.646 57.84 254.966 57C 256.286 56.16 257.346 55.06 258.146 53.7C 258.986 52.3 259.406 50.58 259.406 48.54C 259.406 47.1 259.126 45.9 258.566 44.94C 258.006 43.94 257.266 43.12 256.346 42.48C 255.426 41.8 254.366 41.26 253.166 40.86C 252.006 40.46 250.806 40.12 249.566 39.84C 248.366 39.56 247.186 39.3 246.026 39.06C 244.866 38.82 243.826 38.56 242.906 38.28C 242.026 37.96 241.306 37.56 240.746 37.08C 240.186 36.6 239.906 35.98 239.906 35.22C 239.906 34.58 240.066 34.08 240.386 33.72C 240.706 33.32 241.086 33.02 241.526 32.82C 242.006 32.62 242.526 32.5 243.086 32.46C 243.646 32.38 244.166 32.34 244.646 32.34C 246.166 32.34 247.486 32.64 248.606 33.24C 249.726 33.8 250.346 34.9 250.466 36.54L 258.566 36.54C 258.406 34.62 257.906 33.04 257.066 31.8C 256.266 30.52 255.246 29.5 254.006 28.74C 252.766 27.98 251.346 27.44 249.746 27.12C 248.186 26.8 246.566 26.64 244.886 26.64C 243.206 26.64 241.566 26.8 239.966 27.12C 238.366 27.4 236.926 27.92 235.646 28.68C 234.366 29.4 233.326 30.4 232.526 31.68C 231.766 32.96 231.386 34.6 231.386 36.6C 231.386 37.96 231.666 39.12 232.226 40.08C 232.786 41 233.526 41.78 234.446 42.42C 235.366 43.02 236.406 43.52 237.566 43.92C 238.766 44.28 239.986 44.6 241.226 44.88C 244.266 45.52 246.626 46.16 248.306 46.8C 250.026 47.44 250.886 48.4 250.886 49.68C 250.886 50.44 250.706 51.08 250.346 51.6C 249.986 52.08 249.526 52.48 248.966 52.8C 248.446 53.08 247.846 53.3 247.166 53.46C 246.526 53.58 245.906 53.64 245.306 53.64C 244.466 53.64 243.646 53.54 242.846 53.34C 242.086 53.14 241.406 52.84 240.806 52.44C 240.206 52 239.706 51.46 239.306 50.82C 238.946 50.14 238.766 49.34 238.766 48.42Z"/>
<path id="path2_fill" d="M 0 0L 255 0L 255 18L 0 18L 0 0Z"/>
</defs>
</svg>
