<svg width="501" height="501" viewBox="0 0 501 501" version="1.1" xmlns="http://www.w3.org/2000/svg" xmlns:xlink="http://www.w3.org/1999/xlink" xmlns:figma="http://www.figma.com/figma/ns">
<title>PL-1x1</title>
<desc>Created using Figma</desc>
<g id="Canvas" transform="translate(-5 -1704)" figma:type="canvas">
<mask id="mask0_alpha" mask-type="alpha">
<path d="M 5.64526 1704.42L 505.645 1704.42L 505.645 2204.42L 5.64526 2204.42L 5.64526 1704.42Z" fill="#FFFFFF"/>
</mask>
<g id="PL-1x1" style="mix-blend-mode:normal;" mask="url(#mask0_alpha)" figma:type="frame">
<path d="M 5.64526 1704.42L 505.645 1704.42L 505.645 2204.42L 5.64526 2204.42L 5.64526 1704.42Z" fill="#FFD6EE"/>
<g id="label" style="mix-blend-mode:normal;" figma:type="text">
<use xlink:href="#path0_fill" transform="translate(74.1453 1888.92)" fill="#0000FF" style="mix-blend-mode:normal;"/>
</g>
</g>
</g>
<defs>
<path id="path0_fill" d="M 7.42188 120.117C 9.96094 112.76 11.6211 102.913 12.4023 90.5762L 2.39258 86.9629L 12.8906 76.9531C 12.8906 75.4557 12.8906 72.2005 12.8906 67.1875C 12.8906 62.1745 12.679 54.3132 12.2559 43.6035C 10.5632 42.8223 8.83789 42.041 7.08008 41.2598C 5.35482 40.446 3.64583 39.6159 1.95312 38.7695L 10.3516 28.0762C 19.2708 30.6803 25.6999 32.6009 29.6387 33.8379C 29.541 34.8796 29.4596 35.9212 29.3945 36.9629C 29.3294 38.0046 29.248 39.0137 29.1504 39.9902L 43.9941 28.0762C 55.0618 36.4421 60.5957 46.3867 60.5957 57.9102C 60.5957 59.1471 60.5306 60.3841 60.4004 61.6211C 59.0983 74.7721 53.304 88.0697 43.0176 101.514L 27.3438 95.8984C 27.6367 101.139 28.2715 104.639 29.248 106.396C 23.9095 109.684 16.6341 114.258 7.42188 120.117ZM 43.5059 86.8652C 47.5423 86.8652 49.5605 83.7891 49.5605 77.6367C 49.5605 72.3958 48.5514 67.0085 46.5332 61.4746C 44.515 55.9408 41.7806 51.5951 38.3301 48.4375C 36.9629 47.168 35.6283 46.5332 34.3262 46.5332C 32.3079 46.5332 30.3385 48.0143 28.418 50.9766C 27.7344 61.6862 27.3112 71.1589 27.1484 79.3945L 43.2129 86.8652C 43.3105 86.8652 43.4082 86.8652 43.5059 86.8652ZM 64.7949 59.5703L 72.168 50.293L 83.1055 55.4199C 82.7148 56.7546 82.2917 58.0566 81.8359 59.3262C 81.3802 60.5957 81.1523 61.8978 81.1523 63.2324L 80.4688 83.0566C 80.4688 83.2194 80.4688 83.3659 80.4688 83.4961C 80.4688 85.026 80.957 86.2956 81.9336 87.3047C 82.9102 88.3138 84.0332 89.0788 85.3027 89.5996L 75.5371 101.514L 65.1855 93.1641C 67.0736 90.918 68.0176 88.6719 68.0176 86.4258L 68.3594 64.2578C 68.3594 62.6953 67.1712 61.1328 64.7949 59.5703ZM 66.2598 49.8535L 70.166 30.5664L 84.668 36.377L 66.2598 49.8535ZM 99.1211 87.2559L 99.707 95.9961C 95.931 96.9727 91.6178 98.8118 86.7676 101.514C 88.2975 93.571 92.6432 83.8216 99.8047 72.2656C 97.5586 68.3594 95.5729 65.153 93.8477 62.6465C 93.2292 61.7676 92.3177 61.2956 91.1133 61.2305C 89.9089 61.1328 88.7533 61.084 87.6465 61.084C 88.916 59.2936 90.446 57.5033 92.2363 55.7129C 94.0267 53.9225 96.5658 52.1159 99.8535 50.293C 101.579 53.8086 103.695 57.8939 106.201 62.5488C 109.033 58.61 112.028 54.5247 115.186 50.293C 119.385 52.181 123.063 53.8574 126.221 55.3223L 119.971 66.5527C 117.594 64.0137 115.234 62.2559 112.891 61.2793C 111.165 63.4928 109.733 65.3646 108.594 66.8945C 112.272 73.4375 115.983 79.4759 119.727 85.0098C 121.387 87.5488 123.617 88.916 126.416 89.1113C 122.021 94.0592 117.871 98.1934 113.965 101.514C 112.044 97.4772 110.14 93.3919 108.252 89.2578C 106.396 85.1237 104.411 81.0221 102.295 76.9531C 100.179 81.1849 99.1211 84.6191 99.1211 87.2559ZM 152.539 101.514L 129.15 92.1875C 130.029 87.3047 130.469 82.2266 130.469 76.9531C 130.469 71.6471 129.964 66.1133 128.955 60.3516L 145.801 50.4395L 145.801 50.293L 145.898 50.3418L 145.947 50.3418L 164.941 63.9648L 145.166 84.7656C 146.501 86.3607 147.982 87.2396 149.609 87.4023C 151.237 87.5651 152.572 87.6465 153.613 87.6465C 154.688 87.6465 155.941 87.5977 157.373 87.5C 158.838 87.3698 160.628 87.2721 162.744 87.207C 161.019 89.6159 159.31 92.0085 157.617 94.3848C 155.924 96.7611 154.232 99.1374 152.539 101.514ZM 144.434 63.4766C 142.546 63.4766 141.602 66.0482 141.602 71.1914C 141.602 74.1211 142.09 77.0508 143.066 79.9805C 143.066 80.2734 143.115 80.5176 143.213 80.7129L 151.074 72.4121C 151.628 71.8262 151.904 71.2402 151.904 70.6543C 151.904 70.0684 151.611 69.3197 151.025 68.4082C 150.472 67.4967 149.902 66.748 149.316 66.1621C 147.266 64.3717 145.638 63.4766 144.434 63.4766ZM 192.139 90.3809C 186.54 96.5658 182.926 100.537 181.299 102.295C 178.89 100.472 176.481 98.6491 174.072 96.8262C 171.696 94.9707 169.32 93.1315 166.943 91.3086C 169.157 89.388 170.605 87.6139 171.289 85.9863C 171.973 84.3587 172.331 82.8125 172.363 81.3477L 172.607 51.8066C 172.607 49.6908 172.51 47.168 172.314 44.2383C 172.152 41.3086 171.436 38.8346 170.166 36.8164L 186.279 28.0762C 185.4 31.9824 184.88 36.0352 184.717 40.2344C 184.587 44.4336 184.521 48.6979 184.521 53.0273L 184.326 81.6895C 184.326 84.1309 184.554 85.5143 185.01 85.8398C 185.465 86.1654 187.842 87.679 192.139 90.3809ZM 272.266 35.8887C 267.643 35.9863 263.135 36.5234 258.74 37.5C 258.415 39.8438 258.252 42.7572 258.252 46.2402C 258.252 49.7233 258.545 53.0436 259.131 56.2012C 259.717 59.3587 260.01 61.7188 260.01 63.2812C 260.01 65.9505 258.024 68.8477 254.053 71.9727C 251.611 74.056 249.154 76.0905 246.68 78.0762C 244.206 80.0618 241.748 82.0475 239.307 84.0332C 249.3 86.735 259.863 88.0859 270.996 88.0859C 271.615 88.0859 272.249 88.0859 272.9 88.0859C 271.403 90.4948 270.182 92.3503 269.238 93.6523C 268.327 94.9544 267.139 96.7773 265.674 99.1211C 264.6 100.716 262.972 101.514 260.791 101.514C 259.847 101.514 257.438 101.107 253.564 100.293C 249.723 99.4792 244.531 98.4212 237.988 97.1191C 231.478 95.7845 224.984 94.4336 218.506 93.0664C 223.975 86.4583 227.36 80.8919 228.662 76.3672C 229.183 74.5117 229.443 72.4609 229.443 70.2148C 229.443 67.9688 228.662 65.0716 227.1 61.5234C 225.57 57.9753 224.479 54.9154 223.828 52.3438C 223.21 49.7721 222.9 48.0306 222.9 47.1191C 222.9 44.8405 223.779 43.3105 225.537 42.5293C 230.941 40.153 236.556 37.972 242.383 35.9863C 248.21 33.9681 253.076 32.1452 256.982 30.5176C 260.889 28.8574 263.542 28.0273 264.941 28.0273C 266.341 28.0273 267.448 28.3203 268.262 28.9062C 270.052 30.2409 271.387 32.5684 272.266 35.8887ZM 247.168 59.1797L 246.436 47.8027C 246.436 45.7845 246.582 43.7337 246.875 41.6504C 246.159 42.0085 245.101 42.5944 243.701 43.4082C 240.934 45.0684 239.551 47.1354 239.551 49.6094C 239.551 50.4557 240.348 54.2318 241.943 60.9375C 242.562 63.6719 242.871 66.0482 242.871 68.0664C 242.871 70.0846 242.773 71.7773 242.578 73.1445C 244.238 71.9401 245.41 69.7591 246.094 66.6016C 246.81 63.4115 247.168 60.9375 247.168 59.1797ZM 276.221 65.9668L 295.264 50.4883L 316.846 60.5957C 314.307 62.8092 313.021 65.2995 312.988 68.0664L 312.793 84.2285C 312.793 85.3353 313.363 86.5885 314.502 87.9883C 315.674 89.388 316.781 90.5111 317.822 91.3574L 307.959 101.514L 300.391 93.75C 298.568 95.2148 296.729 96.5658 294.873 97.8027C 293.018 99.0072 291.357 100.277 289.893 101.611C 285.01 99.7884 280.452 96.9727 276.221 93.1641C 277.425 91.6341 278.125 89.4043 278.32 86.4746L 278.174 71.7285C 278.174 71.5983 278.174 71.4681 278.174 71.3379C 278.174 69.4173 277.523 67.627 276.221 65.9668ZM 292.969 62.207C 291.081 65.0391 290.137 67.5618 290.137 69.7754L 290.137 81.7383C 290.137 84.1797 290.576 85.9212 291.455 86.9629C 292.204 88.0371 292.887 88.9974 293.506 89.8438C 294.157 90.6901 295.182 91.3086 296.582 91.6992L 300.586 88.8184L 300.586 66.3574L 292.969 62.207ZM 320.947 39.8438L 321.484 37.5488C 327.962 35.2702 334.945 32.1126 342.432 28.0762L 345.508 29.9805C 340.885 32.7474 338.558 37.972 338.525 45.6543L 338.477 55.7129L 346.582 49.2676C 349.056 50.3092 351.335 52.3275 353.418 55.3223C 357.682 61.4421 360.173 67.9362 360.889 74.8047C 360.986 75.6185 361.035 76.6764 361.035 77.9785C 361.035 79.2806 360.677 80.3874 359.961 81.2988L 343.799 102.344L 322.852 91.9434C 323.665 90.1855 324.43 88.3138 325.146 86.3281C 325.863 84.3099 326.221 82.1289 326.221 79.7852L 325.83 45.8984C 325.83 43.4896 324.202 41.4714 320.947 39.8438ZM 338.477 61.5234L 338.33 82.666C 338.623 84.2936 339.73 85.5632 341.65 86.4746C 343.604 87.3535 344.906 87.793 345.557 87.793C 346.24 87.793 346.712 87.7604 346.973 87.6953C 349.772 86.9792 351.172 85.1562 351.172 82.2266C 351.172 81.5104 351.09 80.7292 350.928 79.8828C 349.821 74.4141 348.21 70.2799 346.094 67.4805C 344.01 64.681 341.471 62.6953 338.477 61.5234Z"/>
</defs>
</svg>
